<svg width="94" height="43" fill="none" xmlns="http://www.w3.org/2000/svg"><path d="M30.608 23.094c-6.127-.144-6.272-6.632-6.272-6.632s.35-.08 1.64-.234c1.29-.155 2.01-.113 2.01-.113 0 1.806.532 3.455 2.695 3.918 2.164.463 3.51-1.085 3.598-1.177l.02.007c-1.516-.554-3.643-1.516-6.577-3.172 0 0-4.095.029-6.986 1.3 0 0 1.036 7.595 8.81 7.81 0 0 6.245.48 8.126-5.223-2.955 3.666-7.064 3.516-7.064 3.516Z" fill="#fff"/><path d="M35.458 19.246c.049.015.097.03.144.042l-.144-.042ZM37.664 19.58h-.003.003ZM37.633 19.585l-.002.001h.002ZM35.1 19.138l.156.049-.155-.049ZM34.718 19.012l.121.04-.12-.04ZM55.512 19.58h.002-.002ZM56.62 19.493l-.061.013.06-.013ZM56.395 19.536l-.04.008a.776.776 0 0 0 .04-.008ZM55.54 19.585h.002-.002Z" fill="#fff"/><path d="M64.595 15.691c-2.68 1.656-4.624 2.617-6.009 3.172l.018-.007c.08.093 1.31 1.641 3.286 1.177 1.977-.463 2.463-2.113 2.463-3.918 0 0 .657-.042 1.836.113s1.5.234 1.5.234-.133 6.488-5.732 6.632c0 0-3.753.15-6.453-3.516 1.719 5.702 7.425 5.224 7.425 5.224 7.1-.216 8.048-7.812 8.048-7.812-2.64-1.27-6.382-1.299-6.382-1.299ZM57.853 19.138l-.142.049.142-.049ZM56.86 19.438l-.06.014.06-.014ZM58.203 19.012l-.11.04.11-.04Z" fill="#fff"/><path d="M57.528 19.246c-.045.014-.09.03-.133.042l.133-.042ZM57.207 19.344l-.094.027c.03-.008.063-.017.094-.027ZM17.595 5.177S3.889 1.727.535.05c0 0-.576-.304-.335.591.24.895 1.39 17.524 2.012 29.84 0 0 .04.487.008.647-.032.16.264.462.735.407.471-.056 11.75-.29 14.864.006v-4.918H7.243l-.24-6.254s5.463.064 6.693.352l1.821-5.367H6.765l-.36-7.588 11.213 2.652-.023-5.24ZM20.318 5.553v5.092s11.381 8.91 17.354 8.933c0 0 1.527 7.74-6.327 7.74H26.79v-1.87s-2.819-.878-5.392-3.466c0 0-.418-.463-.418.142v9.23s-.027.18.597.18c.625 0 5.512-.24 13.858 0 0 0 6.682-1.437 6.682-8.05v-6.838s.017-.303-.655-.35c-.673-.049-10.927-2.876-20.2-10.927 0 0-.945-.46-.945.184Z" fill="#fff"/><path d="M64.473 6.411c-6.437 2.86-17.779 2.696-17.779 2.696s-11.342.165-17.779-2.696c0 0-.706-.311-.49.252.215.562 5.93 5.91 10.37 7.746 0 0 .168.104.672-.447.502-.55 2.412-1.605 3.362-1.366 0 0 .335.056.328 1.103-.008 1.046 1.11 15.119 1.11 15.119s.175.176.395 0c.22-.176.547-4.388 2.032-4.388 1.487 0 1.813 4.212 2.033 4.388.22.176.396 0 .396 0s1.118-14.073 1.11-15.119c-.008-1.047.328-1.103.328-1.103.95-.24 2.858.815 3.362 1.366.502.552.67.447.67.447 4.442-1.837 10.156-7.184 10.372-7.746.215-.563-.492-.252-.492-.252Z" fill="#fff"/><path d="M48.527 30.768c-.312-5.679-1.833-5.932-1.833-5.932s-1.425.253-1.737 5.932c0 0 .563 7.843 1.737 7.843 1.174 0 1.833-7.843 1.833-7.843ZM71.737 5.359c-6.606 5.803-13.716 8.892-17.42 10.182-3.333 1.026-3.191 3.553-3.191 3.553v4.38c0 6.613 6.604 8.05 6.604 8.05 8.248-.24 13.695 0 13.695 0s1.246.113 1.246-.18V5.544c.001-.644-.934-.184-.934-.184Zm-9.963 21.948c-7.763 0-6.253-7.74-6.253-7.74 3.298-.014 8.264-2.8 12.005-5.258v7.214c0 5.974-5.752 5.784-5.752 5.784ZM93.257.265c-.597.36-3.589 2.588-16.646 4.529 0 0-.75.144-.734.659 0 0 .237 2.887-.86 24.212l-.1 1.39s-.073.5.49.489c.565-.01 4.693-.01 4.693-.01s.498.072.299-.707c-.2-.779.1-6.026.448-9.453 0 0-.025-.323.586-.3.611.025 6.69 0 6.69 0s4.935.11 5.332-5.93l.409-14.64s-.009-.598-.607-.24ZM88.54 7.86s-.234 4.472-.432 6.549c-.2 2.077-4.784 1.95-6.013 1.95-1.23 0-1.03-.25-1.03-.25.132-4.594.705-7.65.705-7.65.158-.135.456-.135.456-.135s4.187-.608 5.282-.687c1.097-.081 1.032.223 1.032.223ZM1.98 40.177v.72H.72v.18H1.8l-.18.72h-.9v.18h1.26v.719H0v-2.519h1.98ZM4.074 40.177l.36.36v.36h-1.26v.18h.9l.36.36v.9l-.36.359h-1.26l-.36-.36v-.36h1.26v-.18h-.9l-.36-.359v-.9l.36-.36h1.26ZM6.527 40.177l.36.36v.54l-.72.18v-.36h-.54v1.08h.54v-.361l.72.18v.54l-.36.36h-1.26l-.36-.36v-1.8l.36-.359h1.26ZM8.981 40.177l.36.36v1.8l-.36.359h-1.26l-.36-.36v-1.8l.36-.359h1.26Zm-.36.72h-.54v1.08h.54v-1.08ZM9.815 42.696v-2.519h.72v1.8h.54v-.54l.72.179v1.08h-1.98ZM13.889 40.177l.36.36v2.159h-.72v-.54h-.54v.54h-.719v-2.16l.36-.359h1.259Zm-.36.72h-.54v.54h.54v-.54ZM17.177 40.177l.36.36v1.8l-.36.359h-1.62v-2.519h1.62Zm-.36.72h-.54v1.08h.54v-1.08ZM19.99 40.177v.72h-1.259v.18h1.08l-.18.72h-.9v.18h1.26v.719h-1.98v-2.519h1.98ZM22.92 40.177l.359.36v1.8l-.36.359H21.3v-2.519h1.62Zm-.36.72h-.54v1.08h.54v-1.08ZM25.373 40.177l.36.36v1.8l-.36.359h-1.26l-.36-.36v-1.8l.36-.359h1.26Zm-.36.72h-.54v1.08h.54v-1.08ZM27.467 41.976v-1.799h.72v2.16l-.36.359h-1.26l-.36-.36v-2.159h.72v1.8h.54ZM30.46 40.177v.72h-.54v1.799h-.719v-1.8h-.54v-.719h1.8ZM31.655 42.157v.54h-.72v-2.519h1.62l.36.359v1.08l-.18.18.18.18v.719h-.72v-.54h-.54Zm0-.72h.54v-.54h-.54v.54ZM34.109 40.177h-.72v2.519h.72v-2.519ZM35.303 41.437v1.259h-.72v-2.519h.72l.54 1.26v-1.26h.72v2.519h-.72l-.54-1.259ZM38.657 40.177l.36.36v2.159h-.72v-.54h-.54v.54h-.72v-2.16l.36-.359h1.26Zm-.36.72h-.54v.54h.54v-.54ZM41.11 40.177l.36.36v.36h-1.259v.18h.9l.36.36v.9l-.36.359h-1.26l-.36-.36v-.36h1.26v-.18h-.9l-.36-.359v-.9l.36-.36h1.26ZM44.399 40.177l.36.36v1.8l-.36.359h-1.62v-2.519h1.62Zm-.36.72h-.54v1.08h.54v-1.08ZM47.213 40.177v.72h-1.26v.18h1.08l-.18.72h-.9v.18h1.26v.719h-1.98v-2.519h1.98ZM50.322 40.177v.72h-.54v1.799h-.72v-1.8h-.54v-.719h1.8ZM52.775 40.177v.72h-1.26v.18h1.08l-.18.72h-.9v.18h1.26v.719h-1.979v-2.519h1.979ZM54.868 40.177l.36.36v.54l-.718.18v-.36h-.54v1.08h.54v-.361l.719.18v.54l-.36.36h-1.26l-.359-.36v-1.8l.36-.359h1.258ZM56.423 41.437v1.259h-.72v-2.519h.72l.54 1.26v-1.26h.72v2.519h-.72l-.54-1.259ZM58.878 40.177h-.72v2.519h.72v-2.519ZM60.971 40.177l.36.36v.54l-.72.18v-.36h-.54v1.08h.54v-.361l.72.18v.54l-.36.36h-1.26l-.36-.36v-1.8l.36-.359h1.26ZM63.425 40.177l.36.36v2.159h-.72v-.54h-.54v.54h-.72v-2.16l.36-.359h1.26Zm-.36.72h-.54v.54h.54v-.54ZM65.879 40.177l.359.36v.36h-1.259v.18h.9l.359.36v.9l-.36.359H64.62l-.36-.36v-.36h1.26v-.18h-.9l-.36-.359v-.9l.36-.36h1.26ZM69.167 40.177l.36.36v1.8l-.36.359h-1.26l-.36-.36v-1.8l.36-.359h1.26Zm-.36.72h-.54v1.08h.54v-1.08ZM71.621 40.177l.36.36v.9l-.36.359h-.9v.899h-.719v-2.519h1.619v.001Zm-.36.72h-.54v.18h.54v-.18ZM74.434 40.177v.72h-1.26v.18h1.08l-.18.72h-.9v.18h1.26v.719h-1.979v-2.519h1.98ZM75.63 42.157v.54h-.72v-2.519h1.618l.36.359v1.08l-.18.18.18.18v.719h-.719v-.54h-.54Zm0-.72h.539v-.54h-.54v.54ZM78.983 40.177l.36.36v2.159h-.72v-.54h-.54v.54h-.72v-2.16l.36-.359h1.26Zm-.36.72h-.54v.54h.54v-.54ZM81.437 40.177l.36.36v.54l-.72.18v-.36h-.54v1.08h.54v-.361l.72.18v.54l-.36.36h-1.26l-.36-.36v-1.8l.36-.359h1.26ZM82.99 40.177h-.72v2.519h.72v-2.519ZM85.085 40.177l.36.36v1.8l-.36.359h-1.26l-.36-.36v-1.8l.36-.359h1.26Zm-.36.72h-.54v1.08h.54v-1.08ZM86.639 41.437v1.259h-.72v-2.519h.72l.54 1.26v-1.26h.718v2.519h-.718l-.54-1.259ZM89.993 40.177l.36.36v2.159h-.72v-.54h-.54v.54h-.72v-2.16l.36-.359h1.26Zm-.36.72h-.54v.54h.54v-.54ZM91.547 40.177h-.72v2.519h.72v-2.519ZM93.64 40.177l.36.36v.36h-1.259v.18h.9l.359.36v.9l-.36.359h-1.26l-.359-.36v-.36h1.259v-.18h-.9l-.359-.359v-.9l.36-.36h1.26ZM51.604 39.684l.39-.638h.478l-.367.642-.5-.004Z" fill="#fff"/></svg>