<svg xmlns="http://www.w3.org/2000/svg" width="200" height="200" fill="#d4af37"><style>@media (prefers-color-scheme:dark){.a{fill:#f0f0f0}}</style><path d="m39.504 36.552-.823-.528-.585.922.833.518.575-.912m7.94-8.651-1.415-1.351-.792.843 1.437 1.329.77-.821m72.77-20.392-1.069-.328-.56 1.875 1.039.319.59-1.866M30.763 59.967l-1.911-.426-.225 1.042 1.917.399.219-1.015M32.699 47.419l.903.377.417-.976-.899-.392-.421.991M89.375 6.688l-.251-1.942-1.084.148.279 1.937 1.056-.143M78.44 7.969l-.271-.938-1.053.313.289.936 1.035-.311m15.511-3.355-.021-.325-1.094.075.027.325 1.088-.075m35.512 6.54-1.029-.479-.406.89 1.015.474.42-.885M103.6 4.333l-1.097-.07-.058.979 1.083.067.072-.976m4.828.51-1.093-.144-.121.971 1.079.142.135-.969M27.817 65.212l1.938.276.154-1.025-1.935-.305-.157 1.054m.567 16.982-.09-1.051-.976.077.091 1.065.975-.091m2.429 9.006-.226-1.024-1.914.406.231 1.052 1.909-.434"/><path d="M118.017 2.777C77.85-8.238 36.36 15.394 25.344 55.561s12.618 81.655 52.783 92.67 81.658-12.613 92.673-52.78-12.618-81.658-52.783-92.674m16.987 9.807a60.49 60.49 0 0 1 2.36 1.412l.317.972-.351.551a59.5 59.5 0 0 0-2.309-1.415l-.163.282 1.644.996.302.961-.878 1.374-.977.156a56.03 56.03 0 0 0-2.215-1.324l-.318-.931.317-.57c.91.511 1.364.777 2.265 1.322l.17-.278-1.622-.959-.336-.938.795-1.424.999-.187m-1.441-.805-2.179 4.013-1.292-.685 2.095-4.058 1.376.73m-5.292-2.609c.985.438 1.478.667 2.449 1.142l.401.928-1.754 3.499-1.305-.637.422-.885-1-.466-.404.891-1.321-.585 1.549-3.595.963-.292m-3.984-1.633.237 2.538.833-2.125 1.422.576-1.76 4.217-1.332-.542-.201-2.525-.803 2.138-1.347-.49 1.516-4.309 1.435.522m-5.494-1.821c1.019.294 1.527.451 2.537.782l.512.858-1.047 3.092-.888.392a54.394 54.394 0 0 0-2.38-.733l-.508-.823.869-3.144.905-.424m-1.543-.425-1.168 4.415-1.374-.347 1.077-4.439 1.465.371m-6.446-.738.85-.512c1.034.188 1.55.292 2.58.519l.588.801-.22.954a68.68 68.68 0 0 0-1.506.003l.134-.639-1.084-.219-.372 1.921 1.057.212.134-.638 1.346.63-.219.954-.837.481a55.19 55.19 0 0 0-2.422-.487l-.582-.767.553-3.213m-4.862-.669.81-.568a61.96 61.96 0 0 1 2.598.342l.636.76-.619 3.864-1.391-.207.136-.971-1.058-.14-.123.971-1.394-.158.405-3.893m-4.856-.992c1.341.049 2.012.088 3.351.198l.682.712-.179 1.95-.388.292.327.356-.118 1.3-1.399-.116.073-.977-1.063-.068-.056.978-1.397-.064.167-4.561m-.83-.025-.032 1.305a59.016 59.016 0 0 0-2.56-.02l.002.326c.874-.01 1.31-.006 2.185.01l-.385 1.298-1.785-.002.003.325a59.07 59.07 0 0 1 2.49.018l-.032 1.305a55.868 55.868 0 0 0-3.84.011l-.14-4.565a63.5 63.5 0 0 1 4.094-.011m-5.664.078.77.616.067 1.63-.684.684-1.781.116.125 1.625-1.39.123-.44-4.546a59.66 59.66 0 0 1 3.333-.248m-7.472.769a60.74 60.74 0 0 1 2.578-.352l.807.565.354 3.244-.624.727a59.88 59.88 0 0 0-2.416.33l-.794-.533-.532-3.219.627-.762m-6.361 1.27a62.96 62.96 0 0 1 2.539-.578l.854.491.127.64a59.75 59.75 0 0 0-2.498.542l.075.317 1.774-.394.84.494.318 1.6-.555.779c-.957.199-1.431.307-2.38.541l-.84-.462-.161-.632a55.5 55.5 0 0 1 2.418-.575l-.07-.317c-.696.151-1.044.234-1.737.405l-.854-.458-.407-1.58.557-.813M76.02 6.319a64.98 64.98 0 0 1 2.498-.746l.889.434 1.014 3.781-1.343.376-.273-.941-1.017.304.287.935-1.333.424-1.226-3.717.504-.85m-4.648 1.65a64.354 64.354 0 0 1 2.448-.912l.917.373.315.926-1.263.793-.223-.612-1.031.384.7 1.828 1.002-.375-.224-.613 1.463-.17.317.926-.449.847a60.45 60.45 0 0 0-2.297.855l-.896-.343-1.227-3.024.448-.883m-1.465.596 1.765 4.213-1.29.553-1.85-4.174 1.375-.592m-4.504 2.066 2 1.562-.992-2.057 1.359-.637 1.898 4.155-1.273.597-1.971-1.578 1.021 2.043-1.253.643-2.128-4.041 1.339-.687m-5.029 2.764a60.02 60.02 0 0 1 2.289-1.322l.971.213.466.861-1.129.999-.321-.568-.963.557.994 1.687.936-.541-.319-.567 1.425-.418.466.862-.31.914c-.867.478-1.297.728-2.147 1.239l-.948-.186-1.711-2.779.301-.951m-2.825-.51.088 1.353-1.019.679-.046-1.39.977-.642zm1.464 1.349.697 1.102c-.881.557-1.317.845-2.18 1.435l.183.268 1.859-1.228.396 1.296-1.519 1.01.185.27c.84-.574 1.263-.854 2.12-1.395l.698 1.104a57.734 57.734 0 0 0-3.253 2.186l-2.655-3.715a61.109 61.109 0 0 1 3.469-2.333m-4.157 2.83.772 1.053-.905.672 1.969 2.604-1.136.878-2.022-2.562-.882.71-.824-1.013a61.136 61.136 0 0 1 3.028-2.342m-4.931 3.95.858.984a61.336 61.336 0 0 0-1.973 1.789l.224.238c.664-.624 1-.931 1.681-1.533l.585 1.226-1.371 1.257.224.236a57.13 57.13 0 0 1 1.919-1.74l.856.984a57.66 57.66 0 0 0-2.936 2.721l-3.197-3.262a62.21 62.21 0 0 1 3.13-2.9m-4.297 4.07 1.011-.097 2.313 2.303-.053.983a56.9 56.9 0 0 0-2.26 2.434l-3.418-3.029a60.568 60.568 0 0 1 2.407-2.594m-4.792 5.581.971-.198.515.399c-.63.817-.938 1.23-1.538 2.065l.264.19 1.086-1.473.961-.183 1.292.997.087.958a54.8 54.8 0 0 0-1.448 1.983l-.936.205-.538-.372c.564-.821.854-1.227 1.452-2.031-.104-.08-.157-.117-.261-.194l-1.05 1.453-.946.218-1.344-.925-.112-.983a63.82 63.82 0 0 1 1.545-2.109m-2.848 4.029.953-.254 3.25 2.182-.767 1.165-.824-.529-.565.895.831.518-.723 1.186-3.365-2-.179-.967c.54-.886.817-1.327 1.389-2.196m-3.44 5.788 2.525.136-1.999-1.105.728-1.283 3.951 2.291-.683 1.205-2.51-.167 2.015 1.076-.637 1.222-4.07-2.072.68-1.303M33.5 42.515l4.093 2.028-.599 1.24-4.131-1.946.637-1.322m-1.282 2.726.895-.395 1.781.815.149.454.442-.183 1.187.542-.559 1.253-.898-.389-.408.958.903.377-.513 1.271-4.25-1.676a64.185 64.185 0 0 1 1.271-3.027m-1.563 3.787 1.218.464-.375 1.005 3.066 1.117-.455 1.289-3.087-1.058-.338 1.016-1.241-.405a60.89 60.89 0 0 1 1.212-3.428m-2.177 6.634 3.144.871.286-1.001-3.13-.916.421-1.39 3.735 1.173.422.848c-.277.911-.406 1.37-.653 2.289l-.803.496-3.794-.97.372-1.4m-.738 2.888.803-.55 3.169.775.476.816a57.857 57.857 0 0 0-.502 2.323l-.771.546-3.207-.604-.503-.831c.198-.992.304-1.488.535-2.475m-.939 4.692.765-.599 3.213.57.527.782a59.28 59.28 0 0 0-.437 3.023l-4.533-.554a60.05 60.05 0 0 1 .465-3.222m-.712 5.541 1.299.117a62.35 62.35 0 0 0-.181 2.48l.326.019.15-2.116 1.271.458-.118 1.733.327.018c.054-.966.089-1.449.177-2.414l1.299.119a57.87 57.87 0 0 0-.236 3.724l-4.565-.167a60.4 60.4 0 0 1 .251-3.971m-.293 5.498.667-.707 3.262.085.638.696a56.63 56.63 0 0 0 .018 3.056l-4.565.127a59.953 59.953 0 0 1-.02-3.257m.168 6.318.605-.762 3.909-.232.093 1.358-.977.078.089 1.033.976-.091.141 1.356-3.89.442-.727-.648a59.985 59.985 0 0 1-.219-2.534m.751 6.581 3.222-.515-.158-1.032-.968.141.135-1.438 1.942-.242a58.85 58.85 0 0 0 .564 3.715l-4.495.81-.242-1.439m.534 2.955.499-.839 3.204-.613.773.551a56.51 56.51 0 0 0 .516 2.347l-.47.827-3.166.785-.807-.555c-.237-1-.347-1.499-.549-2.503m1.112 4.716.442-.873.947-.248.691 1.299-.629.177.302 1.042 1.876-.558-.293-1.014-.628.175-.056-1.451.948-.246.809.502c.251.931.386 1.396.671 2.322l-.415.858-3.107.992-.842-.505a60.2 60.2 0 0 1-.716-2.472m1.429 4.663.382-.906.619-.204c.318.965.488 1.446.843 2.401.122-.043.184-.067.306-.114l-.609-1.705.39-.892 1.548-.511.84.451a59.08 59.08 0 0 0 .829 2.291l-.355.888-.606.239a60.967 60.967 0 0 1-.869-2.326l-.308.108a50.71 50.71 0 0 0 .615 1.671l-.349.905-1.52.599-.875-.454a62.54 62.54 0 0 1-.881-2.441m3.112 7.666a62.165 62.165 0 0 1-1.654-3.763l1.21-.494c.385.95.587 1.421 1.009 2.36l.297-.134-.865-2.013 1.344-.165.713 1.646c.118-.056.178-.082.297-.134a59.844 59.844 0 0 1-.981-2.299l1.208-.491a60.574 60.574 0 0 0 1.551 3.534l-4.129 1.953m127.767-14.509c-9.48 34.571-45.192 54.913-79.762 45.43S25.994 92.908 35.474 58.338s45.193-54.912 79.763-45.43S170.15 58.1 160.669 92.671M29.05 75.025l-1.957-.013v1.067l1.957-.015v-1.039M74.1 23.358s4.905 6.028 4.841 11.832c0 0 6.189-4.04 9.106-3.462 0 0-.895-2.47-5.997-1.476 0 0 .481-2.598 4.362-2.855 0 .002-4.329-5.514-12.312-4.039m8.654 11.032s1.604-2.214 6.831-1.892c0 0 3.4 2.981 4.81 6.508.001 0-5.161-3.849-11.641-4.616"/><path d="M139.898 51.457c-1.444-1.708-3.752-6.807-5.001-15.994 0 0-1.372-1.563-1.734-1.275s.673 1.035.769 1.635 1.444 11.953-1.199 18.11-6.351 10.678-7.119 7.455c0 0-3.704 3.224-5.482 2.936s2.067-1.01 4.281-3.416 3.367-3.174 3.029-1.827-1.01 3.415 1.059.672 3.945-5.628 3.751-9.38c0 0-8.176 14.046-21.019 1.106 0 0-3.173 1.396-2.404-.192s3.51-.577 7.357-7.456 6.35-14.793 14.815-14.683c0 0-1.396-2.825-5.965-.516 0 0-2.115.335.384-1.924s6.252-5.484 13.661-5.004c0 0-6.301-3.318-12.026 1.926s-7.022 9.667-8.994 13.083-5.581 11.591-11.159 14.767c0 0-4.233-1.635-9.188-11.832s-6.286-16.322-18.486-16.963c0 0 6.285.93 9.347 5.228 0 0-1.601-.411-4.673 1.237 0 0 7.545-.531 12.997 12.936 0 0 2.597 8.884 7.728 9.01 0 0 .609.611 0 .931s-2.502.095-3.816-1.541c0 0-1.781 6.349-8.746 6.094s-9.98-5.932-9.98-5.932 1.892 7.662 7.793 11.478c0 0-.064-3.334 1.637-1.153s2.244 2.917 6.54 3.88c0 0-2.354 1.04-6.445-1.796 0 0-.483 1.169-2.839-.562s-12.714-11.623-8.032-27.303c0 0-4.681 5.098-1.924 18.246s8.514 14.492 8.514 14.492-1.924-3.078-1.201-2.982 4.039 6.204 9.476 7.457c0 0 .383-.675-1.202-1.973s1.682-.624 3.944.386 4.57 2.019 7.264 5.483l.884-.336s6.285-7.216 12.2-7.697c0 0 .384.53-.817 1.25s-2.166 2.068-1.3 1.971 6.59-2.742 9.139-5.146 1.778-.096 1.301.482-1.396 1.489-.723 1.587 9.137-5.916 9.522-13.228c0 0 .604-3.053 0-4.352s1.322-.841 1.826-.12 1.012 1.972 2.264 2.31c1.244.333 1.436.142-.008-1.565M106.117 72.82s-.867-3.927-5.388-6.012c0 0 4.104.512 5.388 3.416 0 0 1.571-3.093 4.89-3.751 0 0-3.801 2.258-4.89 6.347m4.779-15.472c-1.3-1.394-1.154-.577-1.828.985s-1.346 5.604-2.261 5.507-2.067-6.83-2.549-6.975-2.935 1.876-3.461 2.116-1.014-.191-1.014-.191 2.885-1.828 4.86-3.944 2.644-2.02 2.644-2.02c.93-.111 1.492.481 2.695 2.165s3.991 4.857 3.991 4.857c-1.107.291-1.782-1.105-3.077-2.5M82.018 35.063s-2.802 8.437.418 13.917 8.144 7.503 12.122 6.157 5.097-3.56 5.097-3.56-6.539 3.688-10.901.897-5.515-8.561-5.097-11.03 1.249-4.36 3.974-4.682c-.001.001-1.219-1.443-5.613-1.699m13.703 7.206s-3.584-3.486-8.514-2.284c0 0-1.708 4.9 2.116 9.21s9.859-.12 9.859-.12l1.012 1.204s-3.462 3.148-7.407 2.535-6.903-3.57-7.624-6.648-1.106-7.888 3.703-8.706c0 0 2.55-.505 7.167 4.377-.001-.001.552.89-.312.432m-6.832-2.02s.673-.049.505 1.876.576 6.901 6.011 7.575c0 0 1.034.336 0 .649s-4.475.29-6.23-3.271-1.921-7.55-.286-6.829"/><path d="M90.019 24.881s9.476-4.957 18.809-4.209 14.91 3.97 14.91 3.97-5.581 7.84-8.179 14.044-8.681 11.4-8.681 11.4-4.827-2.873-10.124-14.896c-.001.001-2.598-7.375-6.735-10.309m36.891 2.02s6.687-6.228 14.48-4.04c0 0-4.933 5.556-6.158 11.592 0 0-1.301-2.525-7.334-3.44 0 0-.674-.528 1.442-.697s3.628 0 3.608-1.01-1.177-2.619-6.038-2.405M121.046 37.7s1.729-4.088 4.977-5.965c0 0 3.774-.12 6.734 1.877 0 0-5.486.168-11.711 4.088m6.781-1.804s4.279 2.189 3.44 7.071-1.492 7.937-5.364 10.054-10.004.888-12.579-.722c0 0 3.761 4.303 9.025 3.583s8.388-3.487 9.371-6.614 1.302-6.083 1.326-9.236.454-5.866-1.71-5.434-2.813.697-3.509 1.298m-7.24 3.462s-.986.434-1.012.938.384.313 1.205 0c.815-.312 3.318-1.394 6.275-.938 0 0 2.622 7.961-5.098 11.447 0 0-5.1 1.708-7.359-2.188 0 0-1.853 1.395-1.779 1.803s2.621 3.524 8.227 2.838 7.646-5.064 8.271-6.956 2.188-7.522-1.756-9.373c0 0-2.021-.506-4.496.961l-2.478 1.468zm3.895 1.059s.763 6.203-2.997 8.068c0 0-2.774.903-5.035.519 0 0 .385 1.442 3.393 1.082s5.459-2.294 6.18-4.982.84-5.046.385-5.191-1.612.287-1.926.504M78.3 56.193s-.284 14.078 6.431 21.486c0 0-.114.448.976.351s-.512-1.538-.962-2.373-1.154-2.918-.865-5.419c0 0 .319-.32.609 1.217s1.089 6.666 5.834 6.587c0 0-2.694-3.157-2.598-5.946 0 0 .385-.32 1.445 2.31s1.636 3.334 4.391 4.778 3.111 1.506 3.463 2.437c0 0 4.329-3.784 7.728-4.715 0 0-2.947-4.778-8.688-5.835 0 0-.193.289.512 1.026s.419 1.668-1.122 1.347-4.009-1.57-5.58-3.078-1.443-1.283-2.18-1.283-1.603-.577-2.921-1.828c-1.311-1.249-5.163-5.935-6.473-11.062m29.71 18.759s4.904-3.992 7.793-4.666c0 0 .288.096-.482.817s-1.626 1.442.534 1.299 3.746-1.299 5.431-2.117 2.598-2.164 2.983-1.731-.962 1.41.863 1.091 12.7-5.42 11.737-17.83c0 0 .673-.961 1.012.723s2.165 7.84 6.301 11.832c0 0 0 .915-.913.962s-2.549-.094-3.463-1.49-.961-2.696-1.684-2.792-.386.914 0 1.587 1.395 2.357 2.404 2.886.385.962-.721 1.54-1.396.818-1.396.818-.383.434-1.203-.578-1.347-1.684-1.539-1.298.673 1.394.963 1.923.435.914-.24 1.394-3.751 2.984-5.677 5.339c0 0 .05.722-1.443-.096s-11.783-1.972-20.875.866c-.001.003-.54.232-.385-.479M89.49 92.043s6.061-10.934 17.797-15.135 22.254-.897 22.254-.897-3.525 4.233-4.106 10.261c0 0 .084.722-.8.176s-4.474-2.757-10.518-2.774c0 0-.304.305.224.514s5.146-.032 9.939 3.094c0 0 .722.547.05.867-.677.32-8.034 1.427-13.388 12.873 0 0-8.708-1.73-17.652 6.303 0 0-4.73.24-5.131-.161a3.3 3.3 0 0 1-.096-4.2c1.443-1.972 4.603-6.124 13.741-9.588 0 0 1.139-.705-.307-.673s-9.987 3.895-13.882 8.561c0 0-.818.816-.626-1.058s1.531-10.725 19.5-15.007c0 0 .927-.841-1.734-.409s-10.213 2.141-14.469 7.456c-.002-.001-.916.848-.796-.203m-5.291 8.226s1.827.594 1.924 2.34.081 2.808.369 3.334.466 1.139-.736.865-4.922-1.435-8.266-3.332c-3.342-1.902-11.279.817-11.686.743s-2.02.386-.457-6.18 2.356-10.181 11.062-16.418c0 0 7.486-4.266 15.119-1.909 0 0 5.25 1.713 3.712 3.155s-3.944 4.18-6.398 8.342c0 0-.265.938-1.442.265s-8.617-4.563-14.999-2.542c0 0-.448.384 1.091.224s10.326.158 13.692 3.782c0 0 .615.417-.221 2.405s-.709 4.682-.709 4.682.449.705-1.313-.514-6.189-5.482-15.041-3.944c0 0-.834.737.161.899s6.028-.899 9.46 1.187 4.678 2.616 4.678 2.616m-9.747-26.15s1.411 2.822 1.187 6.415c0 0-.031.256 1.766-.641s3.878-1.7 5.964-1.604c0 0 .417-.288-.577-1.475s-3.143-5.677-3.271-6.415-.29-1.217-2.534-1.121-5.611-.29-11.191 3.462-10.455 6.605-13.659 21.099c0 0-.307 4.634.2 4.442s1.803-3.153 5.652-5.341c0 0 .56-7.054 6.173-12.728 0 0 .671-.29.321.514s-4.843 4.81-4.906 11.094c0 0-.097.287 1.826-.833s4.167-1.892 6.06-2.245c0 0 2.982-4.779 6.735-7.118 0 0 .642-5.003-.289-6.767-.003-.001-.548-1.122.543-.738M50.208 96.021s-7.476 7.67-7.471 24.34c0 0-.192 2.309.962-.707s2.104-4.104 2.766-4.007-.233.865-.94 2.211-2.886 4.874-3.271 8.113 1.282 14.752 8.528 17.894 12.956.835 22.253-5.452c0 0 6.029-4.169 7.696-7.506 0 0 .258-.638-.289-1.057s-1.603-1.637-1.603-1.637.064-.703-1.09.514-5.868 5.998-9.844 5.998c0 0-.417-.226.481-.482s4.297-1.379 6.541-3.751 3.784-2.694 2.63-4.232-4.49-6.8-5.579-8.274-1.476-2.629-2.855-2.659-4.458.77-7.248 2.019-8.609 4.36-11.015 9.363c0 0-1.204 4.233 4.376 4.329s10.68-3.852 10.68-3.852.673-.863 1.202-.432-4.282 3.801-8.321 4.763-8.514 1.106-8.899-2.116.819-5.738 4.714-8.762c0 0-1.348-3.07 1.202-6.486 0 0 .01-6.493 8.854-9.427 0 0-2.044-8.44 1.728-13.997 0 0 .296-1.059-1.728-.337s-9.576 5.1-12.077 9.91-3.272 6.203-3.705 12.651c0 0-.625.817-.625-.772s-1.012-5.964 2.789-11.975l-.145-4.233c.01-.001-.207-.517-.697.048m7.602 16.289s-1.155 1.026-.289-.896 3.398-4.428 8.784-5.901 6.831-1.412 6.831-1.412 2.245-.446.481.771-2.631 3.173-2.662 4.393.609.16.802-.319 1.795-2.982 2.757-3.561 1.796-.545 3.592.096 4.811 2.18 7.825 2.82 8.85.177 12.217.899 10.243 2.355 14.526 6.448c4.277 4.086 5.001 6.781 4.905 8.417s-.82 5.146-5.724 5.434-8.563-.337-11.592-1.538-6.252-2.983-9.574-5.437l-5.722-3.991s-.531-.241-.382.386c.142.625 6.347 5.53 11.397 8.175s8.321 4.234 13.707 3.802 8.707-1.203 9.187-6.976c0 0 1.781-.098 2.407-1.636 0 0 .816.48 2.452-.625 0 0 4.328-.194 4.138-5.051s-2.115-11.4-15.342-15.394c0 0 4.76-15.52 23.615-12.827 0 0 10.164.834 8.031 10.198s-11.431 14.494-11.431 14.494.19.705.642.576 8.571-6.541 11.083-12.186.845-7.247.845-7.247 13.211 1.668 15.905-15.84c0 0-.257-1.026-1.025 1.987s-3.783 11.671-14.879 12.57c0 0-3.654-8.785-18.854-5.387 0 0 .899-10.935 12.568-18.646s21.677-2.968 21.677-2.968 9.748 4.362 9.235 13.533.705 19.239-20.265 25.526c0 0-.448.514.319.514s8.628-2.014 11.802-4.554c0 0 .703-1.027.641.255s-5.325 17.959-20.202 21.422-17.958 7.888-17.958 7.888.131.944.9.439 4.296-3.005 7.181-3.967 5.003-2.245 4.362-1.027c-.554 1.054-6.324 13.731-21.026 17.084-18.319 2.209-33.581-21.963-34.673-21.828-1.422.177 14.958 21.117 27.035 22.639-19.626 2.854-34.186-25.268-34.186-25.268s-2.036-4.874-5.498-4.537-8.466 3.271-10.006 4.039-3.077 2.598-3.222 1.106.673-3.848 2.55-5.435 6.253-3.271 7.359-3.511 1.443-1.105.29-1.06c-1.155.051-5.021 1.127-7.536 3.114m39.056-5.997s4.682-4.007 10.068-4.07 9.523.96 12.731 3.014 6.699 6.35 7.021 9.203.095 5.803-2.564 5.482c0 0 1.154-6.156-4.456-10.71s-7.521-5.163-7.834-5.051.104.176 1.835 1.523 8.371 5.388 9.331 11.737c0 0 .319 3.462-.705 3.432s-.834-.418-1.025-1.313-1.926-4.811-4.617-7.378-5.676-5.002-6.223-5.45-1.442-.995-1.666-.673-.128.159 1.571 1.729 5.003 3.946 6.862 6.896 3.046 5.29 2.887 6.412-.772 2.243-1.701.833-2.981-10.869-21.516-14.075c0 0-2.465 0-1.346-.801s1.347-.74 1.347-.74m-5.807-65.837s-1.226.338-.577 3.271 1.883 4.978 5.342 4.955 2.378-1.105 2.042-2.143l-.337-1.033s-3.006 1.734-4.594-.374-.89-4.342-.89-4.342-.167-.382-.986-.334m29.678.579s.842 2.804-.77 4.035-3.729.654-3.729.654-1.225 1.443-.771 1.874 3.872 1.106 5.702-.215 2.643-3.175 2.813-6.349c0 0 .386-1.035-.816-.722l-2.429.723m-48.868 134.01c-9.845-.228-10.079-10.652-10.079-10.652s.563-.131 2.638-.377 3.227-.182 3.227-.182c0 2.901.855 5.551 4.333 6.294s5.636-1.742 5.778-1.89l.031.012c-2.435-.892-5.853-2.435-10.566-5.097 0 0-6.579.048-11.226 2.09 0 0 1.666 12.203 14.155 12.549 0 0 10.035.769 13.059-8.394-4.746 5.891-11.35 5.647-11.35 5.647m7.792-6.18.231.068-.231-.068m3.543.535-.004.003.004-.003M83.154 169.429h-.003.003m-4.067-.717.25.075-.25-.075m-.614-.205.194.066-.194-.066m33.411.913.004.003-.004-.003M113.3 169.353l-.06.011.06-.011m-1.37.076zM126.479 163.172c-4.308 2.662-7.43 4.205-9.655 5.096a.071.071 0 0 0 .03-.01c.131.148 2.105 2.635 5.282 1.891s3.956-3.394 3.956-6.295c0 0 1.057-.068 2.95.182s2.408.378 2.408.378-.214 10.425-9.208 10.656c0 0-6.034.239-10.371-5.652 2.763 9.164 11.933 8.391 11.933 8.391 11.409-.344 12.932-12.547 12.932-12.547-4.247-2.042-10.257-2.09-10.257-2.09m-10.833 5.54-.228.075.228-.075m-1.597.48-.093.021c.03-.004.061-.013.093-.021m2.158-.685-.178.066.178-.066m-1.085.378-.211.068.211-.068m-.516.157-.149.044.149-.044m-63.649-22.763s-22.022-5.545-27.411-8.24c0 0-.925-.488-.54.949s2.233 28.158 3.234 47.948c0 0 .064.783.013 1.038s.422.745 1.181.654 18.878-.467 23.882.012v-7.904H34.325l-.385-10.047s8.779.101 10.754.562l2.927-8.623H33.557l-.578-12.191 18.019 4.261-.041-8.419z"/><path d="M55.333 146.881v8.183s18.288 14.316 27.885 14.354c0 0 2.454 12.436-10.167 12.436h-7.319v-3.002s-4.529-1.414-8.662-5.57c0 0-.672-.744-.672.229v14.832s-.043.287.958.287 8.857-.386 22.267 0c0 0 10.738-2.31 10.738-12.936v-10.987s.029-.486-1.051-.563-17.559-4.621-32.458-17.557c.002 0-1.519-.739-1.519.294m70.949 1.379c-10.345 4.598-28.566 4.332-28.567 4.332s-18.225.266-28.567-4.332c0 0-1.135-.499-.789.406s9.53 9.496 16.665 12.449c0 0 .269.165 1.079-.721s3.874-2.58 5.402-2.192c0 0 .539.088.525 1.768s1.784 24.295 1.784 24.295.283.283.635 0 .88-7.053 3.267-7.053 2.913 6.771 3.267 7.053.636 0 .636 0l1.784-24.295c-.014-1.68.525-1.768.525-1.768 1.528-.386 4.596 1.305 5.404 2.192s1.077.721 1.077.721c7.135-2.953 16.318-11.545 16.662-12.449.349-.905-.789-.406-.789-.406m-25.622 39.136c-.499-9.123-2.945-9.527-2.945-9.527s-2.289.404-2.792 9.527c0 0 .905 12.604 2.792 12.604s2.945-12.604 2.945-12.604m-43.768-21.815 2.433-.688 1.706-.315s-.168 10.447 10.706 11.115c0 0 4.778.037 8.545-2.733 0 0-2.783 4.424-10.669 4.195-7.885-.224-11.974-7.479-12.721-11.574m81.064-19.012c-10.615 9.325-22.04 14.287-27.992 16.363-5.356 1.646-5.127 5.705-5.127 5.705v7.038c0 10.628 10.612 12.938 10.612 12.938 13.25-.384 22.005 0 22.005 0s2.001.182 2.001-.288v-41.462c.001-1.031-1.499-.294-1.499-.294m-16.012 35.268c-12.473 0-10.049-12.436-10.049-12.436 5.303-.021 13.28-4.501 19.292-8.448v11.591c.004 9.6-9.243 9.293-9.243 9.293"/><path d="m135.923 165.581-2.221-.688-1.559-.315s.15 10.447-9.782 11.115c0 0-4.363.037-7.806-2.733 0 0 2.543 4.424 9.748 4.195 7.205-.224 10.942-7.479 11.62-11.574m36.609-27.197c-.959.579-5.767 4.16-26.746 7.276 0 0-1.208.232-1.183 1.061 0 0 .379 4.64-1.38 38.906l-.161 2.232s-.119.805.788.784 7.54-.017 7.54-.017.8.113.481-1.135.158-9.684.721-15.188c0 0-.039-.521.941-.482s10.75 0 10.75 0 7.927.171 8.567-9.528l.656-23.526c.002.004-.012-.958-.974-.383m-7.581 12.208-.695 10.523c-.319 3.336-7.686 3.129-9.662 3.129s-1.652-.398-1.652-.398c.211-7.383 1.133-12.292 1.133-12.292.255-.218.734-.218.734-.218l8.489-1.106c1.758-.127 1.653.362 1.653.362"/></svg>