<svg width="92" height="122" fill="none" xmlns="http://www.w3.org/2000/svg"><path d="M10.284 22.246c-.2-.13-.3-.194-.502-.323-.144.224-.216.337-.357.563l.508.316c.138-.223.209-.334.351-.556ZM15.126 16.97l-.864-.824c-.194.204-.292.307-.483.514l.877.811c.187-.201.28-.302.47-.5ZM59.5 4.535c-.26-.082-.39-.122-.651-.2l-.342 1.144c.254.076.38.115.634.195.144-.456.215-.684.36-1.139ZM4.954 36.525l-1.166-.261c-.056.254-.084.381-.138.636.468.097.702.147 1.17.243.052-.248.078-.37.134-.618ZM6.134 28.873c.22.092.331.137.55.23.1-.24.151-.358.255-.596l-.549-.238c-.103.24-.154.362-.256.604ZM40.696 4.035c-.06-.474-.092-.711-.154-1.185-.265.035-.397.052-.661.09l.17 1.182c.258-.036.386-.054.645-.087ZM34.027 4.816l-.165-.573c-.259.074-.386.112-.643.19l.176.572c.252-.077.378-.115.632-.19ZM43.486 2.77l-.013-.199c-.267.017-.4.026-.667.046l.016.199c.265-.02.398-.03.664-.046ZM65.141 6.757c-.25-.12-.376-.177-.628-.293-.1.218-.15.326-.248.544.248.113.373.171.62.29l.256-.54ZM49.37 2.598a35.4 35.4 0 0 0-.67-.042l-.034.596c.265.016.396.023.66.042.016-.238.026-.357.043-.596ZM52.314 2.908c-.267-.037-.4-.054-.667-.087l-.074.593c.264.032.395.05.658.086l.083-.592ZM3.156 39.723l1.183.168c.035-.25.054-.375.094-.626l-1.18-.186c-.04.258-.06.387-.097.644ZM3.503 50.078a26.859 26.859 0 0 1-.055-.641l-.596.047c.02.26.032.39.056.65l.595-.056ZM4.985 55.57a38.92 38.92 0 0 1-.138-.625c-.468.1-.701.15-1.168.248.054.257.082.386.14.642.467-.106.7-.158 1.166-.265Z" fill="#D4AF37"/><path d="M58.16 1.649C33.668-5.068 8.367 9.343 1.65 33.837-5.068 58.33 9.343 83.63 33.836 90.347c24.494 6.719 49.795-7.692 56.511-32.185 6.717-24.494-7.694-49.795-32.186-56.513Zm10.36 5.98c.58.333.867.505 1.439.861.079.237.118.355.193.593l-.214.335a36.79 36.79 0 0 0-1.407-.862l-.1.171c.403.237.603.359 1.003.607.075.235.112.353.184.587l-.535.838c-.239.036-.36.055-.596.095a34.846 34.846 0 0 0-1.35-.808c-.076-.227-.116-.34-.196-.567l.195-.348c.555.311.832.473 1.38.806l.104-.17c-.394-.24-.591-.356-.989-.584-.08-.23-.121-.344-.204-.573l.484-.869c.242-.046.364-.068.608-.112Zm-.88-.49-1.328 2.447c-.314-.17-.473-.254-.787-.418l1.277-2.474c.335.174.503.263.838.444Zm-3.226-1.591c.6.267.9.406 1.494.696.1.227.149.34.245.566l-1.07 2.133c-.317-.16-.477-.236-.796-.388l.257-.54c-.242-.116-.365-.172-.609-.284-.1.217-.15.326-.248.543a37.43 37.43 0 0 0-.804-.357l.944-2.192c.234-.073.352-.109.587-.177Zm-2.43-.996c.067.62.096.93.144 1.547l.51-1.296c.348.136.522.207.866.351l-1.073 2.571a31.982 31.982 0 0 0-.813-.33c-.04-.615-.064-.922-.123-1.54l-.488 1.304a38.105 38.105 0 0 0-.822-.298l.925-2.627c.351.124.526.187.875.318Zm-3.35-1.11c.621.178.931.274 1.547.476.127.21.19.314.313.523l-.64 1.885c-.216.095-.325.142-.54.24-.579-.19-.868-.28-1.452-.447a34.74 34.74 0 0 0-.31-.503c.212-.766.319-1.149.53-1.917.22-.104.33-.156.552-.258Zm-.94-.26-.713 2.692c-.335-.088-.503-.13-.838-.212l.658-2.707c.358.088.536.133.892.227Zm-3.932-.45c.206-.126.31-.188.519-.312.63.115.945.178 1.572.316.146.195.218.293.36.489l-.135.582a41.335 41.335 0 0 0-.918.002l.082-.39a36.622 36.622 0 0 0-.662-.133l-.227 1.172c.258.05.386.075.644.13l.083-.39c.33.151.493.227.82.384l-.134.582c-.205.116-.308.175-.51.294-.59-.13-.885-.19-1.476-.297-.14-.188-.211-.282-.355-.468l.337-1.96Zm-2.965-.408c.196-.14.296-.21.494-.347.635.072.952.114 1.585.209.158.184.234.276.387.463l-.377 2.357c-.34-.055-.509-.08-.848-.127.032-.236.05-.355.083-.591a34.501 34.501 0 0 0-.646-.086c-.03.237-.046.356-.074.592-.34-.042-.51-.06-.85-.096l.246-2.374Zm-2.96-.605c.817.03 1.226.054 2.043.12.168.175.252.261.416.436l-.11 1.188c-.094.072-.142.106-.236.179l.2.217-.074.793a31.49 31.49 0 0 0-.852-.07l.044-.596c-.26-.019-.389-.026-.648-.042l-.034.597a35.987 35.987 0 0 0-.852-.04l.102-2.782Zm-.507-.015-.02.796a36.81 36.81 0 0 0-1.56-.012v.198c.534-.006.8-.003 1.333.007a94.84 94.84 0 0 0-.234.792 35.891 35.891 0 0 0-1.09-.002l.002.198c.608-.006.911-.004 1.52.011-.01.319-.013.478-.02.796a34.747 34.747 0 0 0-2.342.007l-.085-2.784c.997-.03 1.497-.032 2.496-.007Zm-3.454.048c.19.149.283.224.47.375l.04.995c-.168.166-.252.248-.417.417-.435.022-.653.036-1.085.07l.076.991c-.34.026-.509.04-.847.075-.107-1.11-.162-1.664-.27-2.772.81-.08 1.218-.11 2.033-.151Zm-4.557.469c.626-.097.94-.14 1.572-.215.198.137.297.205.492.344L41.6 4.33c-.154.176-.23.265-.38.443-.59.07-.885.11-1.473.201-.193-.13-.29-.196-.485-.325l-.324-1.962c.15-.188.227-.28.382-.465Zm-3.878.774c.617-.152.926-.222 1.548-.352.21.118.314.18.52.3l.078.39c-.612.121-.915.187-1.523.33l.046.194c.432-.102.649-.15 1.082-.24l.512.301.194.976c-.137.19-.204.285-.338.475-.584.122-.873.187-1.452.33a26.82 26.82 0 0 0-.512-.282l-.098-.385c.587-.151.882-.221 1.475-.351l-.044-.195c-.425.093-.637.143-1.059.247a37.686 37.686 0 0 0-.52-.279c-.101-.385-.15-.577-.25-.963l.34-.496Zm-2.89.814c.607-.193.91-.283 1.523-.455.217.104.326.158.542.265l.619 2.305c-.329.089-.492.135-.82.23l-.166-.574c-.25.072-.373.11-.62.186l.175.57c-.327.1-.488.152-.813.258-.3-.906-.448-1.36-.748-2.267.122-.208.184-.311.308-.518Zm-2.835 1.007c.594-.234.894-.345 1.493-.557.225.09.336.135.56.227l.192.565c-.31.191-.465.288-.77.484l-.136-.373a30.79 30.79 0 0 0-.628.234l.426 1.114c.244-.093.367-.139.612-.228l-.137-.374c.357-.046.535-.066.893-.103.078.225.116.338.193.565-.111.206-.166.31-.274.516-.563.199-.843.303-1.4.522a28.105 28.105 0 0 0-.547-.21l-.748-1.844c.105-.216.16-.323.271-.538Zm-.893.363c.431 1.027.647 1.541 1.077 2.57-.316.131-.473.199-.787.337L27.985 5.54c.334-.148.501-.22.838-.361Zm-2.747 1.26c.495.374.74.565 1.22.952l-.605-1.255c.331-.158.497-.236.83-.388l1.156 2.534c-.311.142-.467.214-.776.364-.475-.39-.714-.584-1.202-.962l.623 1.246c-.307.153-.46.232-.765.392L25.26 6.857c.325-.17.488-.256.816-.419ZM23.01 8.123c.553-.333.832-.495 1.395-.807.239.05.357.077.592.13.114.21.17.316.285.525-.279.241-.416.363-.69.61l-.195-.347c-.235.133-.353.201-.587.34l.606 1.028c.227-.134.34-.199.57-.33l-.195-.346c.347-.106.522-.157.87-.254l.284.525c-.077.222-.115.334-.19.557-.528.292-.79.444-1.308.756-.23-.047-.345-.07-.579-.114l-1.043-1.695c.073-.231.11-.347.185-.578Zm-1.723-.311.053.825-.62.414-.029-.847.596-.392Zm.893.822c.169.27.255.404.425.672-.537.34-.803.515-1.33.875l.113.164a36.5 36.5 0 0 1 1.133-.75c.095.318.144.476.242.791-.372.242-.558.365-.926.616l.113.165c.512-.35.77-.521 1.292-.851l.426.672c-.806.51-1.203.777-1.984 1.334-.647-.906-.971-1.36-1.62-2.266a38.072 38.072 0 0 1 2.116-1.422Zm-2.535 1.727.471.642c-.222.162-.332.244-.551.41l1.2 1.588c-.279.21-.418.318-.693.535l-1.232-1.562c-.217.172-.324.258-.539.433l-.502-.618a36.681 36.681 0 0 1 1.846-1.428Zm-3.007 2.408.524.6c-.488.426-.729.645-1.203 1.09.054.06.082.088.136.146a37.9 37.9 0 0 1 1.025-.935c.142.3.213.45.357.747a33.6 33.6 0 0 0-.836.767l.136.144c.462-.434.696-.646 1.171-1.06l.523.599c-.732.64-1.09.971-1.791 1.66l-1.95-1.99a37.344 37.344 0 0 1 1.908-1.768Zm-2.62 2.482c.248-.026.371-.037.617-.058l1.41 1.404c-.016.24-.022.36-.033.6a34.75 34.75 0 0 0-1.378 1.483c-.834-.739-1.25-1.109-2.085-1.847.575-.65.87-.967 1.469-1.582Zm-2.923 3.403c.237-.05.356-.073.593-.12l.314.244c-.385.497-.572.75-.938 1.258l.161.117c.26-.363.392-.542.663-.899.235-.046.352-.068.586-.112.315.245.473.365.787.608.02.235.03.353.054.585-.363.479-.54.72-.883 1.209-.229.048-.343.073-.571.124l-.329-.226c.345-.5.522-.748.886-1.239l-.16-.118c-.26.352-.389.53-.64.886-.23.052-.346.078-.577.133l-.82-.564a34.03 34.03 0 0 1-.067-.6c.366-.518.555-.776.941-1.285ZM9.36 21.113c.232-.063.349-.095.581-.155l1.982 1.33c-.19.283-.284.426-.468.711l-.502-.322c-.14.216-.209.326-.344.545l.506.316c-.179.287-.267.432-.44.723l-2.052-1.22a32.901 32.901 0 0 1-.11-.59c.33-.54.498-.808.847-1.338Zm-2.098 3.53c.619.025.927.041 1.54.083-.487-.27-.73-.405-1.22-.674.176-.315.264-.471.445-.782l2.409 1.397c-.17.292-.253.44-.417.734-.61-.049-.916-.07-1.53-.101l1.228.655c-.158.297-.236.446-.388.746l-2.482-1.264c.163-.319.246-.478.415-.794Zm-.639 1.24 2.496 1.236c-.15.301-.222.452-.365.756l-2.519-1.187c.152-.324.23-.485.388-.806Zm-.782 1.662c.218-.098.328-.146.546-.24l1.086.496.091.278.27-.112.724.33c-.14.305-.208.458-.341.765l-.548-.238c-.101.233-.151.351-.249.585l.55.23c-.128.308-.19.463-.312.774a3492.31 3492.31 0 0 1-2.592-1.021c.294-.744.449-1.114.775-1.847Zm-.953 2.309.743.282c-.093.245-.14.368-.23.614.75.272 1.122.409 1.87.681-.113.313-.17.47-.277.785l-1.882-.644c-.085.247-.127.37-.207.62-.303-.1-.454-.15-.757-.248.276-.843.423-1.26.74-2.09Zm-1.328 4.046 1.917.53c.068-.245.103-.367.174-.61l-1.908-.558c.099-.34.15-.51.257-.848.91.286 1.366.43 2.277.715.102.208.153.312.257.517a36.38 36.38 0 0 0-.397 1.396c-.196.12-.295.18-.49.302l-2.314-.591a36 36 0 0 1 .227-.853Zm-.45 1.76c.196-.135.293-.202.49-.334l1.933.472c.114.2.173.3.29.498-.133.565-.194.848-.307 1.417-.188.131-.282.198-.47.333l-1.955-.368a33.639 33.639 0 0 1-.307-.507c.121-.606.186-.909.327-1.51Zm-.572 2.862c.186-.148.28-.22.467-.366l1.96.348c.126.192.19.288.32.477a36.5 36.5 0 0 0-.266 1.843c-1.106-.136-1.658-.203-2.764-.337a37.25 37.25 0 0 1 .283-1.965ZM2.103 41.9l.792.07c-.054.605-.076.908-.11 1.514.079.004.119.005.198.01.03-.516.048-.775.092-1.29l.775.28c-.034.422-.048.633-.072 1.056l.2.011c.033-.59.054-.884.107-1.471l.793.072c-.083.907-.11 1.36-.145 2.27l-2.783-.101c.035-.972.065-1.455.153-2.421Zm-.178 3.352c.16-.174.243-.26.406-.43l1.99.051c.154.171.232.256.388.424-.012.745-.01 1.117.01 1.864l-2.783.077a37.805 37.805 0 0 1-.011-1.986Zm.101 3.853c.146-.187.22-.28.37-.465l2.383-.141c.02.331.032.497.057.828l-.596.047c.02.252.032.377.055.63l.594-.056c.032.331.049.497.086.827l-2.372.27a48.193 48.193 0 0 1-.443-.395 36.338 36.338 0 0 1-.134-1.545Zm.458 4.013 1.965-.314c-.04-.251-.06-.377-.096-.629l-.59.086c.03-.352.046-.528.082-.877l1.184-.148c.113.909.183 1.361.345 2.266l-2.741.493c-.063-.35-.092-.525-.149-.877Zm.326 1.802c.12-.206.182-.309.305-.511l1.953-.374c.189.136.283.202.472.336.116.573.178.86.315 1.43-.116.2-.174.302-.287.504l-1.93.48a31.573 31.573 0 0 1-.493-.339 36.57 36.57 0 0 1-.335-1.526Zm.678 2.876c.107-.215.16-.32.27-.533l.577-.15c.166.318.25.477.421.791l-.383.108c.071.255.108.381.184.636.458-.137.686-.205 1.144-.34-.073-.247-.11-.372-.179-.619l-.382.107a34.574 34.574 0 0 1-.034-.885l.577-.15c.197.124.296.186.493.306.154.568.236.852.41 1.416-.103.208-.153.313-.253.523l-1.895.605a31.546 31.546 0 0 1-.513-.308 36.88 36.88 0 0 1-.437-1.507Zm.871 2.843c.092-.222.14-.332.234-.552l.377-.125c.194.588.298.882.514 1.465l.187-.07a38.99 38.99 0 0 1-.372-1.04c.093-.218.14-.327.238-.543l.944-.312c.205.112.307.167.512.276.193.561.294.84.506 1.396-.088.215-.132.323-.217.542l-.37.145a37.172 37.172 0 0 1-.53-1.417l-.187.066c.144.409.219.612.375 1.019-.087.218-.13.329-.213.55l-.926.366c-.213-.11-.321-.164-.534-.277a39.578 39.578 0 0 1-.538-1.489Zm1.899 4.675c-.43-.91-.632-1.37-1.009-2.295l.738-.3c.235.579.358.866.615 1.438l.182-.081a36.093 36.093 0 0 1-.528-1.227c.328-.039.492-.06.82-.102.168.403.255.603.435 1.005l.181-.082c-.25-.558-.37-.838-.599-1.401l.737-.3c.354.87.543 1.3.946 2.155l-2.518 1.19Zm77.912-8.847C78.39 77.549 56.612 89.952 35.53 84.17 14.45 78.39 2.046 56.612 7.827 35.53 13.607 14.45 35.385 2.046 56.466 7.828c21.082 5.781 33.485 27.558 27.704 48.64Z" fill="#D4AF37"/><path d="m3.91 45.706-1.195-.008c-.002.26-.002.39 0 .651l1.194-.009a39.42 39.42 0 0 1 0-.634Z" fill="#D4AF37"/><path d="M88.81 42.964c-4.81-6.688-14.119-3.97-14.119-3.97-3.754-4.653-3.636-6.57-3.636-6.57 1.681 1.252 1.995-.195 1.995-.195-8.253-12.045.351-18.499.351-18.499-4.81-4.497-10.95.9-10.95.9-10.246-6.296-21.979.157-21.979.157-5.24-3.481-10.246-.86-10.246-.86 3.286 3.598 3.525 8.134 3.525 8.134-1.95 6.414-.2 10.442-.2 10.442-.861 6.844.664 9.035.664 9.035-14.822-.08-16.896 15.642-16.896 15.642-7.39 6.257-5.748 18.46-5.748 18.46-1.72 9.933 5.357 12.787 5.357 12.787 10.52 3.559 19.086-8.017 19.086-8.017 1.916 2.972 5.866 5.496 5.866 5.496 14.489 7.01 22.995-1.976 22.995-1.976.482.373 6.28-7.223 5.799-7.596-.446-.346 3.295-1.222 3.295-1.222C84.82 71.886 86.287 60.33 86.287 60.33c2.992-1.761 7.333-10.678 2.522-17.365ZM44.653 29.662c-2.11.015-2.861-1.232-3.258-3.021-.395-1.79.353-1.995.353-1.995.499-.03.601.206.601.206s-.426 1.364.542 2.647c.968 1.284 2.802.227 2.802.227l.206.63c.205.632.864 1.291-1.246 1.306Zm17.172-4.664c-.102 1.936-.602 3.065-1.715 3.871-1.115.807-3.198.396-3.477.132-.278-.263.47-1.143.47-1.143s1.29.352 2.273-.399c.983-.75.47-2.46.47-2.46s.748-.25 1.482-.441c.733-.19.497.44.497.44Z" fill="#000"/><path d="M31.38 14.2s2.991 3.675 2.952 7.214c0 0 3.774-2.463 5.553-2.111 0 0-.545-1.507-3.657-.9 0 0 .294-1.584 2.66-1.74 0 .001-2.64-3.363-7.508-2.463Z" fill="#D4AF37"/><path d="M36.658 20.926s.978-1.35 4.166-1.153c0 0 2.073 1.818 2.933 3.969 0 0-3.147-2.347-7.099-2.816Z" fill="#D4AF37"/><path d="M71.504 31.334c-.88-1.041-2.288-4.15-3.05-9.752 0 0-.837-.954-1.057-.778-.22.176.41.63.47.997.058.367.88 7.289-.733 11.043-1.613 3.755-3.872 6.512-4.34 4.547 0 0-2.26 1.965-3.345 1.79-1.085-.177 1.262-.616 2.611-2.083 1.35-1.467 2.053-1.936 1.848-1.115-.205.821-.616 2.083.645.41 1.262-1.671 2.406-3.431 2.288-5.72 0 0-4.986 8.566-12.818.675 0 0-1.935.85-1.466-.117.469-.969 2.14-.352 4.487-4.547 2.347-4.195 3.872-9.02 9.035-8.954 0 0-.851-1.723-3.638-.314 0 0-1.29.204.234-1.174 1.525-1.378 3.813-3.344 8.33-3.05 0 0-3.841-2.024-7.333 1.173s-4.282 5.896-5.485 7.978c-1.203 2.083-3.403 7.07-6.805 9.005 0 0-2.582-.997-5.602-7.215-3.021-6.218-3.834-9.953-11.273-10.344 0 0 3.832.567 5.7 3.188 0 0-.977-.251-2.85.754 0 0 4.601-.324 7.926 7.888 0 0 1.582 5.418 4.712 5.495 0 0 .371.372 0 .567-.372.196-1.526.058-2.327-.939 0 0-1.087 3.872-5.334 3.716-4.248-.156-6.086-3.617-6.086-3.617s1.154 4.672 4.752 7c0 0-.039-2.034.998-.704 1.037 1.33 1.368 1.779 3.989 2.366 0 0-1.437.634-3.93-1.095 0 0-.295.713-1.732-.343-1.436-1.056-7.753-7.088-4.898-16.65 0 0-2.854 3.11-1.173 11.127 1.681 8.016 5.191 8.837 5.191 8.837s-1.173-1.877-.733-1.819c.44.059 2.464 3.784 5.78 4.547 0 0 .233-.411-.734-1.203-.969-.791 1.027-.38 2.406.235 1.378.616 2.786 1.232 4.429 3.344l.54-.205s3.831-4.4 7.439-4.694c0 0 .233.324-.499.763-.733.44-1.32 1.261-.792 1.202.528-.058 4.018-1.672 5.572-3.138 1.554-1.467 1.085-.058.793.294-.294.352-.851.908-.44.968.41.059 5.572-3.608 5.807-8.067 0 0 .367-1.862 0-2.653-.367-.793.806-.514 1.114-.073.308.44.616 1.202 1.379 1.408.762.204.879.087-.002-.953Zm-20.6 13.028s-.528-2.395-3.285-3.666c0 0 2.503.312 3.285 2.083 0 0 .958-1.887 2.982-2.288 0 0-2.318 1.378-2.982 3.87Zm2.914-9.435c-.793-.85-.704-.352-1.114.6-.411.954-.822 3.418-1.379 3.359-.557-.059-1.26-4.165-1.554-4.253-.294-.089-1.79 1.144-2.111 1.29-.324.147-.618-.117-.618-.117s1.76-1.115 2.963-2.405c1.203-1.29 1.613-1.232 1.613-1.232.566-.068.909.294 1.643 1.32.733 1.027 2.433 2.962 2.433 2.962-.674.178-1.085-.673-1.876-1.524Z" fill="#D4AF37"/><path d="M36.209 21.337s-1.709 5.145.255 8.486c1.963 3.342 4.966 4.576 7.391 3.755 2.425-.821 3.11-2.171 3.11-2.171s-3.99 2.249-6.649.547c-2.66-1.7-3.363-5.22-3.109-6.726.254-1.506.762-2.66 2.424-2.855 0 0-.743-.88-3.422-1.036Z" fill="#D4AF37"/><path d="M44.564 25.731s-2.185-2.125-5.191-1.393c0 0-1.042 2.989 1.29 5.617 2.332 2.629 6.013-.073 6.013-.073l.615.734s-2.11 1.92-4.516 1.545c-2.406-.373-4.21-2.176-4.649-4.053-.44-1.877-.674-4.81 2.259-5.31 0 0 1.554-.307 4.37 2.67 0 0 .337.543-.19.263Z" fill="#D4AF37"/><path d="M40.399 24.5s.41-.03.307 1.144c-.103 1.172.352 4.208 3.666 4.619 0 0 .63.205 0 .396-.63.19-2.729.176-3.8-1.995-1.068-2.17-1.17-4.604-.173-4.165ZM41.088 15.128s5.778-3.022 11.469-2.567c5.69.457 9.093 2.421 9.093 2.421s-3.403 4.781-4.987 8.565c-1.583 3.783-5.294 6.951-5.294 6.951s-2.944-1.751-6.174-9.083c0 0-1.584-4.498-4.107-6.287ZM63.584 16.36s4.078-3.798 8.83-2.463c0 0-3.007 3.388-3.755 7.069 0 0-.793-1.54-4.473-2.098 0 0-.41-.323.88-.425 1.29-.103 2.213 0 2.2-.616-.014-.616-.718-1.598-3.682-1.467ZM60.007 22.945s1.056-2.493 3.036-3.637c0 0 2.302-.073 4.106 1.144 0 0-3.345.103-7.142 2.493ZM64.143 21.845s2.61 1.335 2.097 4.312c-.513 2.977-.909 4.84-3.27 6.13-2.361 1.29-6.1.543-7.67-.44 0 0 2.292 2.625 5.503 2.185 3.21-.439 5.114-2.126 5.715-4.033.601-1.907.793-3.71.808-5.632.013-1.92.277-3.577-1.043-3.314-1.32.264-1.715.426-2.14.792Z" fill="#D4AF37"/><path d="M59.728 23.956s-.601.265-.617.572c-.014.308.235.191.734 0 .498-.19 2.024-.85 3.828-.572 0 0 1.599 4.855-3.11 6.981 0 0-3.11 1.042-4.487-1.334 0 0-1.129.85-1.086 1.1.045.248 1.6 2.148 5.017 1.73 3.416-.419 4.663-3.088 5.045-4.242.38-1.154 1.333-4.587-1.071-5.716 0 0-1.232-.308-2.742.586l-1.51.895Z" fill="#D4AF37"/><path d="M62.103 24.602s.465 3.783-1.828 4.92c0 0-1.691.55-3.07.317 0 0 .235.88 2.069.66 1.833-.22 3.329-1.4 3.768-3.039.44-1.64.514-3.077.235-3.165-.279-.088-.983.175-1.174.307ZM33.94 34.223s-.172 8.584 3.922 13.102c0 0-.069.274.595.214.665-.058-.312-.938-.586-1.447-.273-.509-.704-1.78-.528-3.305 0 0 .195-.195.372.742.175.94.664 4.065 3.558 4.018 0 0-1.644-1.926-1.584-3.627 0 0 .235-.195.88 1.408.645 1.604.998 2.034 2.678 2.914 1.683.881 1.897.92 2.113 1.487 0 0 2.639-2.308 4.712-2.875 0 0-1.798-2.914-5.298-3.559 0 0-.118.177.312.626.43.45.255 1.017-.685.821-.938-.195-2.444-.957-3.402-1.877-.959-.919-.88-.782-1.33-.782-.45 0-.977-.352-1.78-1.115-.8-.762-3.149-3.62-3.948-6.745ZM52.058 45.662s2.991-2.435 4.752-2.845c0 0 .176.057-.293.498-.47.44-.992.88.325.792 1.317-.088 2.285-.792 3.311-1.29 1.028-.499 1.584-1.32 1.82-1.056.234.264-.587.86.527.665 1.115-.196 7.744-3.305 7.158-10.873 0 0 .41-.586.615.44.207 1.027 1.321 4.781 3.843 7.216 0 0 0 .557-.557.586-.557.029-1.554-.057-2.111-.908-.558-.852-.587-1.644-1.027-1.703-.441-.058-.235.557 0 .968.234.41.85 1.437 1.467 1.76.616.323.234.586-.44.938-.676.352-.851.5-.851.5s-.234.264-.734-.354c-.498-.616-.821-1.026-.938-.791-.117.235.41.85.587 1.173.176.323.264.557-.147.85-.41.294-2.288 1.82-3.461 3.256 0 0 .03.44-.88-.059-.91-.498-7.187-1.202-12.73.529-.002.002-.33.141-.236-.292Z" fill="#D4AF37"/><path d="M40.766 56.084s3.695-6.668 10.852-9.23c7.158-2.56 13.57-.547 13.57-.547s-2.15 2.582-2.503 6.258c0 0 .05.44-.488.107-.539-.333-2.728-1.681-6.414-1.691 0 0-.186.185.136.313.323.127 3.138-.02 6.062 1.886 0 0 .44.334.03.529-.412.195-4.899.87-8.165 7.85 0 0-5.31-1.055-10.764 3.843 0 0-2.884.147-3.128-.098a2.014 2.014 0 0 1-.059-2.562c.88-1.202 2.807-3.734 8.38-5.846 0 0 .694-.43-.187-.41-.879.019-6.09 2.375-8.466 5.22 0 0-.499.498-.382-.646.118-1.144.934-6.54 11.892-9.151 0 0 .565-.513-1.058-.25-1.623.265-6.228 1.306-8.823 4.547-.002.001-.56.519-.485-.122Z" fill="#D4AF37"/><path d="M37.538 61.1s1.114.361 1.174 1.427c.058 1.066.049 1.712.224 2.033.177.323.285.694-.448.528-.733-.166-3.002-.875-5.041-2.033-2.038-1.159-6.878.499-7.127.454-.249-.043-1.231.235-.278-3.769.953-4.003 1.437-6.208 6.746-10.012 0 0 4.565-2.6 9.22-1.163 0 0 3.2 1.045 2.262 1.923-.937.878-2.405 2.55-3.9 5.088 0 0-.162.571-.88.16-.72-.41-5.255-2.782-9.147-1.549 0 0-.273.234.665.137.938-.099 6.297.096 8.35 2.306 0 0 .375.255-.135 1.467-.51 1.212-.433 2.854-.433 2.854s.274.43-.8-.313c-1.076-.743-3.774-3.343-9.172-2.405 0 0-.51.45.098.548.606.098 3.676-.548 5.769.724 2.09 1.272 2.853 1.595 2.853 1.595Z" fill="#D4AF37"/><path d="M31.595 45.154s.86 1.721.723 3.911c0 0-.018.156 1.077-.39 1.094-.549 2.365-1.037 3.636-.979 0 0 .255-.175-.352-.899-.606-.724-1.916-3.462-1.994-3.911-.079-.45-.176-.743-1.545-.684-1.368.058-3.422-.177-6.824 2.111-3.403 2.288-6.375 4.028-8.33 12.866 0 0-.186 2.826.123 2.709.307-.118 1.099-1.923 3.446-3.257 0 0 .341-4.301 3.764-7.762 0 0 .41-.176.196.313-.216.489-2.953 2.934-2.992 6.765 0 0-.058.176 1.114-.508a12.025 12.025 0 0 1 3.695-1.369s1.819-2.914 4.108-4.34c0 0 .39-3.05-.177-4.127 0 0-.333-.683.332-.45Z" fill="#D4AF37"/><path d="M16.811 58.51s-4.558 4.677-4.556 14.841c0 0-.117 1.408.586-.43.704-1.838 1.284-2.502 1.688-2.444.405.058-.143.528-.574 1.349-.43.822-1.76 2.972-1.994 4.947-.235 1.975.782 8.996 5.2 10.912 4.42 1.915 7.9.508 13.57-3.326 0 0 3.677-2.541 4.694-4.575 0 0 .157-.39-.176-.646-.333-.253-.977-.997-.977-.997s.039-.43-.665.313c-.704.744-3.578 3.657-6.003 3.657 0 0-.254-.138.294-.294.548-.157 2.62-.84 3.988-2.288 1.369-1.446 2.308-1.642 1.604-2.581-.704-.938-2.738-4.146-3.402-5.044-.665-.9-.9-1.604-1.74-1.623-.841-.02-2.719.47-4.42 1.232-1.702.762-5.25 2.658-6.717 5.709 0 0-.734 2.581 2.669 2.64 3.402.058 6.512-2.348 6.512-2.348s.41-.527.733-.264c.322.263-2.611 2.317-5.075 2.904-2.463.588-5.191.675-5.426-1.29-.234-1.964.5-3.499 2.875-5.343 0 0-.822-1.872.733-3.955 0 0 .006-3.96 5.4-5.749 0 0-1.248-5.147 1.053-8.535 0 0 .18-.646-1.054-.206-1.234.44-5.84 3.11-7.365 6.043-1.525 2.933-1.995 3.783-2.259 7.714 0 0-.38.499-.38-.47 0-.968-.617-3.636 1.7-7.303l-.088-2.581c.002 0-.129-.314-.428.03Z" fill="#D4AF37"/><path d="M21.446 68.443s-.704.625-.176-.548 2.072-2.7 5.357-3.598c3.285-.9 4.165-.86 4.165-.86s1.369-.274.293.468c-1.075.744-1.604 1.936-1.622 2.68-.02.742.371.097.488-.196.118-.293 1.095-1.818 1.681-2.17.587-.352 1.096-.333 2.19.058 1.096.391 2.934 1.33 4.772 1.72 1.838.391 5.397.108 7.45.548 2.053.44 6.247 1.437 8.858 3.931 2.61 2.493 3.05 4.136 2.991 5.133-.06.998-.5 3.138-3.49 3.314-2.99.176-5.221-.205-7.069-.938-1.848-.733-3.813-1.82-5.838-3.315-2.023-1.496-3.49-2.434-3.49-2.434s-.323-.147-.233.235c.088.381 3.871 3.373 6.95 4.986 3.08 1.613 5.075 2.581 8.36 2.317 3.284-.265 5.309-.733 5.602-4.253 0 0 1.085-.058 1.466-.998 0 0 .5.294 1.497-.38 0 0 2.639-.118 2.523-3.08-.118-2.963-1.29-6.952-9.356-9.387 0 0 2.903-9.464 14.401-7.822 0 0 6.199.509 4.897 6.219-1.3 5.709-6.97 8.838-6.97 8.838s.117.43.391.351c.273-.078 5.227-3.988 6.76-7.43 1.531-3.441.514-4.42.514-4.42s8.056 1.018 9.699-9.66c0 0-.156-.624-.625 1.213-.47 1.838-2.308 7.117-9.073 7.665 0 0-2.23-5.357-11.498-3.284 0 0 .548-6.669 7.666-11.37 7.117-4.704 13.217-1.81 13.217-1.81s5.945 2.66 5.632 8.252c-.313 5.592.43 11.732-12.357 15.565 0 0-.274.313.195.313.47 0 5.26-1.226 7.196-2.776 0 0 .43-.626.39.156-.04.782-3.246 10.95-12.318 13.063-9.073 2.11-10.95 4.81-10.95 4.81s.078.575.547.268c.47-.308 2.62-1.832 4.379-2.42 1.76-.586 3.051-1.368 2.66-.626-.337.643-3.856 8.374-12.82 10.418-11.173 1.347-20.479-13.392-21.145-13.311-.867.109 9.121 12.877 16.484 13.805-11.966 1.74-20.845-15.408-20.845-15.408S30 69.303 27.89 69.508c-2.112.205-5.163 1.994-6.102 2.463-.938.47-1.876 1.584-1.965.675-.088-.91.411-2.347 1.555-3.314 1.145-.969 3.813-1.995 4.488-2.141.675-.146.88-.675.176-.646-.705.03-3.062.686-4.596 1.898Z" fill="#D4AF37"/><path d="M45.263 64.786s2.855-2.444 6.14-2.483c3.285-.039 5.808.586 7.763 1.838 1.955 1.252 4.086 3.872 4.282 5.612.196 1.74.058 3.539-1.565 3.343 0 0 .704-3.754-2.717-6.53-3.422-2.777-4.586-3.15-4.777-3.081-.19.07.064.108 1.119.93 1.056.821 5.104 3.285 5.69 7.157 0 0 .195 2.11-.43 2.092-.625-.019-.509-.254-.625-.8-.118-.549-1.174-2.934-2.816-4.5-1.643-1.563-3.46-3.05-3.794-3.323-.332-.274-.88-.606-1.016-.41-.137.196-.078.097.958 1.055 1.037.959 3.05 2.406 4.185 4.205 1.134 1.8 1.857 3.226 1.76 3.91-.098.683-.47 1.368-1.037.509-.567-.86-1.819-6.629-13.12-8.584 0 0-1.504 0-.821-.489.684-.49.821-.451.821-.451ZM41.721 24.638s-.747.206-.35 1.995c.395 1.789 1.147 3.036 3.257 3.021 2.11-.015 1.45-.674 1.245-1.306l-.204-.63s-1.834 1.058-2.802-.227c-.968-1.285-.543-2.648-.543-2.648s-.103-.234-.602-.205ZM59.82 24.99s.513 1.71-.47 2.462c-.983.75-2.274.398-2.274.398s-.747.88-.47 1.144c.28.264 2.362.674 3.478-.132 1.113-.806 1.611-1.936 1.715-3.871 0 0 .236-.631-.498-.44-.734.19-1.481.44-1.481.44ZM30.02 106.712c-6.004-.139-6.146-6.497-6.146-6.497s.343-.079 1.608-.23c1.263-.152 1.968-.11 1.968-.11 0 1.769.52 3.384 2.642 3.838 2.12.454 3.437-1.062 3.523-1.153l.019.007c-1.484-.544-3.569-1.485-6.444-3.108 0 0-4.011.03-6.845 1.274 0 0 1.016 7.442 8.632 7.652 0 0 6.12.469 7.964-5.117-2.895 3.59-6.922 3.444-6.922 3.444Z" fill="#D4AF37"/><path d="m34.771 102.942.141.041c-.046-.013-.093-.026-.14-.041ZM36.934 103.269l-.004.003.004-.003ZM34.42 102.836c.053.017.104.031.154.046-.05-.015-.101-.029-.153-.046ZM34.046 102.712l.119.04-.119-.04ZM54.421 103.269l.004.004-.004-.004ZM55.507 103.184ZM55.286 103.227l-.039.007.039-.007ZM63.32 99.458c-2.626 1.624-4.53 2.564-5.886 3.108.006-.002.012-.003.017-.007.08.091 1.285 1.608 3.221 1.153 1.937-.454 2.413-2.069 2.413-3.838 0 0 .644-.042 1.8.11 1.154.152 1.468.231 1.468.231s-.131 6.357-5.615 6.498c0 0-3.68.146-6.324-3.447 1.684 5.589 7.276 5.118 7.276 5.118 6.957-.211 7.885-7.653 7.885-7.653-2.589-1.243-6.254-1.273-6.254-1.273Z" fill="#D4AF37"/><path d="M56.715 102.836c-.047.017-.093.031-.139.046.045-.015.092-.029.14-.046ZM55.743 103.13c-.02.005-.04.01-.058.013.019-.003.038-.008.058-.013ZM57.057 102.712c-.037.015-.072.026-.108.04l.108-.04ZM56.395 102.942l-.129.041.13-.041ZM56.081 103.038l-.091.026c.03-.007.06-.018.091-.026ZM17.268 89.156S3.838 85.776.552 84.132c0 0-.564-.298-.329.58.235.876 1.362 17.17 1.972 29.238 0 0 .04.478.008.633-.031.155.258.454.72.4.462-.055 11.512-.285 14.564.007v-4.82H7.126l-.235-6.128s5.353.061 6.558.343l1.785-5.259H6.657l-.353-7.434 10.988 2.598-.024-5.134ZM19.936 89.525v4.99s11.152 8.729 17.005 8.752c0 0 1.496 7.583-6.2 7.583h-4.464v-1.831s-2.762-.861-5.282-3.396c0 0-.41-.454-.41.139v9.044s-.026.176.585.176c.61 0 5.4-.235 13.578 0 0 0 6.548-1.408 6.548-7.888v-6.7s.017-.297-.642-.343c-.659-.048-10.707-2.818-19.792-10.706 0 0-.926-.45-.926.18Z" fill="#D4AF37"/><path d="M63.201 90.365c-6.308 2.804-17.42 2.64-17.42 2.64-.001 0-11.114.163-17.421-2.64 0 0-.692-.304-.481.247.211.551 5.811 5.79 10.162 7.591 0 0 .164.101.658-.439.493-.54 2.362-1.573 3.295-1.337 0 0 .328.054.32 1.078-.008 1.026 1.088 14.816 1.088 14.816s.172.172.387 0c.216-.172.537-4.301 1.992-4.301 1.456 0 1.777 4.129 1.992 4.301.215.172.388 0 .388 0s1.095-13.79 1.087-14.816c-.008-1.024.32-1.078.32-1.078.933-.235 2.803.797 3.297 1.337.492.54.656.44.656.44 4.351-1.801 9.95-7.04 10.162-7.592.211-.551-.482-.247-.482-.247Z" fill="#D4AF37"/><path d="M47.576 114.23c-.304-5.564-1.796-5.811-1.796-5.811s-1.396.247-1.702 5.811c0 0 .551 7.687 1.702 7.687 1.15-.001 1.796-7.687 1.796-7.687ZM20.887 100.928s.815-.267 1.483-.42c.668-.152 1.04-.192 1.04-.192s-.102 6.371 6.529 6.778c0 0 2.914.023 5.21-1.667 0 0-1.697 2.697-6.506 2.558-4.808-.137-7.3-4.56-7.756-7.057ZM70.319 89.334c-6.473 5.687-13.44 8.713-17.069 9.978-3.266 1.005-3.126 3.48-3.126 3.48v4.292c0 6.48 6.47 7.89 6.47 7.89 8.081-.235 13.42 0 13.42 0s1.22.109 1.22-.176V89.514c0-.63-.915-.18-.915-.18Zm-9.764 21.507c-7.605 0-6.127-7.583-6.127-7.583 3.233-.014 8.099-2.745 11.765-5.153v7.068c0 5.854-5.638 5.668-5.638 5.668Z" fill="#D4AF37"/><path d="M69.08 100.928s-.745-.267-1.355-.42a8.54 8.54 0 0 0-.95-.192s.093 6.371-5.965 6.778c0 0-2.661.023-4.76-1.667 0 0 1.55 2.697 5.945 2.558 4.392-.137 6.67-4.56 7.085-7.057ZM91.405 84.343c-.585.352-3.517 2.536-16.31 4.437 0 0-.737.141-.722.646 0 0 .232 2.83-.841 23.725l-.098 1.362s-.073.49.48.478c.553-.01 4.598-.01 4.598-.01s.488.07.294-.692c-.195-.764.096-5.905.439-9.262 0 0-.024-.318.574-.293.598.023 6.556 0 6.556 0s4.834.104 5.225-5.811l.4-14.347c0 .002-.008-.585-.595-.233Zm-4.624 7.444s-.228 4.382-.423 6.416c-.195 2.035-4.687 1.909-5.892 1.909-1.204 0-1.008-.243-1.008-.243.129-4.502.69-7.496.69-7.496.156-.132.448-.132.448-.132s4.102-.597 5.177-.675c1.073-.078 1.008.221 1.008.221Z" fill="#D4AF37"/></svg>