<svg version="1.1" id="Camada_1" xmlns="http://www.w3.org/2000/svg" x="0" y="0" width="633.333" height="776.811" xml:space="preserve"><path fill="#101946" d="m107.285 152.845-3.027-1.946a222.326 222.326 0 0 0-2.147 3.392l3.056 1.902a213.78 213.78 0 0 1 2.118-3.348M136.472 121.042a11935.31 11935.31 0 0 1-5.205-4.97 232.294 232.294 0 0 0-2.913 3.103l5.284 4.887a213.962 213.962 0 0 1 2.834-3.02M403.999 46.071a246.924 246.924 0 0 0-3.927-1.209c-.825 2.76-1.237 4.139-2.063 6.896 1.531.458 2.296.693 3.822 1.176.866-2.745 1.301-4.118 2.168-6.863M75.147 238.928l-7.022-1.572a221.678 221.678 0 0 0-.829 3.832l7.045 1.469c.312-1.494.473-2.239.806-3.729M82.27 192.797l3.322 1.384c.6-1.441.906-2.159 1.527-3.592l-3.301-1.433a227.01 227.01 0 0 0-1.548 3.641M290.627 43.053l-.921-7.137a231.37 231.37 0 0 0-3.987.545l1.029 7.122c1.55-.222 2.326-.329 3.879-.53M250.426 47.767c-.402-1.383-.604-2.072-1.005-3.455-1.549.449-2.323.681-3.865 1.153l1.057 3.44c1.522-.466 2.285-.695 3.813-1.138M307.446 35.428l-.074-1.196c-1.607.099-2.411.154-4.016.278l.092 1.195c1.598-.122 2.398-.177 3.998-.277M438.006 59.473a240.055 240.055 0 0 0-3.79-1.768l-1.493 3.275c1.499.684 2.247 1.033 3.739 1.744l1.544-3.251M342.917 34.399c-1.613-.114-2.42-.167-4.033-.258l-.204 3.594c1.591.09 2.387.141 3.978.255l.259-3.591M360.671 36.27a227.794 227.794 0 0 0-4.02-.528l-.444 3.571c1.587.196 2.38.302 3.965.521l.499-3.564M64.318 258.206l7.125 1.012c.214-1.51.327-2.263.563-3.77l-7.109-1.117a222.065 222.065 0 0 0-.579 3.875M66.404 320.641a228.102 228.102 0 0 1-.334-3.866l-3.587.283c.124 1.568.192 2.352.338 3.919l3.583-.336M75.333 353.748a222.02 222.02 0 0 1-.828-3.768l-7.04 1.492c.328 1.55.498 2.324.85 3.871l7.018-1.595"/><path fill="#101946" d="M395.921 28.676C248.257-11.819 95.724 75.059 55.229 222.723s46.383 300.198 194.047 340.692c147.665 40.494 300.198-46.383 340.692-194.047 40.495-147.664-46.383-300.197-194.047-340.692m62.452 36.052a226.794 226.794 0 0 1 8.678 5.189 214.73 214.73 0 0 1 1.164 3.568l-1.29 2.023a221.885 221.885 0 0 0-8.486-5.197l-.606 1.034a222.945 222.945 0 0 1 6.048 3.66c.455 1.415.678 2.122 1.11 3.537a5389.948 5389.948 0 0 0-3.226 5.055c-1.445.217-2.162.331-3.593.57a211.36 211.36 0 0 0-8.14-4.867c-.461-1.37-.697-2.054-1.18-3.422.469-.838.703-1.257 1.17-2.096a222.385 222.385 0 0 1 8.33 4.86c.248-.41.373-.615.623-1.023a217.72 217.72 0 0 0-5.965-3.524 203.875 203.875 0 0 0-1.234-3.454l2.925-5.235c1.462-.281 2.196-.418 3.672-.678m-5.304-2.961-8.012 14.756a231.972 231.972 0 0 0-4.744-2.515c3.08-5.968 4.619-8.955 7.699-14.922a222.542 222.542 0 0 1 5.057 2.681m-19.446-9.591a226.89 226.89 0 0 1 9.004 4.201 219.35 219.35 0 0 1 1.478 3.409c-2.58 5.146-3.869 7.722-6.448 12.867-1.913-.96-2.872-1.43-4.798-2.347.617-1.299.927-1.95 1.543-3.25a203.348 203.348 0 0 0-3.67-1.712l-1.492 3.275a200.494 200.494 0 0 0-4.854-2.157l5.698-13.218c1.408-.436 2.116-.65 3.539-1.068m-14.644-5.999c.396 3.737.568 5.603.862 9.329l3.072-7.815c2.095.825 3.14 1.249 5.224 2.12-2.589 6.198-3.882 9.299-6.47 15.497a210.066 210.066 0 0 0-4.899-1.988 284.524 284.524 0 0 0-.74-9.281l-2.95 7.86a221.878 221.878 0 0 0-4.945-1.8l5.574-15.84c2.114.744 3.168 1.127 5.272 1.918m-20.205-6.696a223.201 223.201 0 0 1 9.33 2.872 222.171 222.171 0 0 1 1.883 3.156l-3.852 11.362a177.39 177.39 0 0 0-3.258 1.441 209.495 209.495 0 0 0-8.752-2.694 189.87 189.87 0 0 0-1.872-3.022c1.282-4.624 1.921-6.936 3.202-11.56a206.35 206.35 0 0 1 3.319-1.555m-5.668-1.565-4.297 16.233a212.958 212.958 0 0 0-5.047-1.279c1.586-6.528 2.377-9.792 3.963-16.318 2.157.522 3.233.794 5.381 1.364m-23.697-2.711c1.24-.761 1.865-1.137 3.125-1.883 3.802.694 5.699 1.076 9.484 1.908a217.34 217.34 0 0 1 2.162 2.946l-.81 3.505a212.55 212.55 0 0 0-5.534.013l.492-2.349a223.711 223.711 0 0 0-3.992-.803l-1.367 7.065c1.555.302 2.332.457 3.885.781l.492-2.347c1.99.906 2.979 1.369 4.945 2.314l-.811 3.508a183.267 183.267 0 0 0-3.072 1.767 210.277 210.277 0 0 0-8.898-1.79 191.788 191.788 0 0 0-2.141-2.816c.818-4.727 1.224-7.092 2.04-11.819m-17.876-2.458a183.85 183.85 0 0 1 2.979-2.09c3.824.436 5.735.687 9.549 1.259.948 1.11 1.416 1.67 2.343 2.79l-2.285 14.212a217.23 217.23 0 0 0-5.111-.768l.499-3.563c-1.556-.217-2.335-.32-3.893-.513-.178 1.429-.266 2.144-.445 3.571a204.873 204.873 0 0 0-5.125-.583c.598-5.727.893-8.59 1.489-14.315m-17.852-3.648c4.928.178 7.394.323 12.317.727a187.806 187.806 0 0 1 2.515 2.626c-.266 2.865-.398 4.299-.662 7.165-.572.43-.857.644-1.425 1.076.484.524.724.786 1.202 1.313l-.441 4.778c-2.053-.189-3.08-.273-5.133-.421l.258-3.59a231.67 231.67 0 0 0-3.904-.249l-.204 3.594a215.32 215.32 0 0 0-5.138-.237l.615-16.782m-3.051-.092-.122 4.794a223.637 223.637 0 0 0-9.409-.067l.011 1.199a223.96 223.96 0 0 1 8.03.037 463.58 463.58 0 0 0-1.412 4.775 217.886 217.886 0 0 0-6.568-.015l.012 1.199c3.66-.039 5.492-.025 9.155.066-.05 1.919-.073 2.878-.121 4.797-5.651-.142-8.476-.132-14.117.041l-.507-16.784c6.012-.182 9.024-.193 15.048-.042m-20.824.282c1.141.9 1.707 1.354 2.83 2.268l.249 5.993a181.399 181.399 0 0 0-2.521 2.518c-2.621.138-3.931.222-6.547.424l.46 5.979c-2.044.159-3.066.248-5.106.446l-1.625-16.712c4.893-.479 7.347-.662 12.26-.916m-27.474 2.831c3.779-.585 5.674-.845 9.472-1.295a198.74 198.74 0 0 1 2.972 2.074l1.295 11.925a183.749 183.749 0 0 0-2.286 2.675c-3.563.423-5.34.666-8.885 1.214a190.566 190.566 0 0 0-2.921-1.962l-1.954-11.834a195.375 195.375 0 0 1 2.307-2.797m-23.38 4.672a226.095 226.095 0 0 1 9.328-2.12c1.266.714 1.895 1.076 3.145 1.806.188.942.28 1.411.467 2.354-3.685.73-5.522 1.13-9.182 1.989l.276 1.167c2.602-.611 3.907-.9 6.522-1.447 1.243.72 1.86 1.085 3.086 1.819l1.169 5.883a206.285 206.285 0 0 0-2.044 2.863 213.973 213.973 0 0 0-8.751 1.99 185.976 185.976 0 0 0-3.084-1.698l-.597-2.323c3.544-.91 5.323-1.333 8.895-2.117l-.257-1.171c-2.564.562-3.842.858-6.391 1.485a203.898 203.898 0 0 0-3.143-1.682l-1.494-5.809a209.231 209.231 0 0 1 2.055-2.989m-17.42 4.905a226.265 226.265 0 0 1 9.181-2.74c1.313.629 1.965.947 3.262 1.593 1.496 5.559 2.245 8.338 3.74 13.897-1.983.533-2.971.811-4.944 1.383l-1.005-3.456c-1.5.435-2.248.659-3.743 1.118l1.058 3.438c-1.965.604-2.944.914-4.898 1.558l-4.506-13.67a204.69 204.69 0 0 1 1.855-3.121m-17.092 6.07a223.869 223.869 0 0 1 9.001-3.356c1.354.54 2.027.813 3.366 1.369l1.165 3.404a218.806 218.806 0 0 0-4.646 2.912l-.823-2.253c-1.519.553-2.277.835-3.789 1.413l2.57 6.721c1.471-.56 2.209-.836 3.686-1.374l-.822-2.254c2.154-.272 3.229-.398 5.377-.626l1.166 3.406a194.36 194.36 0 0 0-1.653 3.113 208.517 208.517 0 0 0-8.443 3.148 198.84 198.84 0 0 0-3.295-1.267c-1.803-4.448-2.706-6.67-4.51-11.115.649-1.298.979-1.946 1.65-3.241m-5.384 2.186c2.595 6.194 3.894 9.292 6.488 15.487a214.708 214.708 0 0 0-4.741 2.04l-6.802-15.353a222.186 222.186 0 0 1 5.055-2.174m-16.564 7.594a278.657 278.657 0 0 1 7.359 5.742l-3.643-7.566a224.053 224.053 0 0 1 4.994-2.339l6.975 15.276a211.774 211.774 0 0 0-4.684 2.193 275.529 275.529 0 0 0-7.244-5.799l3.757 7.509a222.74 222.74 0 0 0-4.613 2.366l-7.82-14.861a230.087 230.087 0 0 1 4.919-2.521M184.01 67.708a225.515 225.515 0 0 1 8.411-4.859c1.435.302 2.149.458 3.571.781l1.712 3.165a213.886 213.886 0 0 0-4.149 3.67l-1.184-2.087c-1.422.805-2.13 1.215-3.54 2.044l3.648 6.205a207.542 207.542 0 0 1 3.444-1.991l-1.184-2.085c2.098-.639 3.148-.946 5.247-1.536l1.712 3.166a207.348 207.348 0 0 0-1.138 3.358 211.114 211.114 0 0 0-7.889 4.556c-1.389-.284-2.086-.42-3.486-.685l-6.292-10.215c.436-1.394.659-2.092 1.117-3.487m-10.39-1.875.319 4.978-3.745 2.49-.17-5.107 3.596-2.361zm5.383 4.963 2.563 4.055a223.831 223.831 0 0 0-8.016 5.272c.271.396.406.595.677.989a218.373 218.373 0 0 1 6.831-4.517c.574 1.911.866 2.865 1.458 4.767a213.443 213.443 0 0 0-5.581 3.713c.271.396.406.595.677.989a216.238 216.238 0 0 1 7.799-5.129l2.563 4.058c-4.859 3.07-7.253 4.681-11.959 8.044l-9.761-13.665c5.017-3.585 7.569-5.302 12.749-8.576m-15.281 10.409 2.834 3.871a218.036 218.036 0 0 0-3.321 2.473l7.234 9.569a216.725 216.725 0 0 0-4.179 3.23c-2.972-3.766-4.459-5.648-7.431-9.417a228.196 228.196 0 0 0-3.244 2.606l-3.031-3.72c4.38-3.572 6.609-5.296 11.138-8.612m-18.125 14.514 3.154 3.615a218.523 218.523 0 0 0-7.253 6.578l.821.874a217.743 217.743 0 0 1 6.177-5.633 405.277 405.277 0 0 0 2.153 4.506 212.495 212.495 0 0 0-5.045 4.624c.329.35.493.523.821.874a216.346 216.346 0 0 1 7.058-6.4l3.155 3.615c-4.414 3.855-6.576 5.856-10.799 10.002-4.701-4.796-7.052-7.197-11.754-11.991 4.502-4.419 6.807-6.551 11.512-10.664m-15.798 14.965c1.49-.155 2.233-.225 3.716-.355l8.497 8.467a211.46 211.46 0 0 0-.194 3.614c-3.392 3.48-5.055 5.269-8.308 8.94l-12.568-11.133c3.468-3.916 5.24-5.822 8.857-9.533m-17.623 20.519c1.43-.301 2.144-.444 3.572-.724l1.898 1.467a225.73 225.73 0 0 0-5.655 7.588c.389.279.584.42.974.698a222.025 222.025 0 0 1 3.991-5.411c1.417-.279 2.124-.413 3.537-.674l4.745 3.668c.119 1.414.184 2.118.325 3.522a212.181 212.181 0 0 0-5.322 7.292c-1.377.29-2.066.438-3.445.75l-1.976-1.36a218.84 218.84 0 0 1 5.339-7.471l-.963-.714a220.452 220.452 0 0 0-3.862 5.345c-1.39.311-2.086.47-3.478.8l-4.941-3.398c-.174-1.439-.257-2.16-.411-3.609a228.075 228.075 0 0 1 5.672-7.769m-10.464 14.812a230.05 230.05 0 0 1 3.504-.937l11.947 8.025a220.509 220.509 0 0 0-2.816 4.282l-3.027-1.946a220.464 220.464 0 0 0-2.08 3.286l3.055 1.902a216.381 216.381 0 0 0-2.654 4.358l-12.37-7.357a208.686 208.686 0 0 1-.659-3.554c1.979-3.251 3-4.864 5.1-8.059m-12.648 21.277c3.726.151 5.584.253 9.285.503l-7.345-4.068a229.512 229.512 0 0 1 2.674-4.716c5.809 3.371 8.715 5.054 14.525 8.425a217.9 217.9 0 0 0-2.509 4.425 286.351 286.351 0 0 0-9.225-.611l7.404 3.958a210.66 210.66 0 0 0-2.346 4.494c-5.985-3.049-8.978-4.571-14.963-7.619.98-1.926 1.48-2.884 2.5-4.791m-3.849 7.474 15.046 7.454a216.344 216.344 0 0 0-2.201 4.553l-15.19-7.156a227.483 227.483 0 0 1 2.345-4.851M80.5 184.788c1.314-.591 1.972-.882 3.288-1.452l6.543 2.994c.221.672.332 1.007.556 1.675.65-.273.975-.409 1.625-.676l4.363 1.997a214.75 214.75 0 0 0-2.054 4.607l-3.302-1.433c-.61 1.406-.91 2.112-1.499 3.526l3.322 1.384a207.556 207.556 0 0 0-1.889 4.663l-15.624-6.152c1.767-4.487 2.701-6.715 4.671-11.133m-5.749 13.916 4.482 1.708a225.028 225.028 0 0 0-1.378 3.697c4.508 1.642 6.762 2.463 11.27 4.107a212.592 212.592 0 0 0-1.672 4.732l-11.348-3.886c-.51 1.49-.759 2.237-1.247 3.734l-4.56-1.488c1.655-5.077 2.546-7.6 4.453-12.604m-8.003 24.391 11.558 3.201c.408-1.474.617-2.21 1.046-3.679l-11.509-3.368c.599-2.049.908-3.07 1.548-5.107l13.732 4.312c.612 1.253.922 1.876 1.549 3.113a214.872 214.872 0 0 0-2.397 8.422c-1.185.72-1.776 1.084-2.955 1.824l-13.943-3.569c.528-2.064.802-3.094 1.371-5.149m-2.71 10.619a197.64 197.64 0 0 1 2.948-2.02l11.652 2.847a199.46 199.46 0 0 0 1.749 3 213.562 213.562 0 0 0-1.846 8.542 209.083 209.083 0 0 0-2.831 2.008l-11.787-2.219a204.796 204.796 0 0 1-1.852-3.056 225.076 225.076 0 0 1 1.967-9.102m-3.455 17.25a218.76 218.76 0 0 1 2.812-2.203l11.811 2.091c.77 1.159 1.157 1.735 1.939 2.878-.739 4.43-1.06 6.653-1.605 11.109-6.667-.816-10.001-1.224-16.667-2.038.58-4.749.922-7.117 1.71-11.837m-2.617 20.37 4.777.431a225.706 225.706 0 0 0-.669 9.116l1.197.067c.176-3.115.286-4.671.552-7.78 1.868.682 2.803 1.018 4.675 1.682a218.6 218.6 0 0 0-.436 6.368l1.197.067c.2-3.553.33-5.328.651-8.871l4.778.433c-.494 5.465-.668 8.205-.87 13.692l-16.779-.615c.214-5.847.4-8.767.927-14.59m-1.076 20.212a209.583 209.583 0 0 1 2.453-2.599l11.99.31a213.613 213.613 0 0 0 2.346 2.558c-.073 4.493-.059 6.741.065 11.238l-16.785.468c-.132-4.792-.147-7.188-.069-11.975m.614 23.232a215.645 215.645 0 0 1 2.223-2.805l14.368-.854c.119 1.998.188 2.997.345 4.994l-3.588.284c.121 1.519.186 2.278.329 3.796l3.583-.336c.187 1.995.29 2.993.517 4.986l-14.302 1.625a226.83 226.83 0 0 1-2.671-2.384c-.385-3.72-.546-5.581-.804-9.306m2.763 24.194c4.737-.758 7.106-1.136 11.843-1.892a213.409 213.409 0 0 1-.577-3.797l-3.561.516c.177-2.123.277-3.182.498-5.289l7.141-.891c.683 5.479 1.099 8.214 2.08 13.665-6.611 1.19-9.916 1.784-16.526 2.975-.38-2.113-.56-3.17-.898-5.287m1.961 10.862a202.487 202.487 0 0 1 1.838-3.086c4.712-.903 7.069-1.353 11.781-2.254 1.133.819 1.702 1.223 2.842 2.022.697 3.46 1.076 5.187 1.895 8.63a206.522 206.522 0 0 0-1.731 3.036l-11.641 2.889a220.047 220.047 0 0 1-2.964-2.041 225.874 225.874 0 0 1-2.02-9.196m4.089 17.339c.644-1.294.97-1.937 1.629-3.214l3.482-.906a219.523 219.523 0 0 0 2.536 4.776l-2.31.65c.431 1.534.653 2.3 1.108 3.83 2.759-.821 4.139-1.23 6.899-2.05a216.366 216.366 0 0 1-1.079-3.728l-2.309.649a204.021 204.021 0 0 1-.201-5.334l3.483-.904c1.186.748 1.78 1.118 2.971 1.846a212.542 212.542 0 0 0 2.471 8.536 199.875 199.875 0 0 0-1.524 3.157 50338.5 50338.5 0 0 0-11.427 3.646 205.954 205.954 0 0 1-3.096-1.857 226.116 226.116 0 0 1-2.633-9.097m5.248 17.135c.556-1.34.837-2.006 1.409-3.33l2.276-.755a223.994 223.994 0 0 0 3.101 8.831l1.124-.417a226.232 226.232 0 0 1-2.237-6.271c.564-1.318.849-1.974 1.429-3.275l5.693-1.885c1.235.676 1.853 1.008 3.092 1.662a212.783 212.783 0 0 0 3.048 8.416c-.53 1.299-.792 1.952-1.305 3.268l-2.233.878a217.056 217.056 0 0 1-3.194-8.55c-.453.158-.679.238-1.131.398a220.193 220.193 0 0 0 2.26 6.145 195.706 195.706 0 0 0-1.282 3.324l-5.581 2.196c-1.29-.657-1.934-.991-3.22-1.669a225.574 225.574 0 0 1-3.249-8.966m11.448 28.184c-2.594-5.488-3.809-8.258-6.078-13.838l4.444-1.807a224.253 224.253 0 0 0 3.707 8.678l1.095-.49a222.674 222.674 0 0 1-3.183-7.4c1.978-.235 2.966-.358 4.94-.613a214.45 214.45 0 0 0 2.621 6.051c.438-.195.657-.294 1.094-.49a216.186 216.186 0 0 1-3.607-8.444l4.445-1.806c2.129 5.236 3.269 7.836 5.703 12.987-6.072 2.867-9.109 4.303-15.181 7.172m469.715-53.337C517.874 486.252 386.585 561.028 259.49 526.174 132.393 491.32 57.616 360.032 92.471 232.936 127.325 105.841 258.612 31.063 385.708 65.918c127.096 34.854 201.873 166.141 167.02 293.237"/><path fill="#101946" d="m68.853 294.28-7.196-.045c-.01 1.568-.01 2.353.004 3.922l7.196-.06a202.35 202.35 0 0 1-.004-3.817M580.698 277.749c-29-40.317-85.115-23.931-85.115-23.931-22.634-28.057-21.926-39.609-21.926-39.609 10.138 7.544 12.023-1.18 12.023-1.18-49.748-72.617 2.123-111.52 2.123-111.52-29-27.114-66.018 5.423-66.018 5.423-61.771-37.96-132.504.943-132.504.943-31.594-20.984-61.773-5.188-61.773-5.188 19.805 21.691 21.252 49.041 21.252 49.041-11.757 38.666-1.211 62.951-1.211 62.951-5.187 41.261 4.008 54.464 4.008 54.464-89.358-.472-101.854 94.309-101.854 94.309-44.561 37.724-34.659 111.285-34.659 111.285-10.374 59.887 32.301 77.098 32.301 77.098 63.423 21.455 115.058-48.334 115.058-48.334 11.552 17.92 35.365 33.127 35.365 33.127 87.354 42.263 138.635-11.906 138.635-11.906 2.905 2.25 37.858-43.549 34.954-45.799-2.688-2.083 19.863-7.368 19.863-7.368 65.428-19.451 74.269-89.122 74.269-89.122 18.038-10.609 44.209-64.367 15.209-104.684M314.49 197.557c-12.722.089-17.251-7.427-19.638-18.214-2.387-10.786 2.122-12.023 2.122-12.023 3.006-.178 3.625 1.237 3.625 1.237s-2.564 8.222 3.271 15.964c5.835 7.741 16.888 1.365 16.888 1.365l1.237 3.802c1.238 3.802 5.217 7.78-7.505 7.869m103.525-28.116c-.619 11.671-3.625 18.479-10.346 23.341-6.719 4.864-19.273 2.388-20.954.796-1.68-1.591 2.829-6.896 2.829-6.896s7.781 2.122 13.705-2.406c5.924-4.526 2.829-14.835 2.829-14.835s4.509-1.503 8.935-2.651c4.425-1.151 3.002 2.651 3.002 2.651"/><path fill="#CCAA3C" d="M234.464 104.338s18.037 22.162 17.801 43.5c0 0 22.752-14.854 33.48-12.73 0 0-3.286-9.079-22.045-5.423 0 0 1.768-9.549 16.033-10.492 0 0-15.915-20.277-45.269-14.855"/><path fill="#CCAA3C" d="M266.294 144.891s5.894-8.134 25.11-6.954c0 0 12.496 10.963 17.683 23.931 0 0-18.98-14.148-42.793-16.977"/><path fill="#CCAA3C" d="M476.368 207.636c-5.306-6.277-13.793-25.021-18.391-58.796 0 0-5.04-5.747-6.365-4.685-1.326 1.06 2.476 3.802 2.828 6.012.354 2.211 5.305 43.941-4.42 66.576-9.726 22.634-23.342 39.256-26.171 27.409 0 0-13.616 11.847-20.159 10.786s7.604-3.713 15.738-12.555c8.134-8.841 12.378-11.67 11.141-6.719-1.238 4.951-3.714 12.555 3.891 2.475 7.603-10.079 14.5-20.689 13.792-34.481 0 0-30.062 51.634-77.274 4.067 0 0-11.671 5.128-8.842-.708 2.83-5.835 12.909-2.121 27.055-27.408 14.147-25.286 23.342-54.384 54.465-53.98 0 0-5.129-10.385-21.928-1.897 0 0-7.779 1.237 1.414-7.072 9.196-8.313 22.988-20.159 50.221-18.392 0 0-23.164-12.201-44.207 7.073-21.043 19.275-25.817 35.543-33.067 48.098-7.25 12.556-20.513 42.616-41.025 54.287 0 0-15.561-6.012-33.775-43.5-18.213-37.487-23.106-60.005-67.961-62.361 0 0 23.105 3.419 34.364 19.216 0 0-5.895-1.513-17.182 4.549 0 0 27.732-1.956 47.773 47.556 0 0 9.549 32.655 28.411 33.126 0 0 2.24 2.24 0 3.419-2.24 1.179-9.195.354-14.029-5.659 0 0-6.549 23.342-32.155 22.399-25.608-.943-36.689-21.809-36.689-21.809s6.955 28.175 28.646 42.203c0 0-.236-12.26 6.012-4.244s8.252 10.728 24.049 14.264c0 0-8.659 3.822-23.695-6.601 0 0-1.768 4.303-10.433-2.063s-46.742-42.734-29.531-100.38c0 0-17.211 18.744-7.073 67.077 10.138 48.333 31.299 53.284 31.299 53.284s-7.073-11.317-4.421-10.963c2.653.354 14.854 22.811 34.836 27.409 0 0 1.415-2.476-4.421-7.25-5.835-4.775 6.189-2.299 14.5 1.414 8.311 3.714 16.799 7.427 26.701 20.159l3.254-1.238s23.094-26.524 44.844-28.293c0 0 1.415 1.945-3.006 4.598s-7.957 7.604-4.774 7.25 24.226-10.079 33.597-18.921c9.373-8.841 6.543-.354 4.775 1.768-1.768 2.123-5.128 5.482-2.652 5.836 2.476.353 33.598-21.75 35.013-48.629 0 0 2.21-11.228 0-16.002-2.211-4.775 4.862-3.095 6.719-.442 1.856 2.652 3.714 7.25 8.312 8.487 4.594 1.236 5.301.529-.004-5.749m-124.193 78.542s-3.184-14.441-19.805-22.104c0 0 15.089 1.887 19.805 12.556 0 0 5.775-11.376 17.979-13.793-.001 0-13.971 8.311-17.979 23.341m17.564-56.88c-4.773-5.128-4.244-2.122-6.72 3.624-2.475 5.746-4.95 20.602-8.311 20.248-3.36-.353-7.604-25.11-9.372-25.641-1.768-.53-10.786 6.897-12.731 7.781-1.946.884-3.714-.707-3.714-.707s10.61-6.72 17.86-14.5c7.25-7.781 9.726-7.427 9.726-7.427 3.418-.413 5.481 1.768 9.902 7.957s14.677 17.86 14.677 17.86c-4.067 1.061-6.542-4.067-11.317-9.195"/><path fill="#CCAA3C" d="M263.583 147.367s-10.301 31.017 1.533 51.163c11.834 20.145 29.943 27.585 44.562 22.634 14.617-4.951 18.742-13.086 18.742-13.086s-24.047 13.558-40.081 3.301c-16.032-10.256-20.277-31.475-18.744-40.551 1.533-9.078 4.598-16.033 14.618-17.213-.001 0-4.481-5.305-20.63-6.248"/><path fill="#CCAA3C" d="M313.95 173.862s-13.174-12.819-31.299-8.398c0 0-6.278 18.018 7.78 33.862 14.06 15.845 36.25-.442 36.25-.442l3.714 4.421s-12.732 11.574-27.232 9.324c-14.5-2.251-25.375-13.126-28.027-24.443-2.653-11.317-4.067-29 13.616-32.006 0 0 9.371-1.856 26.347 16.091 0-.001 2.034 3.271-1.149 1.591"/><path fill="#CCAA3C" d="M288.84 166.435s2.476-.177 1.856 6.896c-.618 7.073 2.123 25.375 22.104 27.851 0 0 3.802 1.237 0 2.387-3.801 1.149-16.445 1.061-22.899-12.025-6.455-13.085-7.073-27.76-1.061-25.109M292.995 109.938s34.835-18.228 69.141-15.479c34.305 2.748 54.817 14.594 54.817 14.594s-20.513 28.824-30.062 51.635c-9.549 22.811-31.918 41.909-31.918 41.909s-17.75-10.56-37.223-54.759c.001 0-9.547-27.114-24.755-37.9M428.624 117.365s24.579-22.898 53.227-14.854c0 0-18.125 20.424-22.636 42.617 0 0-4.774-9.284-26.966-12.645 0 0-2.477-1.944 5.305-2.563 7.78-.619 13.35 0 13.262-3.713-.088-3.713-4.333-9.629-22.192-8.842M407.05 157.063s6.366-15.029 18.303-21.927c0 0 13.881-.441 24.756 6.897-.001.001-20.159.62-43.059 15.03M431.983 150.432s15.738 8.047 12.645 25.994c-3.096 17.948-5.482 29.176-19.718 36.957-14.235 7.78-36.78 3.271-46.241-2.653 0 0 13.82 15.827 33.181 13.174 19.36-2.652 30.832-12.82 34.457-24.314s4.774-22.369 4.862-33.951 1.681-21.572-6.276-19.98c-7.958 1.59-10.345 2.562-12.91 4.773"/><path fill="#CCAA3C" d="M405.37 163.164s-3.625 1.593-3.713 3.448c-.089 1.857 1.414 1.15 4.422 0 3.004-1.148 12.201-5.128 23.076-3.448 0 0 9.637 29.265-18.744 42.085 0 0-18.744 6.278-27.056-8.045 0 0-6.808 5.127-6.543 6.631.265 1.503 9.636 12.954 30.238 10.433 20.602-2.521 28.116-18.614 30.415-25.576 2.299-6.961 8.046-27.649-6.454-34.458 0 0-7.429-1.855-16.534 3.536l-9.107 5.394z"/><path fill="#CCAA3C" d="M419.694 167.054s2.801 22.804-11.021 29.659c0 0-10.199 3.319-18.51 1.904 0 0 1.414 5.306 12.467 3.979 11.052-1.326 20.07-8.435 22.723-18.32 2.652-9.883 3.094-18.547 1.414-19.079-1.679-.53-5.924 1.061-7.073 1.857M249.908 225.054s-1.04 51.752 23.646 78.984c0 0-.422 1.651 3.586 1.297s-1.886-5.658-3.537-8.724c-1.65-3.065-4.244-10.727-3.183-19.922 0 0 1.179-1.179 2.24 4.479 1.061 5.659 4.008 24.502 21.456 24.217 0 0-9.903-11.603-9.549-21.859 0 0 1.414-1.179 5.304 8.488 3.891 9.666 6.013 12.26 16.151 17.565 10.138 5.305 11.435 5.54 12.732 8.959 0 0 15.913-13.91 28.409-17.329 0 0-10.844-17.565-31.946-21.455 0 0-.707 1.061 1.886 3.772 2.594 2.711 1.533 6.13-4.126 4.951-5.658-1.179-14.736-5.776-20.512-11.317s-5.305-4.715-8.016-4.715c-2.712 0-5.895-2.122-10.728-6.72-4.834-4.597-18.996-21.83-23.813-40.671M359.13 294.018s18.037-14.677 28.646-17.152c0 0 1.062.353-1.769 3.006-2.828 2.652-5.976 5.305 1.963 4.774 7.94-.53 13.775-4.774 19.965-7.78 6.189-3.007 9.549-7.958 10.964-6.367 1.415 1.592-3.537 5.187 3.183 4.009 6.719-1.179 46.684-19.923 43.146-65.545 0 0 2.476-3.537 3.714 2.652 1.237 6.189 7.957 28.823 23.165 43.5 0 0 0 3.36-3.359 3.537-3.361.177-9.373-.341-12.732-5.475-3.36-5.135-3.537-9.909-6.189-10.263-2.652-.354-1.415 3.36 0 5.835 1.414 2.476 5.128 8.665 8.842 10.61 3.713 1.946 1.414 3.537-2.652 5.659-4.067 2.122-5.129 3.006-5.129 3.006s-1.414 1.592-4.42-2.122-4.951-6.189-5.659-4.774c-.707 1.414 2.476 5.128 3.536 7.073 1.062 1.945 1.593 3.359-.883 5.128-2.477 1.768-13.793 10.963-20.867 19.628 0 0 .178 2.652-5.305-.354-5.481-3.006-43.322-7.25-76.744 3.183-.002 0-1.976.846-1.416-1.768"/><path fill="#CCAA3C" d="M291.05 356.851s22.28-40.199 65.427-55.643c43.146-15.442 81.813-3.3 81.813-3.3s-12.968 15.561-15.089 37.723c0 0 .294 2.653-2.946.649-3.244-2.004-16.447-10.138-38.668-10.198 0 0-1.119 1.121.825 1.887 1.945.766 18.921-.118 36.545 11.376 0 0 2.652 2.004.177 3.183s-29.53 5.246-49.218 47.331c0 0-32.006-6.365-64.896 23.166 0 0-17.388.883-18.862-.591-1.473-1.473-5.658-8.192-.353-15.442s16.916-22.517 50.514-35.248c0 0 4.185-2.594-1.12-2.476-5.305.118-36.721 14.323-51.044 31.475 0 0-3.007 3.006-2.299-3.891.707-6.896 5.623-39.433 71.687-55.171 0 0 3.406-3.094-6.378-1.503-9.784 1.592-37.547 7.869-53.197 27.409-.001.001-3.36 3.125-2.918-.736"/><path fill="#CCAA3C" d="M271.599 387.089s6.72 2.181 7.073 8.605c.354 6.426.295 10.315 1.355 12.26 1.062 1.945 1.709 4.186-2.711 3.184-4.421-1.002-18.096-5.275-30.385-12.26-12.291-6.985-41.467 3.006-42.97 2.74-1.503-.265-7.427 1.414-1.68-22.723s8.665-37.429 40.671-60.358c0 0 27.52-15.679 55.58-7.014 0 0 19.307 6.3 13.649 11.593-5.659 5.294-14.5 15.373-23.519 30.669 0 0-.972 3.449-5.305.973-4.332-2.476-31.682-16.77-55.141-9.343 0 0-1.651 1.415 4.008.825 5.659-.589 37.959.584 50.337 13.908 0 0 2.261 1.536-.815 8.845-3.075 7.308-2.603 17.21-2.603 17.21s1.65 2.594-4.834-1.885c-6.483-4.48-22.752-20.16-55.288-14.5 0 0-3.066 2.711.589 3.301 3.655.588 22.163-3.301 34.777 4.361 12.613 7.664 17.212 9.609 17.212 9.609"/><path fill="#CCAA3C" d="M235.761 290.953s5.187 10.374 4.362 23.577c0 0-.118.944 6.484-2.357 6.601-3.302 14.264-6.248 21.926-5.895 0 0 1.533-1.061-2.122-5.423-3.654-4.361-11.552-20.865-12.024-23.577-.471-2.711-1.061-4.48-9.313-4.126s-20.63-1.061-41.143 12.732c-20.512 13.793-38.43 24.284-50.219 77.569 0 0-1.12 17.035.736 16.328 1.857-.708 6.632-11.589 20.778-19.632 0 0 2.063-25.932 22.693-46.798 0 0 2.476-1.061 1.179 1.887-1.296 2.947-17.8 17.683-18.036 40.788 0 0-.354 1.061 6.719-3.065 7.073-4.126 15.325-6.955 22.281-8.252 0 0 10.963-17.565 24.756-26.171 0 0 2.358-18.39-1.061-24.874 0 0-2.004-4.126 2.004-2.711"/><path fill="#CCAA3C" d="M146.639 371.469s-27.484 28.197-27.468 89.476c0 0-.707 8.488 3.537-2.594 4.244-11.08 7.736-15.088 10.175-14.735 2.439.354-.862 3.184-3.455 8.135-2.594 4.951-10.61 17.918-12.025 29.825-1.415 11.906 4.715 54.229 31.358 65.781 26.642 11.552 47.626 3.064 81.813-20.041 0 0 22.163-15.326 28.293-27.586 0 0 .943-2.357-1.061-3.891-2.004-1.531-5.895-6.012-5.895-6.012s.236-2.594-4.008 1.886c-4.243 4.479-21.573 22.045-36.191 22.045 0 0-1.532-.825 1.768-1.769 3.301-.942 15.797-5.068 24.049-13.793 8.253-8.723 13.911-9.901 9.667-15.561-4.244-5.658-16.504-24.992-20.512-30.414-4.008-5.423-5.423-9.668-10.492-9.785-5.069-.117-16.386 2.83-26.642 7.428-10.257 4.597-31.653 16.031-40.494 34.422 0 0-4.421 15.561 16.091 15.915 20.512.354 39.256-14.147 39.256-14.147s2.476-3.182 4.421-1.591c1.945 1.591-15.738 13.97-30.592 17.506-14.853 3.537-31.299 4.067-32.713-7.78-1.415-11.848 3.006-21.097 17.329-32.209 0 0-4.951-11.291 4.421-23.846 0 0 .032-23.873 32.553-34.658 0 0-7.518-31.033 6.35-51.458 0 0 1.092-3.89-6.35-1.237-7.443 2.652-35.205 18.744-44.401 36.427-9.195 17.683-12.024 22.812-13.615 46.506 0 0-2.299 3.006-2.299-2.829 0-5.836-3.714-21.927 10.256-44.031l-.531-15.561c0-.001-.793-1.904-2.593.176"/><path fill="#CCAA3C" d="M174.578 431.355s-4.244 3.773-1.061-3.301c3.183-7.072 12.496-16.268 32.301-21.69 19.805-5.423 25.11-5.187 25.11-5.187s8.252-1.651 1.768 2.828c-6.484 4.48-9.667 11.672-9.785 16.151-.117 4.479 2.24.589 2.948-1.179.707-1.769 6.601-10.963 10.138-13.086 3.537-2.121 6.602-2.004 13.203.354 6.602 2.357 17.683 8.018 28.765 10.375 11.081 2.357 32.536.648 44.914 3.301 12.378 2.651 37.665 8.663 53.403 23.694 15.738 15.03 18.39 24.933 18.037 30.946-.354 6.012-3.008 18.92-21.043 19.982-18.037 1.059-31.477-1.238-42.616-5.66-11.141-4.42-22.988-10.963-35.189-19.981-12.202-9.019-21.043-14.677-21.043-14.677s-1.945-.885-1.415 1.414c.531 2.299 23.342 20.336 41.909 30.062 18.567 9.726 30.593 15.562 50.397 13.97 19.804-1.592 32.006-4.421 33.773-25.641 0 0 6.543-.354 8.842-6.012 0 0 3.006 1.768 9.019-2.299 0 0 15.915-.707 15.207-18.567-.707-17.86-7.78-41.909-56.409-56.586 0 0 17.508-57.057 86.824-47.154 0 0 37.37 3.065 29.531 37.487-7.84 34.423-42.027 53.285-42.027 53.285s.707 2.594 2.357 2.121c1.65-.471 31.517-24.049 40.75-44.797 9.234-20.748 3.104-26.642 3.104-26.642s48.57 6.13 58.473-58.236c0 0-.943-3.773-3.772 7.309s-13.911 42.905-54.7 46.208c0 0-13.439-32.297-69.316-19.801 0 0 3.301-40.2 46.211-68.552 42.912-28.351 79.691-10.904 79.691-10.904s35.838 16.032 33.952 49.748c-1.888 33.716 2.593 70.732-74.505 93.838 0 0-1.65 1.886 1.179 1.886s31.718-7.394 43.382-16.74c0 0 2.594-3.772 2.358.943-.236 4.716-19.569 66.017-74.269 78.748s-66.017 29-66.017 29 .472 3.468 3.302 1.616c2.828-1.852 15.797-11.047 26.405-14.584 10.61-3.535 18.392-8.252 16.033-3.771-2.036 3.869-23.244 50.479-77.295 62.807-67.352 8.106-123.455-80.752-127.474-80.254-5.231.648 54.994 77.629 99.379 83.227-72.147 10.492-125.668-92.893-125.668-92.893s-7.486-17.92-20.217-16.682c-12.732 1.238-31.122 12.023-36.781 14.854s-11.317 9.549-11.848 4.067c-.53-5.481 2.476-14.147 9.372-19.981 6.897-5.836 22.988-12.025 27.055-12.91 4.067-.883 5.305-4.066 1.061-3.889-4.244.177-18.449 4.126-27.703 11.435"/><path fill="#CCAA3C" d="M318.164 409.31s17.211-14.735 37.017-14.971c19.805-.235 35.012 3.537 46.801 11.082s24.639 23.342 25.816 33.832c1.18 10.492.354 21.338-9.43 20.159 0 0 4.242-22.634-16.387-39.374-20.631-16.74-27.644-18.982-28.793-18.568-1.15.414.383.649 6.748 5.601s30.769 19.806 34.306 43.147c0 0 1.178 12.731-2.595 12.613-3.771-.117-3.064-1.533-3.771-4.832-.708-3.302-7.073-17.685-16.977-27.115-9.902-9.431-20.865-18.391-22.869-20.041s-5.305-3.654-6.131-2.476c-.824 1.179-.472.589 5.776 6.366 6.248 5.775 18.392 14.5 25.228 25.346 6.839 10.846 11.199 19.451 10.611 23.577-.591 4.126-2.83 8.252-6.248 3.065-3.42-5.188-10.965-39.965-79.103-51.752 0 0-9.063 0-4.944-2.948 4.12-2.946 4.945-2.711 4.945-2.711"/><path fill="#101946" d="M226.246 662.072c-36.194-.848-37.053-39.172-37.053-39.172s2.071-.475 9.693-1.391c7.622-.917 11.868-.66 11.868-.66 0 10.662 3.141 20.405 15.922 23.142 12.781 2.737 20.727-6.407 21.252-6.953l.114.04c-8.953-3.278-21.518-8.955-38.848-18.738 0 0-24.19.174-41.266 7.676 0 0 6.121 44.868 52.035 46.143 0 0 36.893 2.83 48.009-30.856-17.453 21.655-41.726 20.769-41.726 20.769M267.919 641.313l-.014.003.014-.003M267.737 641.345l-.008.002.008-.002"/><path fill="#101946" d="M252.781 638.703c.314.101.616.193.919.287-.302-.094-.605-.187-.919-.287M250.522 637.958c.247.085.475.158.716.238-.239-.079-.468-.154-.716-.238M373.356 641.313l.012.003-.012-.003M379.896 640.8c-.122.027-.238.05-.355.074.116-.024.232-.046.355-.074M378.565 641.059l-.225.039.225-.039M373.522 641.345l.008.002-.008-.002"/><path fill="#101946" d="M427.009 618.339c-15.833 9.783-27.313 15.461-35.493 18.738.036-.014.069-.025.105-.04.479.546 7.739 9.69 19.415 6.953 11.678-2.736 14.548-12.479 14.548-23.142 0 0 3.88-.258 10.843.66 6.964.916 8.855 1.391 8.855 1.391s-.784 38.324-33.853 39.173c0 0-22.177.885-38.122-20.771 10.156 33.687 43.862 30.855 43.862 30.855 41.948-1.273 47.542-46.143 47.542-46.143-15.601-7.5-37.702-7.674-37.702-7.674"/><path fill="#101946" d="M387.187 638.703c-.287.1-.563.193-.84.287l.84-.287M381.315 640.476c-.119.029-.227.053-.342.08.116-.027.223-.051.342-.08M389.25 637.958c-.226.085-.437.158-.656.238.219-.079.43-.153.656-.238M383.364 639.922c-.183.054-.373.111-.551.16.178-.048.369-.106.551-.16M149.371 556.234s-80.962-20.382-100.778-30.289c0 0-3.397-1.793-1.982 3.49 1.416 5.284 8.21 103.516 11.89 176.268 0 0 .236 2.879.047 3.822-.189.943 1.557 2.736 4.341 2.406 2.783-.33 69.403-1.713 87.803.04v-29.056H88.225l-1.416-36.943s32.272.378 39.538 2.076l10.757-31.706h-51.71l-2.123-44.821 66.242 15.664-.142-30.951zM165.457 558.452v30.079s67.234 52.63 102.515 52.771c0 0 9.022 45.719-37.376 45.719h-26.904v-11.04s-16.647-5.19-31.844-20.476c0 0-2.471-2.737-2.471.836v54.529s-.161 1.063 3.524 1.063c3.686 0 32.563-1.416 81.861 0 0 0 39.47-8.493 39.47-47.559v-40.387s.107-1.793-3.866-2.076c-3.974-.283-64.549-16.984-119.324-64.543 0-.001-5.585-2.714-5.585 1.084"/><path fill="#101946" d="M426.29 563.523c-38.025 16.898-105.021 15.924-105.023 15.924s-66.999.975-105.025-15.924c0 0-4.176-1.84-2.902 1.486s35.032 34.914 61.265 45.766c0 0 .991.613 3.963-2.643 2.973-3.255 14.248-9.482 19.863-8.066 0 0 1.982.33 1.935 6.51-.048 6.182 6.558 89.314 6.558 89.314s1.037 1.037 2.335 0c1.298-1.039 3.232-25.926 12.008-25.926 8.775 0 10.71 24.887 12.007 25.926 1.298 1.037 2.335 0 2.335 0s6.605-83.133 6.559-89.314c-.047-6.18 1.935-6.51 1.935-6.51 5.614-1.416 16.892 4.812 19.862 8.066 2.973 3.256 3.964 2.643 3.964 2.643 26.233-10.852 59.991-42.439 61.265-45.766s-2.904-1.486-2.904-1.486"/><path fill="#101946" d="M332.095 707.402c-1.84-33.545-10.829-35.039-10.829-35.039s-8.422 1.494-10.262 35.039c0 0 3.326 46.332 10.262 46.332 6.935 0 10.829-46.332 10.829-46.332"/><path fill="#CCAA3C" d="M171.189 627.194s4.914-1.604 8.941-2.524c4.028-.92 6.269-1.155 6.269-1.155s-.613 38.403 39.363 40.858c0 0 17.561.142 31.415-10.049 0 0-10.238 16.264-39.228 15.428-28.989-.836-44.021-27.506-46.76-42.558"/><path fill="#101946" d="M469.2 557.303c-39.021 34.282-81.021 52.53-102.9 60.153-19.69 6.058-18.848 20.982-18.848 20.982v25.871c0 39.065 39.009 47.559 39.009 47.559 48.72-1.416 80.902 0 80.902 0s7.356.664 7.356-1.063V558.386c.001-3.796-5.519-1.083-5.519-1.083m-58.857 129.654c-45.854 0-36.938-45.719-36.938-45.719 19.482-.078 48.822-16.545 70.922-31.061v42.614c0 35.292-33.984 34.166-33.984 34.166"/><path fill="#CCAA3C" d="M461.731 627.194s-4.49-1.604-8.17-2.524c-3.68-.92-5.728-1.155-5.728-1.155s.562 38.403-35.963 40.858c0 0-16.043.142-28.702-10.049 0 0 9.355 16.264 35.841 15.428s40.22-27.506 42.722-42.558"/><path fill="#101946" d="M596.325 527.218c-3.532 2.123-21.206 15.286-98.332 26.751 0 0-4.439.853-4.342 3.894 0 0 1.398 17.055-5.078 143.028l-.588 8.209s-.438 2.957 2.896 2.894c3.334-.063 27.717-.063 27.717-.063s2.944.425 1.768-4.176c-1.178-4.6.588-35.598 2.648-55.838 0 0-.146-1.911 3.459-1.77 3.606.141 39.521 0 39.521 0s29.144.637 31.498-35.031l2.417-86.483s-.051-3.538-3.584-1.415m-27.878 44.869s-1.374 26.421-2.552 38.688c-1.178 12.268-28.26 11.512-35.521 11.512-7.261 0-6.083-1.471-6.083-1.471.785-27.139 4.17-45.189 4.17-45.189.933-.803 2.698-.803 2.698-.803s24.729-3.586 31.205-4.058 6.083 1.321 6.083 1.321"/></svg>