<svg width="94" height="43" viewBox="0 0 94 43" fill="none" xmlns="http://www.w3.org/2000/svg">
<path d="M30.6081 23.0938C24.4812 22.9498 24.3359 16.4625 24.3359 16.4625C24.3359 16.4625 24.6862 16.3822 25.9769 16.2276C27.2669 16.073 27.9856 16.1154 27.9856 16.1154C27.9856 17.9211 28.5178 19.5701 30.6811 20.0333C32.8451 20.4965 34.1902 18.9483 34.2791 18.8561C34.2858 18.8587 34.2917 18.8607 34.2984 18.8634C32.7827 18.3086 30.6559 17.3471 27.7222 15.6914C27.7222 15.6914 23.6271 15.7199 20.7359 16.9901C20.7359 16.9901 21.7724 24.5862 29.5451 24.8019C29.5451 24.8019 35.7908 25.2803 37.6721 19.5781C34.7171 23.2438 30.6081 23.0938 30.6081 23.0938Z" fill="white"/>
<path d="M35.4577 19.2461C35.5068 19.2607 35.5553 19.2753 35.6024 19.2879C35.5553 19.2753 35.5068 19.2607 35.4577 19.2461Z" fill="white"/>
<path d="M37.6639 19.5801L37.6609 19.5808L37.6639 19.5801Z" fill="white"/>
<path d="M37.6331 19.5852L37.6311 19.5862L37.6331 19.5852Z" fill="white"/>
<path d="M35.1008 19.1382C35.1539 19.1554 35.205 19.1707 35.2561 19.1866C35.205 19.1707 35.1539 19.1554 35.1008 19.1382Z" fill="white"/>
<path d="M34.7185 19.012C34.7603 19.0259 34.7988 19.0385 34.8392 19.0524C34.7988 19.0385 34.7596 19.0259 34.7185 19.012Z" fill="white"/>
<path d="M55.5121 19.5801L55.5141 19.5807L55.5121 19.5801Z" fill="white"/>
<path d="M56.6191 19.4932C56.5986 19.4971 56.5787 19.5018 56.5587 19.5058C56.5793 19.5018 56.5986 19.4971 56.6191 19.4932Z" fill="white"/>
<path d="M56.3949 19.5361C56.3813 19.5382 56.3685 19.5409 56.3556 19.5436C56.3685 19.5416 56.382 19.5388 56.3949 19.5361Z" fill="white"/>
<path d="M55.54 19.5852L55.542 19.5859L55.54 19.5852Z" fill="white"/>
<path d="M64.5948 15.6914C61.9145 17.3471 59.9709 18.308 58.586 18.8634C58.5926 18.8607 58.5986 18.8594 58.6039 18.8561C58.6848 18.949 59.9145 20.4972 61.89 20.0333C63.8668 19.5701 64.3533 17.9204 64.3533 16.1154C64.3533 16.1154 65.0096 16.073 66.1894 16.2276C67.368 16.3829 67.6885 16.4625 67.6885 16.4625C67.6885 16.4625 67.5564 22.9498 61.957 23.0938C61.957 23.0938 58.2037 23.2438 55.5036 19.5781C57.2229 25.2803 62.9285 24.8019 62.9285 24.8019C70.0296 24.5862 70.9766 16.9901 70.9766 16.9901C68.3361 15.7199 64.5948 15.6914 64.5948 15.6914Z" fill="white"/>
<path d="M57.8533 19.1382C57.8049 19.1548 57.7571 19.1707 57.7106 19.1866C57.7577 19.1707 57.8042 19.1554 57.8533 19.1382Z" fill="white"/>
<path d="M56.8593 19.438C56.8394 19.4433 56.8208 19.4466 56.8009 19.4519C56.8215 19.4466 56.8394 19.4433 56.8593 19.438Z" fill="white"/>
<path d="M58.2025 19.012C58.164 19.0259 58.1288 19.0385 58.0923 19.0524C58.1288 19.0385 58.164 19.0259 58.2025 19.012Z" fill="white"/>
<path d="M57.5276 19.2461C57.4825 19.26 57.4373 19.2753 57.3949 19.2879C57.438 19.2753 57.4825 19.2614 57.5276 19.2461Z" fill="white"/>
<path d="M57.2071 19.3442C57.1759 19.3529 57.1433 19.3628 57.1128 19.3708C57.1433 19.3628 57.1759 19.3535 57.2071 19.3442Z" fill="white"/>
<path d="M17.595 5.1773C17.595 5.1773 3.88918 1.72661 0.53471 0.0497075C0.53471 0.0497075 -0.0406255 -0.254218 0.199596 0.64097C0.439816 1.53616 1.58982 18.1645 2.21228 30.4808C2.21228 30.4808 2.25209 30.9679 2.22024 31.1278C2.18839 31.2884 2.48369 31.5903 2.95484 31.5346C3.42599 31.4788 14.7044 31.2453 17.8187 31.5412V26.6227H7.24298L7.00342 20.369C7.00342 20.369 12.4661 20.4333 13.6964 20.7207L15.5173 15.3535H6.76453L6.40486 7.76598L17.6183 10.4177L17.595 5.1773Z" fill="white"/>
<path d="M20.3179 5.55289V5.60465V10.6446C20.3179 10.6446 31.6992 19.5541 37.6722 19.5779C37.6722 19.5779 39.1991 27.3181 31.3448 27.3181H26.7906V25.4488C26.7906 25.4488 23.9723 24.5702 21.3995 21.9821C21.3995 21.9821 20.9815 21.519 20.9815 22.1242V31.3547C20.9815 31.3547 20.9536 31.5339 21.578 31.5339C22.2025 31.5339 27.0905 31.2944 35.4359 31.5339C35.4359 31.5339 42.1176 30.0966 42.1176 23.4839V16.6462C42.1176 16.6462 42.1355 16.3429 41.4633 16.2951C40.7904 16.2474 30.5359 13.4198 21.2635 5.36907C21.2635 5.36907 20.3179 4.90987 20.3179 5.55289Z" fill="white"/>
<path d="M64.4734 6.41104C58.0359 9.27179 46.6944 9.10656 46.6944 9.10656C46.6937 9.10656 35.3522 9.27179 28.9154 6.41104C28.9154 6.41104 28.2087 6.09982 28.4243 6.66254C28.64 7.22527 34.3549 12.5725 38.7956 14.4093C38.7956 14.4093 38.9629 14.5135 39.4665 13.9621C39.9695 13.4113 41.8787 12.3568 42.829 12.5964C42.829 12.5964 43.1641 12.6521 43.1568 13.6993C43.1488 14.7451 44.267 28.8179 44.267 28.8179C44.267 28.8179 44.4422 28.9945 44.6618 28.8179C44.8815 28.6421 45.2093 24.4296 46.6944 24.4296C48.1808 24.4296 48.5073 28.6421 48.727 28.8179C48.9466 28.9945 49.1231 28.8179 49.1231 28.8179C49.1231 28.8179 50.2406 14.7451 50.2327 13.6993C50.2247 12.6521 50.5605 12.5964 50.5605 12.5964C51.5114 12.3568 53.4193 13.4113 53.9229 13.9621C54.4253 14.5135 54.5938 14.4093 54.5938 14.4093C59.0346 12.5725 64.7495 7.22527 64.9651 6.66254C65.1801 6.09982 64.4734 6.41104 64.4734 6.41104Z" fill="white"/>
<path d="M48.5272 30.7683C48.2153 25.0893 46.6943 24.8364 46.6943 24.8364C46.6943 24.8364 45.2689 25.0893 44.957 30.7683C44.957 30.7683 45.5198 38.6106 46.6943 38.6106C47.8682 38.6106 48.5272 30.7683 48.5272 30.7683Z" fill="white"/>
<path d="M71.737 5.35857C65.1309 11.1617 58.0212 14.2507 54.317 15.5414C50.9838 16.5667 51.1258 19.0936 51.1258 19.0936V23.4734C51.1258 30.0867 57.7299 31.5241 57.7299 31.5241C65.9777 31.2845 71.4251 31.5241 71.4251 31.5241C71.4251 31.5241 72.6713 31.6369 72.6713 31.3449V25.4389V22.113V10.6335V9.10324V5.59349V5.54239C72.672 4.89937 71.737 5.35857 71.737 5.35857ZM61.7738 27.3069C54.0111 27.3069 55.5208 19.5674 55.5208 19.5674C58.8188 19.5535 63.7852 16.7664 67.5265 14.3091V21.5231C67.5265 27.4974 61.7738 27.3069 61.7738 27.3069Z" fill="white"/>
<path d="M93.2575 0.264592C92.6603 0.62426 89.6681 2.85261 76.6112 4.79362C76.6112 4.79362 75.8601 4.93828 75.8773 5.45257C75.8773 5.45257 76.1136 8.33987 75.0166 29.6645L74.9171 31.0553C74.9171 31.0553 74.8441 31.5557 75.4075 31.5438C75.9722 31.5331 80.0998 31.5331 80.0998 31.5331C80.0998 31.5331 80.5981 31.6055 80.399 30.8271C80.1993 30.048 80.4986 24.801 80.847 21.3742C80.847 21.3742 80.8224 21.051 81.4329 21.0749C82.0441 21.0994 88.1233 21.0749 88.1233 21.0749C88.1233 21.0749 93.0578 21.1831 93.4553 15.1444L93.864 0.503486C93.864 0.504149 93.8554 -0.0944123 93.2575 0.264592ZM88.5387 7.86075C88.5387 7.86075 88.3051 12.3334 88.1067 14.4098C87.9076 16.4868 83.3228 16.3594 82.0939 16.3594C80.8636 16.3594 81.0633 16.1099 81.0633 16.1099C81.196 11.5158 81.7687 8.45998 81.7687 8.45998C81.9266 8.3246 82.2253 8.3246 82.2253 8.3246C82.2253 8.3246 86.4119 7.71742 87.5075 7.63778C88.6044 7.55683 88.5387 7.86075 88.5387 7.86075Z" fill="white"/>
<path d="M1.9795 40.1772V40.8966H0.719999V41.0771H1.79967L1.61917 41.7964H0.719999V41.9763H1.9795V42.6956H0V40.1772H1.9795Z" fill="white"/>
<path d="M4.0738 40.1772L4.43346 40.5363V40.8966H3.17396V41.0771H4.0738L4.43346 41.4374V42.3366L4.0738 42.6956H2.8143L2.45396 42.3366V41.9763H3.71347V41.7964H2.8143L2.45396 41.4374V40.5363L2.8143 40.1772H4.0738Z" fill="white"/>
<path d="M6.52711 40.1772L6.88678 40.5363V41.0771L6.16744 41.2569V40.8966H5.62728V41.9763H6.16744V41.6159L6.88678 41.7964V42.3366L6.52711 42.6956H5.26761L4.90794 42.3366V40.5363L5.26761 40.1772H6.52711Z" fill="white"/>
<path d="M8.98108 40.1772L9.34075 40.5363V42.3366L8.98108 42.6956H7.72158L7.36191 42.3366V40.5363L7.72158 40.1772H8.98108ZM8.62141 40.8966H8.08191V41.9763H8.62141V40.8966Z" fill="white"/>
<path d="M9.81523 42.6956V40.1772H10.5352V41.9763H11.0754V41.4374L11.7947 41.6159V42.6956H9.81523Z" fill="white"/>
<path d="M13.889 40.1772L14.2487 40.5363V42.6956H13.5293V42.1561H12.9898V42.6956H12.2705V40.5363L12.6302 40.1772H13.889ZM13.5293 40.8966H12.9898V41.4367H13.5293V40.8966Z" fill="white"/>
<path d="M17.177 40.1772L17.5367 40.5363V42.3366L17.177 42.6956H15.5578V40.1772H17.177ZM16.8173 40.8966H16.2778V41.9763H16.8173V40.8966Z" fill="white"/>
<path d="M19.9906 40.1772V40.8966H18.7311V41.0771H19.8108L19.631 41.7964H18.7311V41.9763H19.9906V42.6956H18.0118V40.1772H19.9906Z" fill="white"/>
<path d="M22.9191 40.1772L23.2788 40.5363V42.3366L22.9191 42.6956H21.3V40.1772H22.9191ZM22.5595 40.8966H22.02V41.9763H22.5595V40.8966Z" fill="white"/>
<path d="M25.3731 40.1772L25.7328 40.5363V42.3366L25.3731 42.6956H24.1136L23.7539 42.3366V40.5363L24.1136 40.1772H25.3731ZM25.0134 40.8966H24.4739V41.9763H25.0134V40.8966Z" fill="white"/>
<path d="M27.4668 41.9763V40.1772H28.1868V42.3366L27.8264 42.6956H26.5676L26.2079 42.3366V40.1772H26.9273V41.9763H27.4668Z" fill="white"/>
<path d="M30.4609 40.1772V40.8966H29.9207V42.6956H29.2014V40.8966H28.6612V40.1772H30.4609Z" fill="white"/>
<path d="M31.6547 42.1568V42.6963H30.9354V40.178H32.5545L32.9142 40.537V41.6166L32.7344 41.7965L32.9142 41.9763V42.6957H32.1949V42.1562H31.6547V42.1568ZM31.6547 41.4375H32.1942V40.8973H31.6547V41.4375Z" fill="white"/>
<path d="M34.1087 40.1772H33.3893V42.6956H34.1087V40.1772Z" fill="white"/>
<path d="M35.3032 41.4374V42.6956H34.5838V40.1772H35.3032L35.8433 41.4374V40.1772H36.5627V42.6956H35.8433L35.3032 41.4374Z" fill="white"/>
<path d="M38.657 40.1772L39.0167 40.5363V42.6956H38.2967V42.1561H37.7572V42.6956H37.0372V40.5363L37.3968 40.1772H38.657ZM38.2967 40.8966H37.7572V41.4367H38.2967V40.8966Z" fill="white"/>
<path d="M41.1109 40.1772L41.4706 40.5363V40.8966H40.2111V41.0771H41.1109L41.4706 41.4374V42.3366L41.1109 42.6956H39.8514L39.4918 42.3366V41.9763H40.7513V41.7964H39.8514L39.4918 41.4374V40.5363L39.8514 40.1772H41.1109Z" fill="white"/>
<path d="M44.399 40.1772L44.7586 40.5363V42.3366L44.399 42.6956H42.7798V40.1772H44.399ZM44.0393 40.8966H43.4998V41.9763H44.0393V40.8966Z" fill="white"/>
<path d="M47.2126 40.1772V40.8966H45.9531V41.0771H47.0328L46.8529 41.7964H45.9531V41.9763H47.2126V42.6956H45.2331V40.1772H47.2126Z" fill="white"/>
<path d="M50.3216 40.1772V40.8966H49.7814V42.6956H49.0614V40.8966H48.5226V40.1772H50.3216Z" fill="white"/>
<path d="M52.7749 40.1772V40.8966H51.5154V41.0771H52.5957L52.4152 41.7964H51.5154V41.9763H52.7749V42.6956H50.796V40.1772H52.7749Z" fill="white"/>
<path d="M54.8685 40.1772L55.2288 40.5363V41.0771L54.5095 41.2569V40.8966H53.9693V41.9763H54.5095V41.6159L55.2288 41.7964V42.3366L54.8685 42.6956H53.6097L53.25 42.3366V40.5363L53.6097 40.1772H54.8685Z" fill="white"/>
<path d="M56.4227 41.4374V42.6956H55.7033V40.1772H56.4227L56.9635 41.4374V40.1772H57.6828V42.6956H56.9635L56.4227 41.4374Z" fill="white"/>
<path d="M58.8779 40.1772H58.1573V42.6956H58.8779V40.1772Z" fill="white"/>
<path d="M60.971 40.1772L61.3313 40.5363V41.0771L60.6113 41.2569V40.8966H60.0711V41.9763H60.6113V41.6159L61.3313 41.7964V42.3366L60.971 42.6956H59.7115L59.3511 42.3366V40.5363L59.7115 40.1772H60.971Z" fill="white"/>
<path d="M63.4249 40.1772L63.7846 40.5363V42.6956H63.0653V42.1561H62.5251V42.6956H61.8058V40.5363L62.1654 40.1772H63.4249ZM63.0653 40.8966H62.5251V41.4367H63.0653V40.8966Z" fill="white"/>
<path d="M65.8789 40.1772L66.2379 40.5363V40.8966H64.9791V41.0771H65.8789L66.2379 41.4374V42.3366L65.8789 42.6956H64.6194L64.2597 42.3366V41.9763H65.5192V41.7964H64.6194L64.2597 41.4374V40.5363L64.6194 40.1772H65.8789Z" fill="white"/>
<path d="M69.1671 40.1772L69.5267 40.5363V42.3366L69.1671 42.6956H67.9075L67.5479 42.3366V40.5363L67.9075 40.1772H69.1671ZM68.8067 40.8966H68.2672V41.9763H68.8067V40.8966Z" fill="white"/>
<path d="M71.621 40.1772L71.9813 40.5362V41.4367L71.621 41.7957H70.7218V42.6949H70.0025V40.1765H71.621V40.1772ZM71.2613 40.8965H70.7218V41.0763H71.2613V40.8965Z" fill="white"/>
<path d="M74.4345 40.1772V40.8966H73.1744V41.0771H74.2547L74.0742 41.7964H73.1744V41.9763H74.4345V42.6956H72.455V40.1772H74.4345Z" fill="white"/>
<path d="M75.6291 42.1568V42.6963H74.9098V40.178H76.5283L76.888 40.537V41.6166L76.7081 41.7965L76.888 41.9763V42.6957H76.1693V42.1562H75.6291V42.1568ZM75.6291 41.4375H76.1686V40.8973H75.6291V41.4375Z" fill="white"/>
<path d="M78.9828 40.1772L79.3425 40.5363V42.6956H78.6225V42.1561H78.083V42.6956H77.363V40.5363L77.7233 40.1772H78.9828ZM78.6225 40.8966H78.083V41.4367H78.6225V40.8966Z" fill="white"/>
<path d="M81.4369 40.1772L81.7966 40.5363V41.0771L81.0766 41.2569V40.8966H80.5371V41.9763H81.0766V41.6159L81.7966 41.7964V42.3366L81.4369 42.6956H80.1767L79.8171 42.3366V40.5363L80.1767 40.1772H81.4369Z" fill="white"/>
<path d="M82.9903 40.1772H82.2703V42.6956H82.9903V40.1772Z" fill="white"/>
<path d="M85.0846 40.1772L85.4442 40.5363V42.3366L85.0846 42.6956H83.8251L83.4654 42.3366V40.5363L83.8251 40.1772H85.0846ZM84.7249 40.8966H84.1854V41.9763H84.7249V40.8966Z" fill="white"/>
<path d="M86.6387 41.4374V42.6956H85.9194V40.1772H86.6387L87.1789 41.4374V40.1772H87.8975V42.6956H87.1789L86.6387 41.4374Z" fill="white"/>
<path d="M89.9925 40.1772L90.3522 40.5363V42.6956H89.6322V42.1561H89.0927V42.6956H88.3734V40.5363L88.733 40.1772H89.9925ZM89.6322 40.8966H89.0927V41.4367H89.6322V40.8966Z" fill="white"/>
<path d="M91.5467 40.1772H90.8267V42.6956H91.5467V40.1772Z" fill="white"/>
<path d="M93.6403 40.1772L94 40.5363V40.8966H92.7412V41.0771H93.6403L94 41.4374V42.3366L93.6403 42.6956H92.3808L92.0211 42.3366V41.9763H93.28V41.7964H92.3808L92.0211 41.4374V40.5363L92.3808 40.1772H93.6403Z" fill="white"/>
<path d="M51.6043 39.6836L51.9938 39.0459H52.4716L52.1047 39.6876L51.6043 39.6836Z" fill="white"/>
</svg>
