<svg width="113" height="46" viewBox="0 0 113 46" fill="none" xmlns="http://www.w3.org/2000/svg">
    <path d="M36.7342 27.5137C29.3469 27.3424 29.1716 19.6136 29.1716 19.6136C29.1716 19.6136 29.5943 19.5178 31.1499 19.3328C32.7056 19.1481 33.5722 19.1996 33.5722 19.1996C33.5722 21.3502 34.2134 23.3153 36.8221 23.8671C39.4306 24.4189 41.0525 22.575 41.1595 22.4647C41.1677 22.4676 41.1748 22.4699 41.183 22.4729C39.3555 21.8117 36.791 20.6667 33.2539 18.6937C33.2539 18.6937 28.3167 18.7285 24.8313 20.2416C24.8313 20.2416 26.0808 29.2909 35.452 29.5478C35.452 29.5478 42.9818 30.1187 45.2505 23.3247C41.6884 27.6922 36.7342 27.5137 36.7342 27.5137Z" fill="#101946"/>
    <path d="M42.5808 22.9303C42.6398 22.9475 42.6985 22.9642 42.7553 22.98C42.6985 22.9642 42.6396 22.9474 42.5808 22.9303Z" fill="#101946"/>
    <path d="M45.2399 23.3269C45.2393 23.327 45.2379 23.3273 45.2371 23.3275C45.2381 23.3273 45.2388 23.3273 45.2399 23.3269Z" fill="#101946"/>
    <path d="M45.2028 23.3335C45.2021 23.3336 45.2015 23.3339 45.2009 23.3339C45.2015 23.3339 45.2021 23.3336 45.2028 23.3335Z" fill="#101946"/>
    <path d="M42.1502 22.8005C42.2143 22.8207 42.2759 22.8393 42.3377 22.8581C42.2759 22.8394 42.2143 22.8206 42.1502 22.8005Z" fill="#101946"/>
    <path d="M41.6892 22.6504C41.7396 22.6676 41.7861 22.6823 41.8352 22.6986C41.7862 22.6823 41.7394 22.6676 41.6892 22.6504Z" fill="#101946"/>
    <path d="M66.7597 23.3269C66.7607 23.3273 66.7612 23.3273 66.7623 23.3275C66.7615 23.3273 66.7602 23.327 66.7597 23.3269Z" fill="#101946"/>
    <path d="M68.0944 23.2238C68.0697 23.2288 68.0458 23.2337 68.0219 23.2384C68.0458 23.2337 68.0696 23.2288 68.0944 23.2238Z" fill="#101946"/>
    <path d="M67.823 23.2758C67.8079 23.2784 67.7922 23.2813 67.7773 23.2836C67.7922 23.2813 67.8079 23.2784 67.823 23.2758Z" fill="#101946"/>
    <path d="M66.7935 23.3335C66.7943 23.3336 66.7945 23.3339 66.7954 23.3339C66.7948 23.3339 66.794 23.3336 66.7935 23.3335Z" fill="#101946"/>
    <path d="M77.7104 18.6936C74.4787 20.6667 72.1359 21.8117 70.4662 22.4729C70.4739 22.4699 70.4801 22.4676 70.4877 22.4647C70.5854 22.5751 72.0672 24.4189 74.4505 23.8671C76.8337 23.3153 77.4196 21.3503 77.4196 19.1996C77.4196 19.1996 78.2113 19.1481 79.6326 19.3328C81.0539 19.5177 81.4401 19.6136 81.4401 19.6136C81.4401 19.6136 81.2801 27.3424 74.5306 27.5137C74.5306 27.5137 70.0045 27.6922 66.75 23.3247C68.8227 30.1188 75.7022 29.5478 75.7022 29.5478C84.2641 29.2909 85.4057 20.2416 85.4057 20.2416C82.2211 18.7285 77.7104 18.6936 77.7104 18.6936Z" fill="#101946"/>
    <path d="M69.5826 22.8005C69.5241 22.8207 69.4675 22.8396 69.411 22.8585C69.4675 22.8394 69.5239 22.8207 69.5826 22.8005Z" fill="#101946"/>
    <path d="M68.3841 23.1582C68.36 23.164 68.3379 23.1689 68.3143 23.1744C68.3379 23.1689 68.36 23.1639 68.3841 23.1582Z" fill="#101946"/>
    <path d="M70.0037 22.6504C69.9577 22.6676 69.9148 22.6823 69.8698 22.6986C69.9148 22.6823 69.9575 22.6676 70.0037 22.6504Z" fill="#101946"/>
    <path d="M69.1891 22.9303C69.1352 22.9475 69.0816 22.9642 69.0298 22.98C69.0816 22.9642 69.1352 22.9474 69.1891 22.9303Z" fill="#101946"/>
    <path d="M68.8025 23.0465C68.7653 23.0573 68.7262 23.0689 68.6901 23.0788C68.7262 23.0689 68.7653 23.0573 68.8025 23.0465Z" fill="#101946"/>
    <path d="M21.0439 6.16796C21.0439 6.16796 4.51931 2.05721 0.474826 0.0591272C0.474826 0.0591272 -0.218496 -0.302563 0.0704402 0.763183C0.359251 1.82905 1.74602 21.6405 2.49713 36.3134C2.49713 36.3134 2.54526 36.894 2.50678 37.0842C2.4683 37.2745 2.82455 37.6362 3.39264 37.5697C3.96086 37.5029 17.5579 37.2242 21.3136 37.5776V31.7174H8.56378L8.27497 24.2667C8.27497 24.2667 14.8617 24.3427 16.3446 24.6853L18.5402 18.291H7.98604L7.5527 9.25124L21.0728 12.4106L21.0439 6.16796Z" fill="#101946"/>
    <path d="M24.327 6.61511V6.67704V12.6813C24.327 12.6813 38.0496 23.2961 45.2505 23.3245C45.2505 23.3245 47.092 32.5451 37.6221 32.5451H32.1308V30.3184C32.1308 30.3184 28.7332 29.2717 25.6313 26.1887C25.6313 26.1887 25.1272 25.6368 25.1272 26.3575V37.3551C25.1272 37.3551 25.0943 37.5693 25.8464 37.5693C26.5985 37.5693 32.4926 37.2838 42.5543 37.5693C42.5543 37.5693 50.6102 35.8565 50.6102 27.9776V19.832C50.6102 19.832 50.6321 19.4704 49.8211 19.4133C49.01 19.3562 36.6466 15.9879 25.4669 6.39599C25.4669 6.39623 24.327 5.84912 24.327 6.61511Z" fill="#101946"/>
    <path d="M77.5638 7.63815C69.8027 11.0462 56.1286 10.8498 56.1282 10.8498C56.1276 10.8498 42.4536 11.0462 34.6924 7.63815C34.6924 7.63815 33.8402 7.26704 34.1002 7.9379C34.3602 8.60876 41.2503 14.9795 46.6045 17.1682C46.6045 17.1682 46.8067 17.2918 47.4132 16.6352C48.0199 15.9786 50.3214 14.7226 51.4674 15.0079C51.4674 15.0079 51.8719 15.0746 51.8622 16.3212C51.8526 17.5676 53.2007 34.3342 53.2007 34.3342C53.2007 34.3342 53.4126 34.5435 53.6773 34.3342C53.9422 34.1248 54.337 29.1053 56.1282 29.1053C57.9193 29.1053 58.3141 34.1247 58.5788 34.3342C58.8437 34.5435 59.0555 34.3342 59.0555 34.3342C59.0555 34.3342 60.4037 17.5678 60.394 16.3212C60.3845 15.0747 60.7889 15.0079 60.7889 15.0079C61.9349 14.7224 64.2363 15.9786 64.843 16.6352C65.4496 17.2918 65.6519 17.1682 65.6519 17.1682C71.0061 14.9795 77.8961 8.60876 78.1562 7.9379C78.416 7.26704 77.5638 7.63815 77.5638 7.63815Z" fill="#101946"/>
    <path d="M58.3382 36.6558C57.9626 29.8902 56.1282 29.589 56.1282 29.589C56.1282 29.589 54.4092 29.8902 54.0337 36.6558C54.0337 36.6558 54.7126 46 56.1282 46C57.5437 46.0002 58.3382 36.6558 58.3382 36.6558Z" fill="#101946"/>
    <path d="M25.4971 20.4795C25.4971 20.4795 26.4999 20.156 27.3219 19.9704C28.144 19.7849 28.6017 19.7374 28.6017 19.7374C28.6017 19.7374 28.4763 27.4823 36.6356 27.9778C36.6356 27.9778 40.2197 28.0064 43.0475 25.9511C43.0475 25.9511 40.9577 29.2309 35.0409 29.0624C29.1241 28.894 26.056 23.515 25.4971 20.4795Z" fill="#CCAA3C"/>
    <path d="M86.3217 6.38375C78.3573 13.2977 69.7852 16.9782 65.3194 18.5156C61.3005 19.7372 61.4726 22.7473 61.4726 22.7473V27.9648C61.4726 35.8438 69.4344 37.5567 69.4344 37.5567C79.3783 37.2712 85.9468 37.5567 85.9468 37.5567C85.9468 37.5567 87.4484 37.6911 87.4484 37.3425V30.3069V26.345V12.6687V10.8453V6.66431V6.60237C87.4484 5.83651 86.3217 6.38375 86.3217 6.38375ZM74.3089 32.5324C64.9498 32.5324 66.7697 23.3118 66.7697 23.3118C70.7462 23.2958 76.7344 19.9751 81.2452 17.0474V25.6421C81.2452 32.7597 74.3089 32.5324 74.3089 32.5324Z" fill="#101946"/>
    <path d="M84.7972 20.4795C84.7972 20.4795 83.881 20.156 83.1299 19.9704C82.3789 19.7849 81.9608 19.7374 81.9608 19.7374C81.9608 19.7374 82.0753 27.4823 74.6206 27.9778C74.6206 27.9778 71.346 28.0064 68.7627 25.9511C68.7627 25.9511 70.6718 29.2309 76.0776 29.0624C81.4834 28.894 84.2865 23.515 84.7972 20.4795Z" fill="#CCAA3C"/>
    <path d="M112.268 0.315773C111.547 0.743978 107.94 3.3988 92.1985 5.71114C92.1985 5.71114 91.2923 5.88319 91.3122 6.4962C91.3122 6.4962 91.5977 9.93609 90.2757 35.3428L90.1557 36.9984C90.1557 36.9984 90.0664 37.5948 90.747 37.582C91.4274 37.5693 96.4043 37.5693 96.4043 37.5693C96.4043 37.5693 97.0051 37.655 96.7648 36.7272C96.5244 35.7994 96.8849 29.5476 97.3054 25.4655C97.3054 25.4655 97.2755 25.0801 98.0115 25.1087C98.7475 25.1371 106.078 25.1087 106.078 25.1087C106.078 25.1087 112.026 25.2372 112.506 18.0433L113 0.601284C113 0.601284 112.989 -0.112433 112.268 0.315773ZM106.578 9.36519C106.578 9.36519 106.298 14.6939 106.058 17.1679C105.817 19.642 100.29 19.4896 98.8075 19.4896C97.3256 19.4896 97.566 19.1929 97.566 19.1929C97.7261 13.7195 98.4171 10.0788 98.4171 10.0788C98.6075 9.91689 98.968 9.91689 98.968 9.91689C98.968 9.91689 104.015 9.19376 105.337 9.09876C106.658 9.0035 106.578 9.36519 106.578 9.36519Z" fill="#101946"/>
</svg>
