<?xml version="1.0" encoding="utf-8"?>
<!-- Generator: Adobe Illustrator 24.1.2, SVG Export Plug-In . SVG Version: 6.00 Build 0)  -->
<svg version="1.1" id="Camada_1" xmlns="http://www.w3.org/2000/svg" xmlns:xlink="http://www.w3.org/1999/xlink" x="0px" y="0px"
	 viewBox="0 0 92 122" style="enable-background:new 0 0 92 122;" xml:space="preserve">
<style type="text/css">
	.st0{fill:#D4AF37;}
</style>
<path class="st0" d="M10.3,22.2c-0.2-0.1-0.3-0.2-0.5-0.3c-0.1,0.2-0.2,0.3-0.4,0.6c0.2,0.1,0.3,0.2,0.5,0.3
	C10.1,22.6,10.1,22.5,10.3,22.2z"/>
<path class="st0" d="M15.1,17c-0.3-0.3-0.5-0.5-0.9-0.8c-0.2,0.2-0.3,0.3-0.5,0.5c0.4,0.3,0.5,0.5,0.9,0.8
	C14.8,17.3,14.9,17.2,15.1,17z"/>
<path class="st0" d="M59.5,4.5c-0.3-0.1-0.4-0.1-0.7-0.2c-0.1,0.5-0.2,0.7-0.3,1.1c0.3,0.1,0.4,0.1,0.6,0.2
	C59.3,5.2,59.4,5,59.5,4.5z"/>
<path class="st0" d="M5,36.5c-0.5-0.1-0.7-0.2-1.2-0.3c-0.1,0.3-0.1,0.4-0.1,0.6C4.1,37,4.4,37,4.8,37.1C4.9,36.9,4.9,36.8,5,36.5z"
	/>
<path class="st0" d="M6.1,28.9C6.4,29,6.5,29,6.7,29.1c0.1-0.2,0.2-0.4,0.3-0.6l-0.5-0.2C6.3,28.5,6.2,28.6,6.1,28.9z"/>
<path class="st0" d="M40.7,4c-0.1-0.5-0.1-0.7-0.2-1.2c-0.3,0-0.4,0.1-0.7,0.1c0.1,0.5,0.1,0.7,0.2,1.2C40.3,4.1,40.4,4.1,40.7,4z"
	/>
<path class="st0" d="M34,4.8c-0.1-0.2-0.1-0.3-0.2-0.6c-0.3,0.1-0.4,0.1-0.6,0.2c0.1,0.2,0.1,0.3,0.2,0.6C33.6,4.9,33.8,4.9,34,4.8z
	"/>
<path class="st0" d="M43.5,2.8c0-0.1,0-0.1,0-0.2c-0.3,0-0.4,0-0.7,0c0,0.1,0,0.1,0,0.2C43.1,2.8,43.2,2.8,43.5,2.8z"/>
<path class="st0" d="M65.1,6.8c-0.3-0.1-0.4-0.2-0.6-0.3c-0.1,0.2-0.1,0.3-0.2,0.5c0.2,0.1,0.4,0.2,0.6,0.3C65,7.1,65,7,65.1,6.8z"
	/>
<path class="st0" d="M49.4,2.6c-0.3,0-0.4,0-0.7,0c0,0.2,0,0.4,0,0.6c0.3,0,0.4,0,0.7,0C49.3,3,49.4,2.8,49.4,2.6z"/>
<path class="st0" d="M52.3,2.9c-0.3,0-0.4-0.1-0.7-0.1c0,0.2,0,0.4-0.1,0.6c0.3,0,0.4,0.1,0.7,0.1C52.3,3.3,52.3,3.1,52.3,2.9z"/>
<path class="st0" d="M3.2,39.7c0.5,0.1,0.7,0.1,1.2,0.2c0-0.3,0.1-0.4,0.1-0.6c-0.5-0.1-0.7-0.1-1.2-0.2C3.2,39.3,3.2,39.5,3.2,39.7
	z"/>
<path class="st0" d="M3.5,50.1c0-0.3,0-0.4-0.1-0.6c-0.2,0-0.4,0-0.6,0c0,0.3,0,0.4,0.1,0.7C3.1,50.1,3.3,50.1,3.5,50.1z"/>
<path class="st0" d="M5,55.6c-0.1-0.2-0.1-0.4-0.1-0.6c-0.5,0.1-0.7,0.1-1.2,0.2c0.1,0.3,0.1,0.4,0.1,0.6C4.3,55.7,4.5,55.7,5,55.6z
	"/>
<path class="st0" d="M58.2,1.6C33.7-5.1,8.4,9.3,1.6,33.8c-6.7,24.5,7.7,49.8,32.2,56.5c24.5,6.7,49.8-7.7,56.5-32.2
	C97.1,33.7,82.7,8.4,58.2,1.6z M68.5,7.6C69.1,8,69.4,8.1,70,8.5c0.1,0.2,0.1,0.4,0.2,0.6c-0.1,0.1-0.1,0.2-0.2,0.3
	c-0.6-0.4-0.8-0.5-1.4-0.9c0,0.1-0.1,0.1-0.1,0.2c0.4,0.2,0.6,0.4,1,0.6c0.1,0.2,0.1,0.4,0.2,0.6c-0.2,0.3-0.3,0.5-0.5,0.8
	c-0.2,0-0.4,0.1-0.6,0.1c-0.5-0.3-0.8-0.5-1.4-0.8c-0.1-0.2-0.1-0.3-0.2-0.6c0.1-0.1,0.1-0.2,0.2-0.3c0.6,0.3,0.8,0.5,1.4,0.8
	c0-0.1,0.1-0.1,0.1-0.2c-0.4-0.2-0.6-0.4-1-0.6c-0.1-0.2-0.1-0.3-0.2-0.6c0.2-0.3,0.3-0.5,0.5-0.9C68.2,7.7,68.3,7.7,68.5,7.6z
	 M67.6,7.1c-0.5,1-0.8,1.5-1.3,2.4c-0.3-0.2-0.5-0.3-0.8-0.4c0.5-1,0.8-1.5,1.3-2.5C67.1,6.9,67.3,7,67.6,7.1z M64.4,5.5
	C65,5.8,65.3,6,65.9,6.2c0.1,0.2,0.1,0.3,0.2,0.6c-0.4,0.9-0.6,1.3-1.1,2.1c-0.3-0.2-0.5-0.2-0.8-0.4c0.1-0.2,0.2-0.3,0.3-0.5
	c-0.2-0.1-0.4-0.2-0.6-0.3c-0.1,0.2-0.1,0.3-0.2,0.5c-0.3-0.1-0.5-0.2-0.8-0.4c0.4-0.9,0.6-1.3,0.9-2.2C64.1,5.7,64.2,5.6,64.4,5.5z
	 M62,4.6c0.1,0.6,0.1,0.9,0.1,1.5c0.2-0.5,0.3-0.8,0.5-1.3C63,4.9,63.2,5,63.5,5.2c-0.4,1-0.6,1.5-1.1,2.6c-0.3-0.1-0.5-0.2-0.8-0.3
	c0-0.6-0.1-0.9-0.1-1.5c-0.2,0.5-0.3,0.8-0.5,1.3C60.7,7,60.5,7,60.2,6.9c0.4-1.1,0.6-1.6,0.9-2.6C61.5,4.4,61.6,4.4,62,4.6z
	 M58.6,3.4c0.6,0.2,0.9,0.3,1.5,0.5c0.1,0.2,0.2,0.3,0.3,0.5c-0.3,0.8-0.4,1.1-0.6,1.9c-0.2,0.1-0.3,0.1-0.5,0.2
	c-0.6-0.2-0.9-0.3-1.5-0.4c-0.1-0.2-0.2-0.3-0.3-0.5c0.2-0.8,0.3-1.1,0.5-1.9C58.3,3.6,58.4,3.5,58.6,3.4z M57.7,3.2
	c-0.3,1.1-0.4,1.6-0.7,2.7c-0.3-0.1-0.5-0.1-0.8-0.2C56.4,4.6,56.5,4,56.8,3C57.2,3,57.3,3.1,57.7,3.2z M53.8,2.7
	c0.2-0.1,0.3-0.2,0.5-0.3c0.6,0.1,0.9,0.2,1.6,0.3C56,2.9,56.1,3,56.2,3.2c-0.1,0.2-0.1,0.3-0.1,0.6c-0.4,0-0.6,0-0.9,0
	c0-0.2,0-0.2,0.1-0.4c-0.3-0.1-0.4-0.1-0.7-0.1c-0.1,0.5-0.1,0.7-0.2,1.2c0.3,0.1,0.4,0.1,0.6,0.1c0-0.2,0-0.2,0.1-0.4
	c0.3,0.2,0.5,0.2,0.8,0.4c-0.1,0.2-0.1,0.3-0.1,0.6c-0.2,0.1-0.3,0.2-0.5,0.3c-0.6-0.1-0.9-0.2-1.5-0.3c-0.1-0.2-0.2-0.3-0.4-0.5
	C53.6,3.9,53.6,3.5,53.8,2.7z M50.8,2.3C51,2.2,51.1,2.1,51.3,2c0.6,0.1,1,0.1,1.6,0.2c0.2,0.2,0.2,0.3,0.4,0.5
	C53.1,3.6,53,4.1,52.9,5C52.5,5,52.4,4.9,52,4.9c0-0.2,0-0.4,0.1-0.6c-0.3,0-0.4-0.1-0.6-0.1c0,0.2,0,0.4-0.1,0.6
	c-0.3,0-0.5-0.1-0.9-0.1C50.6,3.7,50.7,3.3,50.8,2.3z M47.8,1.7c0.8,0,1.2,0.1,2,0.1C50,2,50.1,2.1,50.3,2.3c0,0.5-0.1,0.7-0.1,1.2
	C50.1,3.5,50,3.6,50,3.6c0.1,0.1,0.1,0.1,0.2,0.2c0,0.3,0,0.5-0.1,0.8c-0.3,0-0.5,0-0.9-0.1c0-0.2,0-0.4,0-0.6c-0.3,0-0.4,0-0.6,0
	c0,0.2,0,0.4,0,0.6c-0.3,0-0.5,0-0.9,0C47.8,3.4,47.8,2.8,47.8,1.7z M47.3,1.7l0,0.8c-0.6,0-0.9,0-1.6,0c0,0.1,0,0.1,0,0.2
	c0.5,0,0.8,0,1.3,0C47,3,46.9,3.2,46.8,3.5c-0.4,0-0.7,0-1.1,0c0,0.1,0,0.1,0,0.2c0.6,0,0.9,0,1.5,0c0,0.3,0,0.5,0,0.8
	c-0.9,0-1.4,0-2.3,0c0-1.1-0.1-1.7-0.1-2.8C45.8,1.7,46.3,1.7,47.3,1.7z M43.9,1.8c0.2,0.1,0.3,0.2,0.5,0.4c0,0.4,0,0.6,0,1
	c-0.2,0.2-0.3,0.2-0.4,0.4c-0.4,0-0.7,0-1.1,0.1c0,0.4,0,0.6,0.1,1c-0.3,0-0.5,0-0.8,0.1C42,3.6,42,3,41.8,1.9
	C42.7,1.8,43.1,1.8,43.9,1.8z M39.3,2.2c0.6-0.1,0.9-0.1,1.6-0.2c0.2,0.1,0.3,0.2,0.5,0.3c0.1,0.8,0.1,1.2,0.2,2
	c-0.2,0.2-0.2,0.3-0.4,0.4c-0.6,0.1-0.9,0.1-1.5,0.2c-0.2-0.1-0.3-0.2-0.5-0.3c-0.1-0.8-0.2-1.2-0.3-2C39.1,2.5,39.2,2.4,39.3,2.2z
	 M35.4,3c0.6-0.2,0.9-0.2,1.5-0.4c0.2,0.1,0.3,0.2,0.5,0.3c0,0.2,0,0.2,0.1,0.4c-0.6,0.1-0.9,0.2-1.5,0.3c0,0.1,0,0.1,0,0.2
	c0.4-0.1,0.6-0.1,1.1-0.2c0.2,0.1,0.3,0.2,0.5,0.3c0.1,0.4,0.1,0.6,0.2,1c-0.1,0.2-0.2,0.3-0.3,0.5c-0.6,0.1-0.9,0.2-1.5,0.3
	c-0.2-0.1-0.3-0.2-0.5-0.3c0-0.2-0.1-0.2-0.1-0.4c0.6-0.2,0.9-0.2,1.5-0.4c0-0.1,0-0.1,0-0.2c-0.4,0.1-0.6,0.1-1.1,0.2
	c-0.2-0.1-0.3-0.2-0.5-0.3c-0.1-0.4-0.1-0.6-0.2-1C35.2,3.3,35.3,3.2,35.4,3z M32.6,3.8c0.6-0.2,0.9-0.3,1.5-0.5
	c0.2,0.1,0.3,0.2,0.5,0.3C34.9,4.5,35,5,35.2,5.9c-0.3,0.1-0.5,0.1-0.8,0.2c-0.1-0.2-0.1-0.3-0.2-0.6c-0.2,0.1-0.4,0.1-0.6,0.2
	c0.1,0.2,0.1,0.3,0.2,0.6c-0.3,0.1-0.5,0.2-0.8,0.3c-0.3-0.9-0.4-1.4-0.7-2.3C32.4,4.1,32.4,4,32.6,3.8z M29.7,4.8
	c0.6-0.2,0.9-0.3,1.5-0.6c0.2,0.1,0.3,0.1,0.6,0.2c0.1,0.2,0.1,0.3,0.2,0.6c-0.3,0.2-0.5,0.3-0.8,0.5c-0.1-0.2-0.1-0.2-0.1-0.4
	c-0.3,0.1-0.4,0.1-0.6,0.2c0.2,0.4,0.3,0.7,0.4,1.1c0.2-0.1,0.4-0.1,0.6-0.2c-0.1-0.1-0.1-0.2-0.1-0.4c0.4,0,0.5-0.1,0.9-0.1
	c0.1,0.2,0.1,0.3,0.2,0.6c-0.1,0.2-0.2,0.3-0.3,0.5c-0.6,0.2-0.8,0.3-1.4,0.5c-0.2-0.1-0.3-0.1-0.5-0.2c-0.3-0.7-0.4-1.1-0.7-1.8
	C29.6,5.1,29.6,5,29.7,4.8z M28.8,5.2c0.4,1,0.6,1.5,1.1,2.6c-0.3,0.1-0.5,0.2-0.8,0.3c-0.5-1-0.7-1.5-1.1-2.5
	C28.3,5.4,28.5,5.3,28.8,5.2z M26.1,6.4c0.5,0.4,0.7,0.6,1.2,1c-0.2-0.5-0.4-0.8-0.6-1.3C27,6,27.2,5.9,27.5,5.7
	c0.5,1,0.7,1.5,1.2,2.5c-0.3,0.1-0.5,0.2-0.8,0.4c-0.5-0.4-0.7-0.6-1.2-1c0.2,0.5,0.4,0.7,0.6,1.2c-0.3,0.2-0.5,0.2-0.8,0.4
	c-0.5-1-0.8-1.5-1.3-2.5C25.6,6.7,25.7,6.6,26.1,6.4z M23,8.1c0.6-0.3,0.8-0.5,1.4-0.8c0.2,0.1,0.4,0.1,0.6,0.1
	c0.1,0.2,0.2,0.3,0.3,0.5c-0.3,0.2-0.4,0.4-0.7,0.6c-0.1-0.1-0.1-0.2-0.2-0.3c-0.2,0.1-0.4,0.2-0.6,0.3c0.2,0.4,0.4,0.6,0.6,1
	c0.2-0.1,0.3-0.2,0.6-0.3c-0.1-0.1-0.1-0.2-0.2-0.3c0.3-0.1,0.5-0.2,0.9-0.3c0.1,0.2,0.2,0.3,0.3,0.5c-0.1,0.2-0.1,0.3-0.2,0.6
	c-0.5,0.3-0.8,0.4-1.3,0.8c-0.2,0-0.3-0.1-0.6-0.1c-0.4-0.7-0.6-1-1-1.7C22.9,8.5,22.9,8.4,23,8.1z M21.3,7.8l0.1,0.8l-0.6,0.4
	l0-0.8L21.3,7.8z M22.2,8.6c0.2,0.3,0.3,0.4,0.4,0.7c-0.5,0.3-0.8,0.5-1.3,0.9c0,0.1,0.1,0.1,0.1,0.2c0.4-0.3,0.7-0.5,1.1-0.7
	c0.1,0.3,0.1,0.5,0.2,0.8c-0.4,0.2-0.6,0.4-0.9,0.6c0,0.1,0.1,0.1,0.1,0.2c0.5-0.4,0.8-0.5,1.3-0.9c0.2,0.3,0.3,0.4,0.4,0.7
	c-0.8,0.5-1.2,0.8-2,1.3c-0.6-0.9-1-1.4-1.6-2.3C20.9,9.5,21.3,9.2,22.2,8.6z M19.6,10.4c0.2,0.3,0.3,0.4,0.5,0.6
	c-0.2,0.2-0.3,0.2-0.6,0.4c0.5,0.6,0.7,1,1.2,1.6c-0.3,0.2-0.4,0.3-0.7,0.5c-0.5-0.6-0.7-0.9-1.2-1.6c-0.2,0.2-0.3,0.3-0.5,0.4
	c-0.2-0.2-0.3-0.4-0.5-0.6C18.5,11.2,18.9,10.9,19.6,10.4z M16.6,12.8c0.2,0.2,0.3,0.4,0.5,0.6c-0.5,0.4-0.7,0.6-1.2,1.1
	c0.1,0.1,0.1,0.1,0.1,0.1c0.4-0.4,0.6-0.6,1-0.9c0.1,0.3,0.2,0.4,0.4,0.7c-0.3,0.3-0.5,0.5-0.8,0.8c0.1,0.1,0.1,0.1,0.1,0.1
	c0.5-0.4,0.7-0.6,1.2-1.1c0.2,0.2,0.3,0.4,0.5,0.6c-0.7,0.6-1.1,1-1.8,1.7c-0.8-0.8-1.2-1.2-1.9-2C15.5,13.8,15.9,13.5,16.6,12.8z
	 M14,15.3c0.2,0,0.4,0,0.6-0.1c0.6,0.6,0.8,0.8,1.4,1.4c0,0.2,0,0.4,0,0.6c-0.6,0.6-0.8,0.9-1.4,1.5c-0.8-0.7-1.3-1.1-2.1-1.8
	C13.1,16.2,13.4,15.9,14,15.3z M11.1,18.7c0.2-0.1,0.4-0.1,0.6-0.1c0.1,0.1,0.2,0.1,0.3,0.2c-0.4,0.5-0.6,0.7-0.9,1.3
	c0.1,0,0.1,0.1,0.2,0.1c0.3-0.4,0.4-0.5,0.7-0.9c0.2,0,0.4-0.1,0.6-0.1c0.3,0.2,0.5,0.4,0.8,0.6c0,0.2,0,0.4,0.1,0.6
	c-0.4,0.5-0.5,0.7-0.9,1.2c-0.2,0-0.3,0.1-0.6,0.1c-0.1-0.1-0.2-0.1-0.3-0.2c0.3-0.5,0.5-0.7,0.9-1.2c-0.1,0-0.1-0.1-0.2-0.1
	c-0.3,0.4-0.4,0.5-0.6,0.9c-0.2,0.1-0.3,0.1-0.6,0.1c-0.3-0.2-0.5-0.3-0.8-0.6c0-0.2,0-0.4-0.1-0.6C10.5,19.4,10.7,19.2,11.1,18.7z
	 M9.4,21.1C9.6,21,9.7,21,9.9,21c0.8,0.5,1.2,0.8,2,1.3c-0.2,0.3-0.3,0.4-0.5,0.7c-0.2-0.1-0.3-0.2-0.5-0.3
	c-0.1,0.2-0.2,0.3-0.3,0.5c0.2,0.1,0.3,0.2,0.5,0.3c-0.2,0.3-0.3,0.4-0.4,0.7c-0.8-0.5-1.2-0.7-2.1-1.2c0-0.2-0.1-0.4-0.1-0.6
	C8.8,21.9,9,21.6,9.4,21.1z M7.3,24.6c0.6,0,0.9,0,1.5,0.1c-0.5-0.3-0.7-0.4-1.2-0.7c0.2-0.3,0.3-0.5,0.4-0.8c1,0.6,1.4,0.8,2.4,1.4
	c-0.2,0.3-0.3,0.4-0.4,0.7c-0.6,0-0.9-0.1-1.5-0.1C9,25.6,9.2,25.7,9.7,26c-0.2,0.3-0.2,0.4-0.4,0.7c-1-0.5-1.5-0.8-2.5-1.3
	C7,25.1,7.1,25,7.3,24.6z M6.6,25.9c1,0.5,1.5,0.7,2.5,1.2c-0.1,0.3-0.2,0.5-0.4,0.8c-1-0.5-1.5-0.7-2.5-1.2
	C6.4,26.4,6.5,26.2,6.6,25.9z M5.8,27.5c0.2-0.1,0.3-0.1,0.5-0.2c0.4,0.2,0.7,0.3,1.1,0.5c0,0.1,0.1,0.2,0.1,0.3
	C7.7,28,7.7,28,7.8,28c0.3,0.1,0.4,0.2,0.7,0.3c-0.1,0.3-0.2,0.5-0.3,0.8l-0.5-0.2c-0.1,0.2-0.2,0.4-0.2,0.6
	c0.2,0.1,0.3,0.1,0.6,0.2c-0.1,0.3-0.2,0.5-0.3,0.8c-1-0.4-1.6-0.6-2.6-1C5.4,28.6,5.5,28.3,5.8,27.5z M4.9,29.9
	C5.2,30,5.3,30,5.6,30.1c-0.1,0.2-0.1,0.4-0.2,0.6c0.7,0.3,1.1,0.4,1.9,0.7c-0.1,0.3-0.2,0.5-0.3,0.8c-0.8-0.3-1.1-0.4-1.9-0.6
	C5,31.8,5,31.9,4.9,32.2c-0.3-0.1-0.5-0.1-0.8-0.2C4.4,31.1,4.6,30.7,4.9,29.9z M3.6,33.9c0.8,0.2,1.2,0.3,1.9,0.5
	c0.1-0.2,0.1-0.4,0.2-0.6c-0.8-0.2-1.1-0.3-1.9-0.6c0.1-0.3,0.2-0.5,0.3-0.8c0.9,0.3,1.4,0.4,2.3,0.7c0.1,0.2,0.2,0.3,0.3,0.5
	c-0.2,0.6-0.2,0.8-0.4,1.4c-0.2,0.1-0.3,0.2-0.5,0.3c-0.9-0.2-1.4-0.4-2.3-0.6C3.4,34.4,3.5,34.2,3.6,33.9z M3.1,35.7
	c0.2-0.1,0.3-0.2,0.5-0.3c0.8,0.2,1.2,0.3,1.9,0.5c0.1,0.2,0.2,0.3,0.3,0.5c-0.1,0.6-0.2,0.8-0.3,1.4C5.3,37.8,5.2,37.9,5,38
	c-0.8-0.1-1.2-0.2-2-0.4c-0.1-0.2-0.2-0.3-0.3-0.5C2.9,36.6,3,36.3,3.1,35.7z M2.5,38.5c0.2-0.1,0.3-0.2,0.5-0.4
	c0.8,0.1,1.2,0.2,2,0.3c0.1,0.2,0.2,0.3,0.3,0.5c-0.1,0.7-0.2,1.1-0.3,1.8c-1.1-0.1-1.7-0.2-2.8-0.3C2.3,39.7,2.4,39.3,2.5,38.5z
	 M2.1,41.9c0.3,0,0.5,0,0.8,0.1c-0.1,0.6-0.1,0.9-0.1,1.5c0.1,0,0.1,0,0.2,0c0-0.5,0-0.8,0.1-1.3c0.3,0.1,0.5,0.2,0.8,0.3
	c0,0.4,0,0.6-0.1,1.1c0.1,0,0.1,0,0.2,0C4,43,4,42.7,4.1,42.1c0.3,0,0.5,0,0.8,0.1c-0.1,0.9-0.1,1.4-0.1,2.3c-1.1,0-1.7-0.1-2.8-0.1
	C2,43.3,2,42.9,2.1,41.9z M1.9,45.3c0.2-0.2,0.2-0.3,0.4-0.4c0.8,0,1.2,0,2,0.1c0.2,0.2,0.2,0.3,0.4,0.4c0,0.7,0,1.1,0,1.9
	c-1.1,0-1.7,0-2.8,0.1C1.9,46.4,1.9,46,1.9,45.3z M2,49.1c0.1-0.2,0.2-0.3,0.4-0.5c1-0.1,1.4-0.1,2.4-0.1c0,0.3,0,0.5,0.1,0.8
	c-0.2,0-0.4,0-0.6,0c0,0.3,0,0.4,0.1,0.6c0.2,0,0.4,0,0.6-0.1c0,0.3,0,0.5,0.1,0.8C4,50.9,3.6,50.9,2.6,51c-0.2-0.2-0.3-0.2-0.4-0.4
	C2.1,50,2.1,49.7,2,49.1z M2.5,53.1c0.8-0.1,1.2-0.2,2-0.3c0-0.3-0.1-0.4-0.1-0.6c-0.2,0-0.4,0.1-0.6,0.1c0-0.4,0-0.5,0.1-0.9
	c0.5-0.1,0.7-0.1,1.2-0.1c0.1,0.9,0.2,1.4,0.3,2.3c-1.1,0.2-1.6,0.3-2.7,0.5C2.6,53.6,2.5,53.5,2.5,53.1z M2.8,54.9
	c0.1-0.2,0.2-0.3,0.3-0.5c0.8-0.2,1.2-0.2,2-0.4c0.2,0.1,0.3,0.2,0.5,0.3c0.1,0.6,0.2,0.9,0.3,1.4c-0.1,0.2-0.2,0.3-0.3,0.5
	c-0.8,0.2-1.2,0.3-1.9,0.5c-0.2-0.1-0.3-0.2-0.5-0.3C3,55.8,2.9,55.5,2.8,54.9z M3.5,57.8c0.1-0.2,0.2-0.3,0.3-0.5
	c0.2-0.1,0.3-0.1,0.6-0.2c0.2,0.3,0.2,0.5,0.4,0.8c-0.2,0-0.2,0.1-0.4,0.1c0.1,0.3,0.1,0.4,0.2,0.6c0.5-0.1,0.7-0.2,1.1-0.3
	c-0.1-0.2-0.1-0.4-0.2-0.6c-0.2,0-0.2,0.1-0.4,0.1c0-0.4,0-0.5,0-0.9c0.2-0.1,0.3-0.1,0.6-0.2c0.2,0.1,0.3,0.2,0.5,0.3
	c0.2,0.6,0.2,0.9,0.4,1.4c-0.1,0.2-0.2,0.3-0.3,0.5c-0.8,0.2-1.1,0.4-1.9,0.6c-0.2-0.1-0.3-0.2-0.5-0.3C3.7,58.7,3.7,58.4,3.5,57.8z
	 M4.4,60.6c0.1-0.2,0.1-0.3,0.2-0.6C4.7,60,4.8,60,5,60c0.2,0.6,0.3,0.9,0.5,1.5c0.1,0,0.1,0,0.2-0.1c-0.2-0.4-0.2-0.6-0.4-1
	c0.1-0.2,0.1-0.3,0.2-0.5c0.4-0.1,0.6-0.2,0.9-0.3c0.2,0.1,0.3,0.2,0.5,0.3c0.2,0.6,0.3,0.8,0.5,1.4c-0.1,0.2-0.1,0.3-0.2,0.5
	c-0.1,0.1-0.2,0.1-0.4,0.1c-0.2-0.6-0.3-0.8-0.5-1.4c-0.1,0-0.1,0-0.2,0.1c0.1,0.4,0.2,0.6,0.4,1c-0.1,0.2-0.1,0.3-0.2,0.6
	c-0.4,0.1-0.6,0.2-0.9,0.4c-0.2-0.1-0.3-0.2-0.5-0.3C4.7,61.5,4.6,61.2,4.4,60.6z M6.3,65.3c-0.4-0.9-0.6-1.4-1-2.3
	c0.3-0.1,0.4-0.2,0.7-0.3c0.2,0.6,0.4,0.9,0.6,1.4c0.1,0,0.1,0,0.2-0.1c-0.2-0.5-0.3-0.7-0.5-1.2c0.3,0,0.5-0.1,0.8-0.1
	c0.2,0.4,0.3,0.6,0.4,1c0.1,0,0.1-0.1,0.2-0.1c-0.2-0.6-0.4-0.8-0.6-1.4c0.3-0.1,0.4-0.2,0.7-0.3c0.4,0.9,0.5,1.3,0.9,2.2
	C7.8,64.6,7.3,64.8,6.3,65.3z M84.2,56.5C78.4,77.5,56.6,90,35.5,84.2C14.4,78.4,2,56.6,7.8,35.5C13.6,14.4,35.4,2,56.5,7.8
	C77.5,13.6,90,35.4,84.2,56.5z"/>
<path class="st0" d="M3.9,45.7c-0.5,0-0.7,0-1.2,0c0,0.3,0,0.4,0,0.7c0.5,0,0.7,0,1.2,0C3.9,46.1,3.9,46,3.9,45.7z"/>
<path class="st0" d="M31.4,14.2c0,0,3,3.7,3,7.2c0,0,3.8-2.5,5.6-2.1c0,0-0.5-1.5-3.7-0.9c0,0,0.3-1.6,2.7-1.7
	C38.9,16.7,36.2,13.3,31.4,14.2z"/>
<path class="st0" d="M36.7,20.9c0,0,1-1.3,4.2-1.2c0,0,2.1,1.8,2.9,4C43.8,23.7,40.6,21.4,36.7,20.9z"/>
<path class="st0" d="M71.5,31.3c-0.9-1-2.3-4.2-3.1-9.8c0,0-0.8-1-1.1-0.8c-0.2,0.2,0.4,0.6,0.5,1c0.1,0.4,0.9,7.3-0.7,11
	c-1.6,3.8-3.9,6.5-4.3,4.5c0,0-2.3,2-3.3,1.8c-1.1-0.2,1.3-0.6,2.6-2.1c1.3-1.5,2.1-1.9,1.8-1.1c-0.2,0.8-0.6,2.1,0.6,0.4
	s2.4-3.4,2.3-5.7c0,0-5,8.6-12.8,0.7c0,0-1.9,0.9-1.5-0.1c0.5-1,2.1-0.4,4.5-4.5c2.3-4.2,3.9-9,9-9c0,0-0.9-1.7-3.6-0.3
	c0,0-1.3,0.2,0.2-1.2c1.5-1.4,3.8-3.3,8.3-3.1c0,0-3.8-2-7.3,1.2c-3.5,3.2-4.3,5.9-5.5,8c-1.2,2.1-3.4,7.1-6.8,9c0,0-2.6-1-5.6-7.2
	c-3-6.2-3.8-10-11.3-10.3c0,0,3.8,0.6,5.7,3.2c0,0-1-0.3-2.8,0.8c0,0,4.6-0.3,7.9,7.9c0,0,1.6,5.4,4.7,5.5c0,0,0.4,0.4,0,0.6
	c-0.4,0.2-1.5,0.1-2.3-0.9c0,0-1.1,3.9-5.3,3.7c-4.2-0.2-6.1-3.6-6.1-3.6s1.2,4.7,4.8,7c0,0,0-2,1-0.7c1,1.3,1.4,1.8,4,2.4
	c0,0-1.4,0.6-3.9-1.1c0,0-0.3,0.7-1.7-0.3c-1.4-1.1-7.8-7.1-4.9-16.6c0,0-2.9,3.1-1.2,11.1c1.7,8,5.2,8.8,5.2,8.8s-1.2-1.9-0.7-1.8
	c0.4,0.1,2.5,3.8,5.8,4.5c0,0,0.2-0.4-0.7-1.2c-1-0.8,1-0.4,2.4,0.2c1.4,0.6,2.8,1.2,4.4,3.3l0.5-0.2c0,0,3.8-4.4,7.4-4.7
	c0,0,0.2,0.3-0.5,0.8c-0.7,0.4-1.3,1.3-0.8,1.2c0.5-0.1,4-1.7,5.6-3.1c1.6-1.5,1.1-0.1,0.8,0.3c-0.3,0.4-0.9,0.9-0.4,1
	c0.4,0.1,5.6-3.6,5.8-8.1c0,0,0.4-1.9,0-2.7c-0.4-0.8,0.8-0.5,1.1-0.1c0.3,0.4,0.6,1.2,1.4,1.4C72.3,32.5,72.4,32.4,71.5,31.3z
	 M50.9,44.4c0,0-0.5-2.4-3.3-3.7c0,0,2.5,0.3,3.3,2.1c0,0,1-1.9,3-2.3C53.9,40.5,51.6,41.9,50.9,44.4z M53.8,34.9
	c-0.8-0.8-0.7-0.4-1.1,0.6c-0.4,1-0.8,3.4-1.4,3.4c-0.6-0.1-1.3-4.2-1.6-4.3c-0.3-0.1-1.8,1.1-2.1,1.3c-0.3,0.1-0.6-0.1-0.6-0.1
	s1.8-1.1,3-2.4c1.2-1.3,1.6-1.2,1.6-1.2c0.6-0.1,0.9,0.3,1.6,1.3c0.7,1,2.4,3,2.4,3C55,36.6,54.6,35.8,53.8,34.9z"/>
<path class="st0" d="M36.2,21.3c0,0-1.7,5.1,0.3,8.5c2,3.3,5,4.6,7.4,3.8c2.4-0.8,3.1-2.2,3.1-2.2s-4,2.2-6.6,0.5
	c-2.7-1.7-3.4-5.2-3.1-6.7c0.3-1.5,0.8-2.7,2.4-2.9C39.6,22.4,38.9,21.5,36.2,21.3z"/>
<path class="st0" d="M44.6,25.7c0,0-2.2-2.1-5.2-1.4c0,0-1,3,1.3,5.6c2.3,2.6,6-0.1,6-0.1l0.6,0.7c0,0-2.1,1.9-4.5,1.5
	c-2.4-0.4-4.2-2.2-4.6-4.1c-0.4-1.9-0.7-4.8,2.3-5.3c0,0,1.6-0.3,4.4,2.7C44.8,25.5,45.1,26,44.6,25.7z"/>
<path class="st0" d="M40.4,24.5c0,0,0.4,0,0.3,1.1c-0.1,1.2,0.4,4.2,3.7,4.6c0,0,0.6,0.2,0,0.4c-0.6,0.2-2.7,0.2-3.8-2
	C39.5,26.5,39.4,24.1,40.4,24.5z"/>
<path class="st0" d="M41.1,15.1c0,0,5.8-3,11.5-2.6c5.7,0.5,9.1,2.4,9.1,2.4s-3.4,4.8-5,8.6c-1.6,3.8-5.3,7-5.3,7s-2.9-1.8-6.2-9.1
	C45.2,21.4,43.6,16.9,41.1,15.1z"/>
<path class="st0" d="M63.6,16.4c0,0,4.1-3.8,8.8-2.5c0,0-3,3.4-3.8,7.1c0,0-0.8-1.5-4.5-2.1c0,0-0.4-0.3,0.9-0.4
	c1.3-0.1,2.2,0,2.2-0.6C67.3,17.2,66.5,16.2,63.6,16.4z"/>
<path class="st0" d="M60,22.9c0,0,1.1-2.5,3-3.6c0,0,2.3-0.1,4.1,1.1C67.1,20.5,63.8,20.6,60,22.9z"/>
<path class="st0" d="M64.1,21.8c0,0,2.6,1.3,2.1,4.3c-0.5,3-0.9,4.8-3.3,6.1c-2.4,1.3-6.1,0.5-7.7-0.4c0,0,2.3,2.6,5.5,2.2
	c3.2-0.4,5.1-2.1,5.7-4c0.6-1.9,0.8-3.7,0.8-5.6c0-1.9,0.3-3.6-1-3.3C65,21.3,64.6,21.5,64.1,21.8z"/>
<path class="st0" d="M59.7,24c0,0-0.6,0.3-0.6,0.6c0,0.3,0.2,0.2,0.7,0c0.5-0.2,2-0.9,3.8-0.6c0,0,1.6,4.9-3.1,7c0,0-3.1,1-4.5-1.3
	c0,0-1.1,0.9-1.1,1.1c0,0.2,1.6,2.1,5,1.7c3.4-0.4,4.7-3.1,5-4.2c0.4-1.2,1.3-4.6-1.1-5.7c0,0-1.2-0.3-2.7,0.6L59.7,24z"/>
<path class="st0" d="M62.1,24.6c0,0,0.5,3.8-1.8,4.9c0,0-1.7,0.6-3.1,0.3c0,0,0.2,0.9,2.1,0.7c1.8-0.2,3.3-1.4,3.8-3
	c0.4-1.6,0.5-3.1,0.2-3.2C63,24.2,62.3,24.5,62.1,24.6z"/>
<path class="st0" d="M33.9,34.2c0,0-0.2,8.6,3.9,13.1c0,0-0.1,0.3,0.6,0.2c0.7-0.1-0.3-0.9-0.6-1.4c-0.3-0.5-0.7-1.8-0.5-3.3
	c0,0,0.2-0.2,0.4,0.7c0.2,0.9,0.7,4.1,3.6,4c0,0-1.6-1.9-1.6-3.6c0,0,0.2-0.2,0.9,1.4c0.6,1.6,1,2,2.7,2.9c1.7,0.9,1.9,0.9,2.1,1.5
	c0,0,2.6-2.3,4.7-2.9c0,0-1.8-2.9-5.3-3.6c0,0-0.1,0.2,0.3,0.6s0.3,1-0.7,0.8c-0.9-0.2-2.4-1-3.4-1.9c-1-0.9-0.9-0.8-1.3-0.8
	s-1-0.4-1.8-1.1C37.1,40.2,34.7,37.3,33.9,34.2z"/>
<path class="st0" d="M52.1,45.7c0,0,3-2.4,4.8-2.8c0,0,0.2,0.1-0.3,0.5c-0.5,0.4-1,0.9,0.3,0.8c1.3-0.1,2.3-0.8,3.3-1.3
	c1-0.5,1.6-1.3,1.8-1.1c0.2,0.3-0.6,0.9,0.5,0.7c1.1-0.2,7.7-3.3,7.2-10.9c0,0,0.4-0.6,0.6,0.4c0.2,1,1.3,4.8,3.8,7.2
	c0,0,0,0.6-0.6,0.6c-0.6,0-1.6-0.1-2.1-0.9c-0.6-0.9-0.6-1.6-1-1.7c-0.4-0.1-0.2,0.6,0,1c0.2,0.4,0.9,1.4,1.5,1.8
	c0.6,0.3,0.2,0.6-0.4,0.9c-0.7,0.4-0.9,0.5-0.9,0.5s-0.2,0.3-0.7-0.4c-0.5-0.6-0.8-1-0.9-0.8c-0.1,0.2,0.4,0.9,0.6,1.2
	c0.2,0.3,0.3,0.6-0.1,0.8c-0.4,0.3-2.3,1.8-3.5,3.3c0,0,0,0.4-0.9-0.1c-0.9-0.5-7.2-1.2-12.7,0.5C52.3,46,52,46.1,52.1,45.7z"/>
<path class="st0" d="M40.8,56.1c0,0,3.7-6.7,10.9-9.2c7.2-2.6,13.6-0.5,13.6-0.5s-2.1,2.6-2.5,6.3c0,0,0,0.4-0.5,0.1
	c-0.5-0.3-2.7-1.7-6.4-1.7c0,0-0.2,0.2,0.1,0.3c0.3,0.1,3.1,0,6.1,1.9c0,0,0.4,0.3,0,0.5c-0.4,0.2-4.9,0.9-8.2,7.9
	c0,0-5.3-1.1-10.8,3.8c0,0-2.9,0.1-3.1-0.1c-0.2-0.2-0.9-1.4-0.1-2.6c0.9-1.2,2.8-3.7,8.4-5.8c0,0,0.7-0.4-0.2-0.4
	c-0.9,0-6.1,2.4-8.5,5.2c0,0-0.5,0.5-0.4-0.6c0.1-1.1,0.9-6.5,11.9-9.2c0,0,0.6-0.5-1.1-0.2c-1.6,0.3-6.2,1.3-8.8,4.5
	C41.2,56.2,40.7,56.7,40.8,56.1z"/>
<path class="st0" d="M37.5,61.1c0,0,1.1,0.4,1.2,1.4c0.1,1.1,0,1.7,0.2,2c0.2,0.3,0.3,0.7-0.4,0.5c-0.7-0.2-3-0.9-5-2
	c-2-1.2-6.9,0.5-7.1,0.5c-0.2,0-1.2,0.2-0.3-3.8c1-4,1.4-6.2,6.7-10c0,0,4.6-2.6,9.2-1.2c0,0,3.2,1,2.3,1.9
	c-0.9,0.9-2.4,2.5-3.9,5.1c0,0-0.2,0.6-0.9,0.2c-0.7-0.4-5.3-2.8-9.1-1.5c0,0-0.3,0.2,0.7,0.1c0.9-0.1,6.3,0.1,8.3,2.3
	c0,0,0.4,0.3-0.1,1.5c-0.5,1.2-0.4,2.9-0.4,2.9s0.3,0.4-0.8-0.3c-1.1-0.7-3.8-3.3-9.2-2.4c0,0-0.5,0.4,0.1,0.5
	c0.6,0.1,3.7-0.5,5.8,0.7C36.8,60.8,37.5,61.1,37.5,61.1z"/>
<path class="st0" d="M31.6,45.2c0,0,0.9,1.7,0.7,3.9c0,0,0,0.2,1.1-0.4c1.1-0.5,2.4-1,3.6-1c0,0,0.3-0.2-0.4-0.9
	c-0.6-0.7-1.9-3.5-2-3.9c-0.1-0.4-0.2-0.7-1.5-0.7c-1.4,0.1-3.4-0.2-6.8,2.1c-3.4,2.3-6.4,4-8.3,12.9c0,0-0.2,2.8,0.1,2.7
	c0.3-0.1,1.1-1.9,3.4-3.3c0,0,0.3-4.3,3.8-7.8c0,0,0.4-0.2,0.2,0.3c-0.2,0.5-3,2.9-3,6.8c0,0-0.1,0.2,1.1-0.5
	c1.2-0.7,2.5-1.2,3.7-1.4c0,0,1.8-2.9,4.1-4.3c0,0,0.4-3.1-0.2-4.1C31.3,45.6,30.9,44.9,31.6,45.2z"/>
<path class="st0" d="M16.8,58.5c0,0-4.6,4.7-4.6,14.8c0,0-0.1,1.4,0.6-0.4c0.7-1.8,1.3-2.5,1.7-2.4c0.4,0.1-0.1,0.5-0.6,1.3
	c-0.4,0.8-1.8,3-2,4.9c-0.2,2,0.8,9,5.2,10.9c4.4,1.9,7.9,0.5,13.6-3.3c0,0,3.7-2.5,4.7-4.6c0,0,0.2-0.4-0.2-0.6c-0.3-0.3-1-1-1-1
	s0-0.4-0.7,0.3c-0.7,0.7-3.6,3.7-6,3.7c0,0-0.3-0.1,0.3-0.3c0.5-0.2,2.6-0.8,4-2.3c1.4-1.4,2.3-1.6,1.6-2.6c-0.7-0.9-2.7-4.1-3.4-5
	c-0.7-0.9-0.9-1.6-1.7-1.6c-0.8,0-2.7,0.5-4.4,1.2c-1.7,0.8-5.3,2.7-6.7,5.7c0,0-0.7,2.6,2.7,2.6c3.4,0.1,6.5-2.3,6.5-2.3
	s0.4-0.5,0.7-0.3c0.3,0.3-2.6,2.3-5.1,2.9c-2.5,0.6-5.2,0.7-5.4-1.3c-0.2-2,0.5-3.5,2.9-5.3c0,0-0.8-1.9,0.7-4c0,0,0-4,5.4-5.7
	c0,0-1.2-5.1,1.1-8.5c0,0,0.2-0.6-1.1-0.2s-5.8,3.1-7.4,6c-1.5,2.9-2,3.8-2.3,7.7c0,0-0.4,0.5-0.4-0.5c0-1-0.6-3.6,1.7-7.3l-0.1-2.6
	C17.2,58.5,17.1,58.2,16.8,58.5z"/>
<path class="st0" d="M21.4,68.4c0,0-0.7,0.6-0.2-0.5c0.5-1.2,2.1-2.7,5.4-3.6c3.3-0.9,4.2-0.9,4.2-0.9s1.4-0.3,0.3,0.5
	c-1.1,0.7-1.6,1.9-1.6,2.7c0,0.7,0.4,0.1,0.5-0.2c0.1-0.3,1.1-1.8,1.7-2.2c0.6-0.4,1.1-0.3,2.2,0.1c1.1,0.4,2.9,1.3,4.8,1.7
	c1.8,0.4,5.4,0.1,7.4,0.5c2.1,0.4,6.2,1.4,8.9,3.9c2.6,2.5,3.1,4.1,3,5.1c-0.1,1-0.5,3.1-3.5,3.3c-3,0.2-5.2-0.2-7.1-0.9
	c-1.8-0.7-3.8-1.8-5.8-3.3c-2-1.5-3.5-2.4-3.5-2.4s-0.3-0.1-0.2,0.2c0.1,0.4,3.9,3.4,7,5c3.1,1.6,5.1,2.6,8.4,2.3
	c3.3-0.3,5.3-0.7,5.6-4.3c0,0,1.1-0.1,1.5-1c0,0,0.5,0.3,1.5-0.4c0,0,2.6-0.1,2.5-3.1c-0.1-3-1.3-7-9.4-9.4c0,0,2.9-9.5,14.4-7.8
	c0,0,6.2,0.5,4.9,6.2c-1.3,5.7-7,8.8-7,8.8s0.1,0.4,0.4,0.4c0.3-0.1,5.2-4,6.8-7.4c1.5-3.4,0.5-4.4,0.5-4.4s8.1,1,9.7-9.7
	c0,0-0.2-0.6-0.6,1.2c-0.5,1.8-2.3,7.1-9.1,7.7c0,0-2.2-5.4-11.5-3.3c0,0,0.5-6.7,7.7-11.4c7.1-4.7,13.2-1.8,13.2-1.8
	s5.9,2.7,5.6,8.3C89.5,54,90.3,60.1,77.5,64c0,0-0.3,0.3,0.2,0.3c0.5,0,5.3-1.2,7.2-2.8c0,0,0.4-0.6,0.4,0.2c0,0.8-3.2,11-12.3,13.1
	c-9.1,2.1-11,4.8-11,4.8s0.1,0.6,0.5,0.3c0.5-0.3,2.6-1.8,4.4-2.4c1.8-0.6,3.1-1.4,2.7-0.6c-0.3,0.6-3.9,8.4-12.8,10.4
	c-11.2,1.3-20.5-13.4-21.1-13.3c-0.9,0.1,9.1,12.9,16.5,13.8c-12,1.7-20.8-15.4-20.8-15.4s-1.2-3-3.4-2.8c-2.1,0.2-5.2,2-6.1,2.5
	c-0.9,0.5-1.9,1.6-2,0.7c-0.1-0.9,0.4-2.3,1.6-3.3c1.1-1,3.8-2,4.5-2.1c0.7-0.1,0.9-0.7,0.2-0.6C25.3,66.6,23,67.2,21.4,68.4z"/>
<path class="st0" d="M45.3,64.8c0,0,2.9-2.4,6.1-2.5c3.3,0,5.8,0.6,7.8,1.8c2,1.3,4.1,3.9,4.3,5.6c0.2,1.7,0.1,3.5-1.6,3.3
	c0,0,0.7-3.8-2.7-6.5c-3.4-2.8-4.6-3.1-4.8-3.1c-0.2,0.1,0.1,0.1,1.1,0.9c1.1,0.8,5.1,3.3,5.7,7.2c0,0,0.2,2.1-0.4,2.1
	s-0.5-0.3-0.6-0.8c-0.1-0.5-1.2-2.9-2.8-4.5c-1.6-1.6-3.5-3.1-3.8-3.3c-0.3-0.3-0.9-0.6-1-0.4c-0.1,0.2-0.1,0.1,1,1.1
	c1,1,3.1,2.4,4.2,4.2c1.1,1.8,1.9,3.2,1.8,3.9c-0.1,0.7-0.5,1.4-1,0.5c-0.6-0.9-1.8-6.6-13.1-8.6c0,0-1.5,0-0.8-0.5
	C45.1,64.7,45.3,64.8,45.3,64.8z"/>
<path class="st0" d="M41.7,24.6c0,0-0.7,0.2-0.4,2c0.4,1.8,1.1,3,3.3,3c2.1,0,1.5-0.7,1.2-1.3l-0.2-0.6c0,0-1.8,1.1-2.8-0.2
	c-1-1.3-0.5-2.6-0.5-2.6S42.2,24.6,41.7,24.6z"/>
<path class="st0" d="M59.8,25c0,0,0.5,1.7-0.5,2.5c-1,0.8-2.3,0.4-2.3,0.4s-0.7,0.9-0.5,1.1c0.3,0.3,2.4,0.7,3.5-0.1
	c1.1-0.8,1.6-1.9,1.7-3.9c0,0,0.2-0.6-0.5-0.4C60.6,24.7,59.8,25,59.8,25z"/>
<path class="st0" d="M30,106.7c-6-0.1-6.1-6.5-6.1-6.5s0.3-0.1,1.6-0.2c1.3-0.2,2-0.1,2-0.1c0,1.8,0.5,3.4,2.6,3.8
	c2.1,0.5,3.4-1.1,3.5-1.2c0,0,0,0,0,0c-1.5-0.5-3.6-1.5-6.4-3.1c0,0-4,0-6.8,1.3c0,0,1,7.4,8.6,7.7c0,0,6.1,0.5,8-5.1
	C34,106.9,30,106.7,30,106.7z"/>
<path class="st0" d="M34.8,102.9c0,0,0.1,0,0.1,0C34.9,103,34.8,103,34.8,102.9z"/>
<path class="st0" d="M36.9,103.3L36.9,103.3L36.9,103.3z"/>
<path class="st0" d="M34.4,102.8c0.1,0,0.1,0,0.2,0C34.5,102.9,34.5,102.9,34.4,102.8z"/>
<path class="st0" d="M34,102.7c0,0,0.1,0,0.1,0C34.1,102.7,34.1,102.7,34,102.7z"/>
<path class="st0" d="M54.4,103.3L54.4,103.3L54.4,103.3z"/>
<path class="st0" d="M55.5,103.2C55.5,103.2,55.5,103.2,55.5,103.2C55.5,103.2,55.5,103.2,55.5,103.2z"/>
<path class="st0" d="M55.3,103.2C55.3,103.2,55.3,103.2,55.3,103.2C55.3,103.2,55.3,103.2,55.3,103.2z"/>
<path class="st0" d="M63.3,99.5c-2.6,1.6-4.5,2.6-5.9,3.1c0,0,0,0,0,0c0.1,0.1,1.3,1.6,3.2,1.2c1.9-0.5,2.4-2.1,2.4-3.8
	c0,0,0.6,0,1.8,0.1c1.2,0.2,1.5,0.2,1.5,0.2s-0.1,6.4-5.6,6.5c0,0-3.7,0.1-6.3-3.4c1.7,5.6,7.3,5.1,7.3,5.1c7-0.2,7.9-7.7,7.9-7.7
	C67,99.5,63.3,99.5,63.3,99.5z"/>
<path class="st0" d="M56.7,102.8c0,0-0.1,0-0.1,0C56.6,102.9,56.7,102.9,56.7,102.8z"/>
<path class="st0" d="M55.7,103.1C55.7,103.1,55.7,103.1,55.7,103.1C55.7,103.1,55.7,103.1,55.7,103.1z"/>
<path class="st0" d="M57.1,102.7c0,0-0.1,0-0.1,0C57,102.7,57,102.7,57.1,102.7z"/>
<path class="st0" d="M56.4,102.9c0,0-0.1,0-0.1,0C56.3,103,56.4,103,56.4,102.9z"/>
<path class="st0" d="M56.1,103C56.1,103,56,103.1,56.1,103C56,103.1,56.1,103,56.1,103z"/>
<path class="st0" d="M17.3,89.2c0,0-13.4-3.4-16.7-5c0,0-0.6-0.3-0.3,0.6c0.2,0.9,1.4,17.2,2,29.2c0,0,0,0.5,0,0.6
	c0,0.2,0.3,0.5,0.7,0.4c0.5-0.1,11.5-0.3,14.6,0v-4.8H7.1L6.9,104c0,0,5.4,0.1,6.6,0.3l1.8-5.3H6.7l-0.4-7.4l11,2.6L17.3,89.2z"/>
<path class="st0" d="M19.9,89.5L19.9,89.5v5c0,0,11.2,8.7,17,8.8c0,0,1.5,7.6-6.2,7.6h-4.5V109c0,0-2.8-0.9-5.3-3.4
	c0,0-0.4-0.5-0.4,0.1v9c0,0,0,0.2,0.6,0.2s5.4-0.2,13.6,0c0,0,6.5-1.4,6.5-7.9v-6.7c0,0,0-0.3-0.6-0.3c-0.7,0-10.7-2.8-19.8-10.7
	C20.9,89.3,19.9,88.9,19.9,89.5z"/>
<path class="st0" d="M63.2,90.4C56.9,93.2,45.8,93,45.8,93c0,0-11.1,0.2-17.4-2.6c0,0-0.7-0.3-0.5,0.2c0.2,0.6,5.8,5.8,10.2,7.6
	c0,0,0.2,0.1,0.7-0.4c0.5-0.5,2.4-1.6,3.3-1.3c0,0,0.3,0.1,0.3,1.1c0,1,1.1,14.8,1.1,14.8s0.2,0.2,0.4,0c0.2-0.2,0.5-4.3,2-4.3
	c1.5,0,1.8,4.1,2,4.3c0.2,0.2,0.4,0,0.4,0s1.1-13.8,1.1-14.8c0-1,0.3-1.1,0.3-1.1c0.9-0.2,2.8,0.8,3.3,1.3c0.5,0.5,0.7,0.4,0.7,0.4
	c4.4-1.8,10-7,10.2-7.6C63.9,90.1,63.2,90.4,63.2,90.4z"/>
<path class="st0" d="M47.6,114.2c-0.3-5.6-1.8-5.8-1.8-5.8s-1.4,0.2-1.7,5.8c0,0,0.6,7.7,1.7,7.7C46.9,121.9,47.6,114.2,47.6,114.2z
	"/>
<path class="st0" d="M20.9,100.9c0,0,0.8-0.3,1.5-0.4c0.7-0.2,1-0.2,1-0.2s-0.1,6.4,6.5,6.8c0,0,2.9,0,5.2-1.7c0,0-1.7,2.7-6.5,2.6
	C23.8,107.8,21.3,103.4,20.9,100.9z"/>
<path class="st0" d="M70.3,89.3c-6.5,5.7-13.4,8.7-17.1,10c-3.3,1-3.1,3.5-3.1,3.5v4.3c0,6.5,6.5,7.9,6.5,7.9c8.1-0.2,13.4,0,13.4,0
	s1.2,0.1,1.2-0.2V109v-3.3V94.5V93v-3.4v-0.1C71.2,88.9,70.3,89.3,70.3,89.3z M60.6,110.8c-7.6,0-6.1-7.6-6.1-7.6
	c3.2,0,8.1-2.7,11.8-5.2v7.1C66.2,111,60.6,110.8,60.6,110.8z"/>
<path class="st0" d="M69.1,100.9c0,0-0.7-0.3-1.4-0.4c-0.6-0.2-1-0.2-1-0.2s0.1,6.4-6,6.8c0,0-2.7,0-4.8-1.7c0,0,1.6,2.7,5.9,2.6
	C66.4,107.8,68.7,103.4,69.1,100.9z"/>
<path class="st0" d="M91.4,84.3c-0.6,0.4-3.5,2.5-16.3,4.4c0,0-0.7,0.1-0.7,0.6c0,0,0.2,2.8-0.8,23.7l-0.1,1.4c0,0-0.1,0.5,0.5,0.5
	c0.6,0,4.6,0,4.6,0s0.5,0.1,0.3-0.7c-0.2-0.8,0.1-5.9,0.4-9.3c0,0,0-0.3,0.6-0.3c0.6,0,6.6,0,6.6,0s4.8,0.1,5.2-5.8L92,84.6
	C92,84.6,92,84,91.4,84.3z M86.8,91.8c0,0-0.2,4.4-0.4,6.4c-0.2,2-4.7,1.9-5.9,1.9c-1.2,0-1-0.2-1-0.2c0.1-4.5,0.7-7.5,0.7-7.5
	c0.2-0.1,0.4-0.1,0.4-0.1s4.1-0.6,5.2-0.7C86.8,91.5,86.8,91.8,86.8,91.8z"/>
</svg>
