<svg width="92" height="122" viewBox="0 0 92 122" fill="none" xmlns="http://www.w3.org/2000/svg">
<path d="M10.2845 22.2459C10.0833 22.1169 9.98313 22.0524 9.78194 21.9233C9.63763 22.1474 9.56633 22.2595 9.42542 22.4861C9.6283 22.6126 9.72931 22.6763 9.93304 22.8019C10.0714 22.5787 10.1419 22.4675 10.2845 22.2459Z" fill="#D4AF37"/>
<path d="M15.1256 16.9703C14.781 16.64 14.6078 16.4754 14.2623 16.146C14.0679 16.3497 13.9703 16.4533 13.7793 16.6604C14.1299 16.9847 14.3056 17.1468 14.6562 17.4711C14.8429 17.2699 14.9363 17.1689 15.1256 16.9703Z" fill="#D4AF37"/>
<path d="M59.5007 4.53505C59.2401 4.45271 59.1103 4.41281 58.8488 4.33472C58.7121 4.79311 58.6434 5.02146 58.5067 5.479C58.7614 5.55455 58.887 5.59445 59.1408 5.67424C59.2851 5.2184 59.3564 4.99005 59.5007 4.53505Z" fill="#D4AF37"/>
<path d="M4.9539 36.5245C4.48787 36.4201 4.25442 36.3683 3.78754 36.2639C3.73152 36.5177 3.7035 36.6451 3.65002 36.8997C4.11775 36.9973 4.35204 37.0466 4.81977 37.1434C4.87156 36.8955 4.89787 36.7724 4.9539 36.5245Z" fill="#D4AF37"/>
<path d="M6.13391 28.873C6.35462 28.9646 6.46497 29.0105 6.68483 29.103C6.78415 28.8636 6.83508 28.7448 6.93864 28.5071L6.39027 28.2686C6.28671 28.5096 6.23578 28.631 6.13391 28.873Z" fill="#D4AF37"/>
<path d="M40.6955 4.03488C40.6353 3.56121 40.6039 3.32353 40.5419 2.84985C40.277 2.88466 40.1446 2.90248 39.8806 2.94068C39.9494 3.41436 39.9833 3.64949 40.0512 4.12232C40.3093 4.08582 40.4366 4.06799 40.6955 4.03488Z" fill="#D4AF37"/>
<path d="M34.0271 4.81591C33.9609 4.58671 33.927 4.47212 33.8616 4.24292C33.6035 4.31677 33.4762 4.35497 33.219 4.43392C33.2895 4.66226 33.3243 4.77686 33.3947 5.00521C33.6468 4.92796 33.7733 4.88976 34.0271 4.81591Z" fill="#D4AF37"/>
<path d="M43.4856 2.76968C43.4797 2.68989 43.478 2.64999 43.4729 2.57104C43.2063 2.58802 43.0722 2.59736 42.8057 2.61688C42.8125 2.69668 42.815 2.73658 42.8218 2.81552C43.0866 2.79515 43.2199 2.78581 43.4856 2.76968Z" fill="#D4AF37"/>
<path d="M65.1411 6.75722C64.8906 6.63753 64.765 6.5798 64.5129 6.46436C64.4136 6.68167 64.3635 6.79032 64.265 7.00764C64.5129 7.12139 64.6377 7.17911 64.8847 7.2971C64.9883 7.08064 65.0392 6.97368 65.1411 6.75722Z" fill="#D4AF37"/>
<path d="M49.3694 2.59811C49.102 2.57943 48.967 2.57009 48.6996 2.55566C48.686 2.7942 48.6801 2.91304 48.6656 3.15242C48.9305 3.1677 49.0621 3.17534 49.3261 3.19402C49.3422 2.95633 49.3515 2.83664 49.3694 2.59811Z" fill="#D4AF37"/>
<path d="M52.3139 2.90848C52.0474 2.87113 51.9133 2.85415 51.6467 2.82104C51.617 3.05788 51.6026 3.17587 51.5729 3.41356C51.8369 3.44582 51.9676 3.46364 52.2308 3.50014C52.2647 3.26416 52.2808 3.14532 52.3139 2.90848Z" fill="#D4AF37"/>
<path d="M3.15625 39.7228C3.62992 39.7899 3.86591 39.8238 4.33873 39.8909C4.37439 39.6405 4.39306 39.5157 4.43296 39.2652C3.96013 39.1914 3.725 39.154 3.25217 39.0793C3.21227 39.3366 3.19275 39.4656 3.15625 39.7228Z" fill="#D4AF37"/>
<path d="M3.50289 50.0785C3.47828 49.8222 3.46724 49.694 3.44772 49.4368C3.21003 49.4554 3.09034 49.4648 2.85181 49.4835C2.87218 49.7441 2.88406 49.8739 2.90783 50.1337C3.14637 50.1125 3.26521 50.1006 3.50289 50.0785Z" fill="#D4AF37"/>
<path d="M4.98453 55.5704C4.92765 55.3209 4.90049 55.1952 4.84701 54.9448C4.37928 55.0441 4.14584 55.0942 3.67896 55.1927C3.73328 55.4499 3.7613 55.5789 3.81987 55.8353C4.2859 55.7292 4.51849 55.6766 4.98453 55.5704Z" fill="#D4AF37"/>
<path d="M58.1607 1.64891C33.667 -5.06789 8.36572 9.34295 1.64892 33.8366C-5.06789 58.3303 9.34295 83.6307 33.8358 90.3475C58.3295 97.066 83.6307 82.6552 90.3475 58.1615C97.0643 33.6678 82.6535 8.36656 58.1607 1.64891ZM68.5192 7.6294C69.1003 7.96193 69.387 8.13413 69.9587 8.49041C70.0376 8.72709 70.0767 8.845 70.1522 9.08253C70.0665 9.21656 70.0241 9.28357 69.9384 9.41845C69.3794 9.06132 69.0986 8.88911 68.5311 8.55573C68.4903 8.62445 68.4708 8.65838 68.431 8.72709C68.8339 8.96376 69.0341 9.08592 69.4337 9.33447C69.5091 9.56945 69.5465 9.68651 69.6177 9.92064C69.404 10.2566 69.2971 10.4237 69.0825 10.7588C68.8441 10.7952 68.7236 10.8139 68.487 10.8538C67.9508 10.5195 67.6819 10.3584 67.1365 10.0462C67.061 9.81885 67.0211 9.70602 66.9414 9.47868C67.0194 9.33956 67.0584 9.27085 67.1356 9.13088C67.6913 9.4422 67.9678 9.60423 68.5166 9.93676C68.5582 9.8689 68.5786 9.83496 68.6201 9.7671C68.2265 9.52788 68.0289 9.41082 67.631 9.18262C67.5504 8.95358 67.5097 8.83906 67.4266 8.61002C67.6208 8.26222 67.7176 8.08832 67.911 7.74137C68.1527 7.69471 68.2749 7.67266 68.5192 7.6294ZM67.6404 7.13823C67.1085 8.11717 66.843 8.60663 66.3119 9.58556C65.9981 9.41506 65.8394 9.33192 65.5247 9.1682C66.0354 8.17824 66.2907 7.68284 66.8022 6.69373C67.1373 6.86763 67.3053 6.9567 67.6404 7.13823ZM64.4143 5.54768C65.0149 5.81489 65.3143 5.95401 65.9081 6.24413C66.0082 6.47062 66.0566 6.58345 66.1525 6.80994C65.7249 7.66333 65.5111 8.09002 65.0827 8.9434C64.7655 8.78393 64.606 8.70673 64.287 8.55489C64.3897 8.33942 64.4414 8.23168 64.5441 8.01537C64.3015 7.89915 64.1793 7.84317 63.935 7.73119C63.8357 7.94835 63.7857 8.05694 63.6873 8.2741C63.3666 8.12819 63.2055 8.05609 62.8831 7.91697C63.2598 7.03983 63.4489 6.60126 63.8273 5.72497C64.0614 5.65202 64.1785 5.61639 64.4143 5.54768ZM61.9848 4.55178C62.0509 5.17188 62.0798 5.48151 62.1281 6.09907C62.3317 5.58076 62.4335 5.32118 62.638 4.80287C62.9858 4.93945 63.1597 5.00986 63.5041 5.15407C63.0748 6.1822 62.8602 6.69627 62.431 7.72525C62.1069 7.58952 61.9449 7.52336 61.6183 7.39527C61.5776 6.78025 61.5538 6.47317 61.4953 5.85561C61.2993 6.37731 61.2009 6.63774 61.0067 7.15944C60.6784 7.03644 60.5147 6.97706 60.1855 6.86084C60.5554 5.8098 60.7395 5.28471 61.1102 4.23367C61.4614 4.35752 61.6361 4.42114 61.9848 4.55178ZM58.634 3.44136C59.255 3.62035 59.5654 3.71621 60.1813 3.9181C60.3077 4.12763 60.3705 4.23197 60.4935 4.4415C60.2381 5.19479 60.1109 5.57228 59.8547 6.32641C59.6375 6.42057 59.529 6.46808 59.3143 6.56563C58.735 6.37561 58.4457 6.28654 57.8621 6.11858C57.7399 5.91753 57.678 5.81659 57.5524 5.61639C57.7645 4.84953 57.8705 4.46695 58.0826 3.69924C58.3023 3.5949 58.4126 3.54316 58.634 3.44136ZM57.6932 3.18178C57.4082 4.25827 57.2657 4.79694 56.9807 5.87427C56.6464 5.78605 56.4785 5.74363 56.1434 5.6622C56.4072 4.57892 56.5379 4.03856 56.8008 2.95529C57.1588 3.04266 57.337 3.08762 57.6932 3.18178ZM53.7622 2.73219C53.9684 2.60579 54.0719 2.54386 54.2806 2.42001C54.9108 2.53453 55.2256 2.59815 55.8533 2.73643C55.9992 2.93069 56.0705 3.02909 56.2121 3.22504C56.1587 3.45748 56.1315 3.57454 56.0781 3.80698C55.7091 3.80443 55.5267 3.80443 55.1602 3.80867C55.1933 3.65259 55.2094 3.57539 55.2417 3.4193C54.977 3.36417 54.8447 3.33702 54.58 3.28612C54.4901 3.75438 54.4443 3.98936 54.3527 4.45762C54.6105 4.50767 54.7395 4.53312 54.9974 4.58741C55.0304 4.43132 55.0466 4.35413 55.0796 4.19804C55.4096 4.34904 55.5734 4.42538 55.8999 4.58232C55.8465 4.81475 55.8185 4.93181 55.7659 5.16425C55.5606 5.28046 55.458 5.339 55.2561 5.45776C54.6665 5.32797 54.3713 5.26859 53.7801 5.16085C53.6392 4.97338 53.5688 4.87922 53.4246 4.69344C53.5595 3.90877 53.6274 3.51601 53.7622 2.73219ZM50.7975 2.32416C50.9926 2.18419 51.0927 2.11463 51.2912 1.9772C51.9257 2.04931 52.243 2.09087 52.8758 2.18588C53.0336 2.36996 53.1099 2.46243 53.2634 2.64905C53.1125 3.59151 53.0361 4.06316 52.886 5.00562C52.5466 4.95133 52.377 4.92588 52.0377 4.87922C52.0699 4.64255 52.0877 4.52378 52.1208 4.28796C51.8621 4.25148 51.7331 4.23452 51.4752 4.20228C51.4455 4.43896 51.4294 4.55772 51.4006 4.79439C51.0613 4.75198 50.8908 4.73331 50.5506 4.69769C50.649 3.74929 50.699 3.27425 50.7975 2.32416ZM47.8361 1.71932C48.6538 1.74901 49.0627 1.77276 49.8796 1.83978C50.0476 2.01368 50.1315 2.1002 50.2961 2.27495C50.252 2.75 50.2299 2.98837 50.1867 3.46342C50.0917 3.53467 50.0442 3.56945 49.95 3.64156C50.0314 3.72893 50.0705 3.7722 50.1494 3.85872C50.1205 4.17598 50.1052 4.33461 50.0764 4.65188C49.7362 4.61964 49.5657 4.60607 49.2239 4.58147C49.2417 4.3431 49.2502 4.22434 49.268 3.98597C49.0084 3.9673 48.8795 3.95967 48.6199 3.9444C48.6055 4.18277 48.5995 4.30153 48.5859 4.54075C48.2449 4.52209 48.0744 4.51361 47.7343 4.50173C47.775 3.38961 47.7953 2.83313 47.8361 1.71932ZM47.3305 1.70405L47.3101 2.49975C46.6866 2.48363 46.3736 2.48194 45.7492 2.48788C45.7501 2.56762 45.7509 2.60749 45.7509 2.68638C46.2837 2.68044 46.55 2.68298 47.0828 2.69316C46.9878 3.00958 46.9411 3.16821 46.8486 3.48462C46.4126 3.47869 46.1946 3.47784 45.7594 3.48293C45.7603 3.56267 45.7611 3.60254 45.7611 3.68143C46.3694 3.67549 46.6722 3.67719 47.2804 3.69246C47.2719 4.01057 47.2677 4.17005 47.2601 4.48816C46.3235 4.4644 45.8544 4.4661 44.9188 4.49494C44.8848 3.38113 44.8679 2.8238 44.8339 1.71084C45.8315 1.68115 46.3312 1.67945 47.3305 1.70405ZM43.8762 1.75156C44.0662 1.90086 44.1587 1.97551 44.3462 2.12735C44.3623 2.5252 44.3699 2.7237 44.3869 3.12155C44.2181 3.28782 44.1341 3.3701 43.9695 3.53891C43.5343 3.56097 43.3163 3.57454 42.8837 3.60932C42.9142 4.00548 42.9295 4.20398 42.96 4.60013C42.6207 4.62643 42.4511 4.64085 42.1126 4.67478C42.0057 3.56521 41.9514 3.01127 41.8437 1.90255C42.6538 1.82366 43.061 1.79312 43.8762 1.75156ZM39.3192 2.22066C39.9452 2.12396 40.2599 2.08069 40.8911 2.00604C41.0887 2.14262 41.188 2.21133 41.3831 2.35045C41.4704 3.14191 41.512 3.53722 41.5994 4.32868C41.445 4.50512 41.3695 4.59419 41.2193 4.77234C40.6289 4.84274 40.3337 4.88261 39.7459 4.97338C39.5533 4.84274 39.4566 4.77743 39.2615 4.64848C39.1325 3.86296 39.0672 3.4702 38.9374 2.68553C39.0876 2.49806 39.1639 2.40559 39.3192 2.22066ZM35.4408 2.99516C36.0583 2.84331 36.3671 2.7729 36.9889 2.64311C37.1984 2.76103 37.3028 2.8221 37.5098 2.94256C37.5403 3.09865 37.5564 3.17669 37.5869 3.33278C36.9753 3.45408 36.6716 3.52025 36.0643 3.66361C36.0829 3.74081 36.0923 3.77983 36.1101 3.85702C36.5418 3.75523 36.759 3.70772 37.1916 3.61696C37.3978 3.73657 37.5004 3.7968 37.704 3.9181C37.7821 4.30832 37.8202 4.50343 37.8983 4.89364C37.7608 5.08366 37.6938 5.17867 37.5598 5.36869C36.9762 5.49084 36.6869 5.55616 36.1084 5.69867C35.9056 5.585 35.803 5.52817 35.596 5.41704C35.5561 5.26265 35.5375 5.1863 35.4976 5.03191C36.0846 4.88092 36.3798 4.81051 36.9728 4.68072C36.955 4.60268 36.9473 4.5645 36.9295 4.48646C36.5045 4.57892 36.2924 4.62897 35.87 4.73331C35.6622 4.62049 35.5587 4.5645 35.3491 4.45422C35.249 4.0691 35.1998 3.87654 35.1006 3.49141C35.2355 3.29206 35.3033 3.19366 35.4408 2.99516ZM32.5506 3.80867C33.158 3.61611 33.4617 3.52619 34.0742 3.35399C34.2913 3.45833 34.3999 3.51177 34.6162 3.61865C34.8639 4.54075 34.9878 5.00222 35.2346 5.92432C34.9063 6.01254 34.7426 6.0592 34.4152 6.15336C34.349 5.92432 34.3159 5.8098 34.2489 5.57991C33.9995 5.65202 33.8765 5.68934 33.6288 5.76569C33.6984 5.99473 33.7331 6.10755 33.8036 6.33574C33.477 6.43669 33.3158 6.48759 32.9909 6.59447C32.6914 5.68765 32.543 5.23381 32.2435 4.32698C32.3648 4.11915 32.4268 4.01566 32.5506 3.80867ZM29.7165 4.8156C30.3103 4.58232 30.6097 4.47119 31.2095 4.25912C31.4343 4.34819 31.5454 4.394 31.7685 4.48646C31.8457 4.71211 31.8839 4.82493 31.9611 5.05142C31.6514 5.24229 31.4962 5.339 31.1908 5.53495C31.1374 5.3848 31.1094 5.311 31.0551 5.1617C30.8023 5.25332 30.6767 5.29998 30.4265 5.39583C30.597 5.84119 30.6827 6.06514 30.8532 6.51049C31.0966 6.41718 31.2196 6.37137 31.4648 6.2823C31.4105 6.133 31.3825 6.0575 31.3282 5.9082C31.6854 5.86239 31.8635 5.84204 32.2206 5.80471C32.2987 6.03036 32.3368 6.14318 32.414 6.36968C32.3029 6.57581 32.2478 6.6793 32.14 6.88629C31.5768 7.08479 31.2968 7.18913 30.7395 7.40799C30.5223 7.32231 30.4129 7.28075 30.1932 7.19846C29.8938 6.46044 29.7445 6.09228 29.445 5.35427C29.5502 5.13795 29.6053 5.03107 29.7165 4.8156ZM28.8232 5.17867C29.2541 6.20595 29.4696 6.72002 29.8997 7.74816C29.5841 7.88049 29.4272 7.94751 29.1133 8.08578C28.662 7.06698 28.4364 6.558 27.9851 5.54004C28.3193 5.39159 28.4864 5.31949 28.8232 5.17867ZM26.0764 6.43839C26.571 6.81333 26.8153 7.0042 27.2963 7.39102C27.0545 6.88883 26.9341 6.63859 26.6914 6.13639C27.0223 5.97776 27.1877 5.89972 27.5202 5.74788C27.9834 6.76159 28.2141 7.26802 28.6773 8.28173C28.366 8.42425 28.2099 8.49635 27.9011 8.64565C27.4261 8.25544 27.1868 8.06203 26.6991 7.68369C26.9485 8.18163 27.0723 8.43103 27.3217 8.92983C27.0146 9.08337 26.8611 9.16226 26.5574 9.32174C26.0383 8.33603 25.7787 7.84232 25.2595 6.85745C25.5853 6.68609 25.7481 6.60126 26.0764 6.43839ZM23.0098 8.12395C23.5629 7.79057 23.842 7.6294 24.4053 7.31722C24.6437 7.36727 24.7616 7.39357 24.9974 7.44701C25.1111 7.65739 25.1679 7.76258 25.2816 7.97211C25.0033 8.21302 24.8659 8.33518 24.5928 8.58118C24.5139 8.44206 24.4748 8.37335 24.3968 8.23508C24.1618 8.36826 24.0439 8.43612 23.8098 8.5744C24.0515 8.98582 24.1737 9.19196 24.4155 9.60338C24.6428 9.46935 24.7565 9.40403 24.9864 9.27339C24.9083 9.13512 24.8685 9.06556 24.7913 8.92729C25.1382 8.82125 25.313 8.77035 25.6608 8.6728C25.7744 8.88318 25.8304 8.98836 25.9449 9.19789C25.8677 9.42015 25.8296 9.53212 25.7558 9.75522C25.2273 10.047 24.9652 10.1989 24.4468 10.5111C24.217 10.4636 24.1016 10.4406 23.8683 10.3974C23.451 9.71959 23.2423 9.38028 22.8249 8.70249C22.8979 8.4709 22.9343 8.35469 23.0098 8.12395ZM21.287 7.81263L21.3404 8.63802L20.7194 9.05199L20.6914 8.20454L21.287 7.81263ZM22.1802 8.63547C22.349 8.90438 22.4347 9.03926 22.6052 9.30732C22.0682 9.64664 21.8019 9.82224 21.2759 10.1819C21.3209 10.2481 21.3429 10.2812 21.3879 10.3456C21.8375 10.0386 22.064 9.88841 22.5212 9.59659C22.6162 9.91385 22.6654 10.0725 22.763 10.3872C22.3906 10.629 22.2048 10.752 21.8366 11.0031C21.8816 11.0692 21.9045 11.1015 21.9495 11.1676C22.4618 10.8173 22.7197 10.6468 23.2423 10.3168C23.4128 10.5857 23.4976 10.7206 23.6681 10.9895C22.8622 11.4985 22.4652 11.7657 21.684 12.323C21.0367 11.417 20.7127 10.9632 20.0646 10.0572C20.8976 9.46341 21.3209 9.17838 22.1802 8.63547ZM19.6455 10.3618C19.833 10.6188 19.9271 10.7469 20.1163 11.0039C19.894 11.1659 19.7838 11.2482 19.5649 11.4136C20.0442 12.049 20.2851 12.3663 20.7652 13.0016C20.4862 13.2129 20.347 13.3198 20.0722 13.5369C19.5793 12.9126 19.3325 12.6004 18.8396 11.9752C18.6233 12.1466 18.5156 12.2331 18.301 12.4078C18.1008 12.161 17.9998 12.0371 17.7988 11.7903C18.5232 11.1982 18.8939 10.9123 19.6455 10.3618ZM16.6383 12.7701C16.8478 13.0101 16.953 13.1297 17.1617 13.3698C16.6739 13.7957 16.433 14.0145 15.9588 14.4607C16.0131 14.5193 16.0411 14.5481 16.0954 14.6058C16.5 14.2249 16.7053 14.0383 17.1201 13.671C17.2618 13.9713 17.333 14.1206 17.4773 14.4183C17.1396 14.7194 16.9717 14.873 16.6408 15.1852C16.6951 15.2428 16.7223 15.2717 16.7774 15.3294C17.2389 14.895 17.473 14.683 17.9481 14.2682C18.1567 14.5082 18.2619 14.6278 18.4706 14.8679C17.7394 15.5075 17.3806 15.8392 16.6799 16.5272C15.9003 15.7315 15.5101 15.3336 14.7305 14.5379C15.4761 13.8058 15.8579 13.4521 16.6383 12.7701ZM14.0179 15.2522C14.2656 15.2259 14.3895 15.2149 14.6346 15.1936C15.1987 15.7552 15.4804 16.036 16.0445 16.5976C16.0292 16.8376 16.0233 16.9581 16.0123 17.1973C15.449 17.775 15.1733 18.0711 14.6338 18.681C13.7999 17.9421 13.3834 17.5723 12.5495 16.8342C13.1238 16.1845 13.4182 15.8672 14.0179 15.2522ZM11.0955 18.6555C11.3322 18.6055 11.451 18.5817 11.6876 18.5351C11.8132 18.6326 11.8768 18.6818 12.0024 18.7785C11.6172 19.2765 11.4298 19.5284 11.0641 20.0374C11.1286 20.0832 11.1617 20.107 11.2253 20.1536C11.4857 19.7914 11.6172 19.6124 11.8878 19.2553C12.1228 19.2095 12.2399 19.1866 12.474 19.1433C12.7887 19.3876 12.9465 19.5081 13.2612 19.7515C13.2807 19.9865 13.2909 20.1036 13.3147 20.336C12.9516 20.8145 12.7752 21.0562 12.4316 21.5448C12.2034 21.5932 12.0889 21.6178 11.8607 21.6695C11.7292 21.5788 11.6639 21.5338 11.5324 21.443C11.8768 20.9425 12.0541 20.6948 12.418 20.2045C12.3544 20.1562 12.3222 20.1333 12.2585 20.0858C11.9973 20.4378 11.8692 20.6151 11.6181 20.9722C11.3882 21.024 11.272 21.0503 11.0412 21.1046C10.7138 20.8789 10.5492 20.7661 10.2218 20.5405C10.1929 20.3012 10.1794 20.1825 10.1539 19.9416C10.5204 19.4232 10.7087 19.1654 11.0955 18.6555ZM9.35907 21.1122C9.5915 21.0486 9.70772 21.0172 9.94015 20.957C10.7333 21.4888 11.1295 21.7552 11.9218 22.2879C11.7318 22.5704 11.6384 22.7129 11.4544 22.998C11.2533 22.869 11.1532 22.8046 10.9522 22.6756C10.8122 22.8919 10.7435 23.0022 10.6078 23.2211C10.8105 23.3466 10.9115 23.4102 11.1142 23.5366C10.9352 23.8242 10.847 23.9693 10.6739 24.2602C9.85278 23.7716 9.4422 23.5281 8.6219 23.0404C8.57609 22.8054 8.55489 22.6875 8.51247 22.4508C8.84161 21.9104 9.01042 21.6424 9.35907 21.1122ZM7.26124 24.642C7.87964 24.6666 8.18758 24.6835 8.80089 24.7251C8.31397 24.4553 8.07051 24.3196 7.58189 24.0507C7.75664 23.736 7.84486 23.5799 8.02555 23.2686C8.98921 23.8276 9.47105 24.1067 10.4347 24.6657C10.2651 24.9584 10.1819 25.1051 10.0182 25.4003C9.40827 25.3511 9.10204 25.3308 8.48787 25.2985C8.97904 25.5607 9.22504 25.6922 9.7162 25.9543C9.55757 26.2512 9.48038 26.3996 9.32769 26.6999C8.33518 26.1943 7.83808 25.9415 6.84557 25.436C7.00929 25.117 7.09243 24.9584 7.26124 24.642ZM6.62247 25.8813C7.62091 26.3759 8.12056 26.6236 9.11816 27.1181C8.96886 27.4193 8.8959 27.5703 8.75339 27.874C7.74561 27.3989 7.24173 27.1622 6.23395 26.6872C6.3858 26.3631 6.46384 26.202 6.62247 25.8813ZM5.84034 27.544C6.05835 27.4456 6.16778 27.3981 6.3858 27.3031C6.82012 27.5024 7.03729 27.6017 7.47161 27.8002C7.50809 27.9113 7.52675 27.9673 7.56323 28.0776C7.67096 28.0326 7.72525 28.0097 7.83299 27.9656C8.12226 28.0979 8.26732 28.1641 8.55658 28.2964C8.41662 28.601 8.34875 28.7536 8.21557 29.0607L7.66757 28.8232C7.56662 29.0565 7.51657 29.1744 7.41902 29.4077C7.63958 29.5001 7.74986 29.546 7.96956 29.6376C7.84147 29.9464 7.7787 30.1007 7.65654 30.4121C6.61993 30.004 6.10162 29.7996 5.065 29.3907C5.35936 28.6468 5.51375 28.2769 5.84034 27.544ZM4.88686 29.853C5.18461 29.9659 5.33306 30.0227 5.62996 30.1355C5.53665 30.3798 5.49085 30.5028 5.40093 30.7488C6.14912 31.0211 6.52237 31.1577 7.27057 31.43C7.1569 31.743 7.10091 31.9 6.99318 32.2155C6.24074 31.9568 5.86325 31.8287 5.11081 31.5708C5.02598 31.8177 4.98441 31.9415 4.90382 32.1901C4.60098 32.0908 4.44999 32.0416 4.14715 31.9432C4.42284 31.1 4.57044 30.6827 4.88686 29.853ZM3.55928 33.8986C4.32613 34.1106 4.70956 34.2167 5.47642 34.4296C5.54429 34.1844 5.57907 34.0623 5.65032 33.8197C4.88686 33.5957 4.50513 33.4837 3.74166 33.2606C3.84091 32.9213 3.89266 32.7508 3.99869 32.4132C4.90976 32.6991 5.3653 32.8424 6.27637 33.1283C6.37816 33.3361 6.42906 33.4396 6.5334 33.6449C6.36459 34.2006 6.2857 34.4805 6.13555 35.0412C5.93959 35.1608 5.84119 35.2211 5.64524 35.3432C4.71975 35.1065 4.25742 34.9886 3.33193 34.7519C3.41931 34.4092 3.46512 34.2387 3.55928 33.8986ZM3.10968 35.6596C3.30479 35.5239 3.40234 35.4569 3.59915 35.3245C4.37279 35.5137 4.75877 35.6079 5.53156 35.797C5.64608 35.9972 5.70461 36.0973 5.82168 36.295C5.68935 36.86 5.62827 37.1433 5.51544 37.7116C5.32712 37.8431 5.23296 37.9101 5.04549 38.045C4.26336 37.8983 3.8723 37.8236 3.09017 37.6769C2.96632 37.4758 2.90439 37.374 2.78309 37.1704C2.90439 36.5639 2.96886 36.2611 3.10968 35.6596ZM2.53708 38.5209C2.72286 38.3733 2.81617 38.3004 3.00364 38.1553C3.78662 38.2944 4.17853 38.364 4.96321 38.5031C5.09045 38.6948 5.15492 38.7907 5.28471 38.9799C5.16255 39.7153 5.10911 40.0835 5.01834 40.8232C3.91217 40.6875 3.35993 40.6205 2.25375 40.4856C2.34961 39.6967 2.40644 39.3039 2.53708 38.5209ZM2.10275 41.8997C2.42002 41.9277 2.5778 41.9421 2.89506 41.9709C2.84077 42.5749 2.81871 42.8778 2.78478 43.4835C2.86367 43.4877 2.90354 43.4894 2.98328 43.4945C3.01213 42.9779 3.03079 42.7191 3.0749 42.2042C3.38453 42.317 3.53977 42.373 3.85024 42.4833C3.81631 42.9058 3.80189 43.117 3.77814 43.5403C3.85788 43.5445 3.89775 43.5462 3.97749 43.5513C4.01057 42.9618 4.03178 42.6674 4.08522 42.0795C4.40248 42.1084 4.56111 42.1228 4.87753 42.1516C4.79524 43.0585 4.76725 43.5123 4.73332 44.4225C3.61951 44.3818 3.06302 44.3614 1.95006 44.3207C1.98484 43.3494 2.01538 42.8659 2.10275 41.8997ZM1.92461 45.2521C2.08579 45.0782 2.16807 44.9917 2.33094 44.8212C3.12665 44.8416 3.5245 44.8517 4.3202 44.873C4.47459 45.0443 4.55263 45.1291 4.70872 45.2971C4.69684 46.0419 4.69854 46.4143 4.71974 47.1608C3.60593 47.1922 3.04945 47.2066 1.93564 47.238C1.91358 46.444 1.91189 46.0462 1.92461 45.2521ZM2.02641 49.1051C2.17231 48.9176 2.24611 48.8252 2.39541 48.6402C3.3489 48.5834 3.82564 48.5546 4.77913 48.4986C4.79864 48.8303 4.81051 48.9957 4.83596 49.3265C4.59759 49.3452 4.47883 49.3545 4.24046 49.374C4.25997 49.626 4.27184 49.7515 4.29475 50.0043C4.53227 49.9814 4.65103 49.9704 4.8894 49.9483C4.92079 50.2791 4.93776 50.4446 4.97508 50.7754C4.02584 50.8831 3.55164 50.9366 2.60325 51.0452C2.42595 50.8882 2.33688 50.8093 2.16044 50.6498C2.09597 50.0323 2.06882 49.7235 2.02641 49.1051ZM2.48449 53.1184C3.27001 52.9928 3.66362 52.9301 4.44914 52.8045C4.40927 52.5526 4.38976 52.427 4.35328 52.1751C4.11661 52.209 3.99869 52.2268 3.76287 52.2608C3.79256 51.9087 3.80867 51.7331 3.84515 51.3836C4.31935 51.3242 4.55602 51.2954 5.02937 51.236C5.14219 52.1445 5.21176 52.5975 5.37378 53.5018C4.27778 53.6986 3.72894 53.7979 2.63294 53.9955C2.57016 53.6452 2.54132 53.4696 2.48449 53.1184ZM2.81023 54.9202C2.93069 54.714 2.99177 54.6114 3.11477 54.4086C3.89605 54.2585 4.28711 54.1838 5.06839 54.0345C5.25672 54.1711 5.35088 54.2373 5.54005 54.3705C5.65626 54.9439 5.71819 55.2306 5.85476 55.8015C5.7394 56.0017 5.68086 56.1027 5.56804 56.3054C4.79524 56.4972 4.40927 56.593 3.63732 56.7847C3.43967 56.6507 3.34126 56.5837 3.14531 56.4463C3.00025 55.8372 2.93323 55.5326 2.81023 54.9202ZM3.48802 57.7959C3.5949 57.5813 3.64835 57.4752 3.75778 57.2632C3.98851 57.2029 4.10473 57.1724 4.33547 57.1122C4.50088 57.4311 4.58487 57.5898 4.75622 57.9045C4.60268 57.9477 4.52633 57.9689 4.37279 58.0122C4.44405 58.2667 4.48137 58.3931 4.55687 58.6476C5.01495 58.511 5.24314 58.4431 5.70122 58.3074C5.62827 58.0606 5.59179 57.9359 5.52223 57.689C5.36954 57.7314 5.29234 57.7535 5.13965 57.7959C5.12184 57.4413 5.1159 57.264 5.10572 56.9111C5.33645 56.8517 5.45267 56.8212 5.68341 56.761C5.88021 56.8848 5.97861 56.9468 6.17627 57.0672C6.32981 57.6347 6.41209 57.9189 6.58599 58.483C6.48335 58.6908 6.4333 58.796 6.3332 59.0064C5.57483 59.249 5.19649 59.3695 4.43811 59.6112C4.23198 59.4899 4.12933 59.428 3.92489 59.3033C3.73911 58.7044 3.65259 58.4016 3.48802 57.7959ZM4.35922 60.6394C4.45083 60.4171 4.49834 60.3068 4.5925 60.0871C4.7435 60.0371 4.81899 60.0125 4.96999 59.9624C5.16425 60.5503 5.26774 60.8438 5.48406 61.4274C5.55786 61.4003 5.59603 61.3859 5.67068 61.3579C5.51714 60.9431 5.44249 60.7352 5.29913 60.3179C5.39244 60.099 5.43995 59.9904 5.53665 59.7741C5.91414 59.6494 6.10247 59.5866 6.4808 59.4619C6.68609 59.5739 6.78789 59.6291 6.99318 59.7376C7.18574 60.2992 7.28669 60.5783 7.49876 61.1339C7.41054 61.3494 7.36727 61.4571 7.28244 61.676C7.13484 61.7337 7.06019 61.7634 6.91259 61.8211C6.69033 61.2561 6.5843 60.9728 6.3824 60.4036C6.30775 60.4298 6.27043 60.4434 6.19493 60.4697C6.33914 60.8786 6.41379 61.0822 6.56988 61.4885C6.48335 61.7074 6.44094 61.8177 6.35695 62.0399C5.98625 62.1858 5.80132 62.2588 5.43062 62.4047C5.21769 62.2953 5.10996 62.241 4.89704 62.1281C4.67139 61.5343 4.56366 61.2366 4.35922 60.6394ZM6.2577 65.3143C5.82762 64.4041 5.62572 63.9443 5.24908 63.0188C5.54429 62.8984 5.69104 62.839 5.9871 62.7185C6.22208 63.2979 6.34508 63.5847 6.60211 64.1573C6.67422 64.1259 6.71154 64.1081 6.78365 64.0758C6.56479 63.5872 6.45875 63.342 6.25601 62.8492C6.5843 62.8102 6.74802 62.7898 7.07546 62.7474C7.24427 63.1503 7.3308 63.3505 7.51064 63.7518C7.58274 63.7187 7.61922 63.7017 7.69217 63.6703C7.44277 63.1122 7.32231 62.8322 7.09327 62.269C7.38848 62.1493 7.53524 62.09 7.83044 61.9695C8.18418 62.8382 8.37335 63.2691 8.77629 64.1242C7.76852 64.6001 7.26463 64.8376 6.2577 65.3143ZM84.1702 56.4666C78.3891 77.5485 56.6117 89.9522 35.5307 84.1702C14.4488 78.39 2.04507 56.6117 7.8262 35.5307C13.6073 14.4488 35.3848 2.04507 56.4658 7.82705C77.5476 13.6082 89.9514 35.3848 84.1702 56.4666Z" fill="#D4AF37"/>
<path d="M3.90939 45.7059C3.43147 45.7033 3.19294 45.7016 2.71502 45.6982C2.71332 45.9588 2.71332 46.0887 2.71502 46.3493C3.19294 46.3451 3.43147 46.3434 3.90939 46.34C3.90769 46.0853 3.90769 45.9588 3.90939 45.7059Z" fill="#D4AF37"/>
<path d="M88.8095 42.9635C83.9997 36.2764 74.6913 38.9943 74.6913 38.9943C70.9368 34.3406 71.0547 32.4243 71.0547 32.4243C72.736 33.6755 73.0499 32.2292 73.0499 32.2292C64.7968 20.1842 73.4011 13.7304 73.4011 13.7304C68.5913 9.23274 62.4513 14.6304 62.4513 14.6304C52.2047 8.33439 40.472 14.7874 40.472 14.7874C35.232 11.306 30.2262 13.9264 30.2262 13.9264C33.5117 17.5248 33.7509 22.0607 33.7509 22.0607C31.8007 28.4746 33.5507 32.5032 33.5507 32.5032C32.6897 39.3472 34.2149 41.5375 34.2149 41.5375C19.3927 41.4586 17.3194 57.1801 17.3194 57.1801C9.92824 63.4371 11.5705 75.6399 11.5705 75.6399C9.8502 85.5725 16.9284 88.427 16.9284 88.427C27.4489 91.9856 36.0142 80.4098 36.0142 80.4098C37.9305 83.3822 41.8801 85.9059 41.8801 85.9059C56.369 92.9162 64.8749 83.9302 64.8749 83.9302C65.3567 84.3035 71.1557 76.707 70.6738 76.3338C70.2276 75.9885 73.9686 75.1122 73.9686 75.1122C84.8208 71.8861 86.2867 60.329 86.2867 60.329C89.2795 58.5679 93.6202 49.6515 88.8095 42.9635ZM44.6532 29.6622C42.5435 29.6767 41.7919 28.4305 41.3949 26.6406C40.9996 24.8516 41.7478 24.6463 41.7478 24.6463C42.2466 24.6166 42.3492 24.8516 42.3492 24.8516C42.3492 24.8516 41.9234 26.2156 42.8913 27.4991C43.8592 28.7834 45.6932 27.7256 45.6932 27.7256L45.8985 28.3559C46.1038 28.9878 46.7629 29.647 44.6532 29.6622ZM61.8252 24.9983C61.7226 26.9341 61.223 28.0632 60.11 28.8691C58.9953 29.6758 56.9119 29.2652 56.6328 29.0014C56.3546 28.7376 57.1028 27.8579 57.1028 27.8579C57.1028 27.8579 58.393 28.21 59.3762 27.4592C60.3585 26.7085 59.8462 24.9983 59.8462 24.9983C59.8462 24.9983 60.5935 24.7489 61.3282 24.558C62.0611 24.3672 61.8252 24.9983 61.8252 24.9983Z" fill="black"/>
<path d="M31.38 14.1997C31.38 14.1997 34.3711 17.8753 34.3321 21.4144C34.3321 21.4144 38.1061 18.951 39.885 19.303C39.885 19.303 39.3396 17.7964 36.228 18.403C36.228 18.403 36.5215 16.8192 38.8883 16.6623C38.8883 16.664 36.2484 13.3005 31.38 14.1997Z" fill="#D4AF37"/>
<path d="M36.6583 20.9263C36.6583 20.9263 37.6364 19.5767 40.8235 19.7726C40.8235 19.7726 42.8967 21.5914 43.7569 23.7418C43.7569 23.7418 40.6097 21.3946 36.6583 20.9263Z" fill="#D4AF37"/>
<path d="M71.5042 31.3345C70.6237 30.2928 69.2164 27.1838 68.4538 21.5816C68.4538 21.5816 67.6173 20.6282 67.3968 20.8038C67.1771 20.9802 67.8074 21.4349 67.8667 21.8013C67.9253 22.1678 68.7464 29.0899 67.1338 32.8445C65.5212 36.599 63.2622 39.356 62.7931 37.3905C62.7931 37.3905 60.5349 39.356 59.4491 39.1804C58.3641 39.0039 60.7105 38.5645 62.0602 37.0978C63.4098 35.6311 64.113 35.162 63.9077 35.9831C63.7033 36.8043 63.2919 38.0657 64.5533 36.3937C65.8147 34.7217 66.9591 32.9615 66.8411 30.6737C66.8411 30.6737 61.8549 39.2389 54.0234 31.3481C54.0234 31.3481 52.0876 32.1989 52.5567 31.231C53.0258 30.2622 54.6978 30.879 57.0442 26.6841C59.3914 22.4893 60.9158 17.6634 66.0785 17.7304C66.0785 17.7304 65.2277 16.0075 62.441 17.4157C62.441 17.4157 61.1508 17.6201 62.6752 16.2425C64.2004 14.864 66.4883 12.8985 71.0054 13.1911C71.0054 13.1911 67.1635 11.168 63.6719 14.3652C60.1803 17.5624 59.3897 20.2608 58.1868 22.3434C56.984 24.426 54.7843 29.4123 51.3818 31.3481C51.3818 31.3481 48.8004 30.3513 45.7797 24.1333C42.7589 17.9145 41.9462 14.1803 34.5067 13.7892C34.5067 13.7892 38.3393 14.3559 40.2064 16.9771C40.2064 16.9771 39.23 16.726 37.3569 17.7312C37.3569 17.7312 41.9581 17.4072 45.2826 25.6195C45.2826 25.6195 46.8655 31.0367 49.9948 31.1139C49.9948 31.1139 50.3664 31.4863 49.9948 31.6814C49.6233 31.8766 48.4688 31.7391 47.668 30.7424C47.668 30.7424 46.5813 34.614 42.3339 34.4579C38.0865 34.3018 36.2482 30.8408 36.2482 30.8408C36.2482 30.8408 37.4019 35.5132 41.0004 37.8401C41.0004 37.8401 40.9613 35.8067 41.998 37.1368C43.0346 38.4661 43.3663 38.9157 45.9867 39.5027C45.9867 39.5027 44.5505 40.1373 42.0565 38.4076C42.0565 38.4076 41.7621 39.121 40.3251 38.0649C38.889 37.0087 32.5717 30.9774 35.4271 21.4154C35.4271 21.4154 32.5726 24.5244 34.2539 32.5416C35.9352 40.558 39.4454 41.3792 39.4454 41.3792C39.4454 41.3792 38.2723 39.5019 38.7125 39.5604C39.1528 39.6189 41.176 43.3438 44.4911 44.1073C44.4911 44.1073 44.7252 43.6958 43.7582 42.9044C42.7894 42.1129 44.7846 42.5235 46.1639 43.1394C47.5424 43.7552 48.9497 44.3711 50.5929 46.4833L51.1324 46.2781C51.1324 46.2781 54.9642 41.878 58.572 41.5844C58.572 41.5844 58.8052 41.9076 58.0732 42.3471C57.3402 42.7873 56.7524 43.6085 57.2809 43.5491C57.8085 43.4906 61.2992 41.8771 62.8533 40.4112C64.4074 38.9445 63.9383 40.3527 63.6456 40.7048C63.3521 41.0568 62.7948 41.6133 63.2054 41.6727C63.6159 41.732 68.7778 38.0649 69.0128 33.6062C69.0128 33.6062 69.3801 31.7442 69.0128 30.9528C68.6463 30.1604 69.8187 30.4395 70.1266 30.8798C70.4345 31.3192 70.7433 32.0818 71.5059 32.288C72.2677 32.4924 72.3848 32.3753 71.5042 31.3345ZM50.9042 44.3618C50.9042 44.3618 50.3757 41.967 47.6188 40.6963C47.6188 40.6963 50.1221 41.0084 50.9042 42.7788C50.9042 42.7788 51.8619 40.8922 53.886 40.491C53.886 40.491 51.5684 41.8686 50.9042 44.3618ZM53.8181 34.927C53.025 34.077 53.114 34.575 52.7035 35.5276C52.2929 36.4811 51.8823 38.9454 51.325 38.886C50.7676 38.8275 50.0644 34.7209 49.7709 34.6327C49.4765 34.5444 47.981 35.777 47.6595 35.9229C47.3363 36.0697 47.0419 35.8059 47.0419 35.8059C47.0419 35.8059 48.8013 34.6912 50.005 33.4009C51.2079 32.1107 51.6176 32.1692 51.6176 32.1692C52.1843 32.1013 52.527 32.4627 53.2608 33.4892C53.9937 34.5156 55.6945 36.4514 55.6945 36.4514C55.0202 36.6287 54.6087 35.7779 53.8181 34.927Z" fill="#D4AF37"/>
<path d="M36.2086 21.3369C36.2086 21.3369 34.5001 26.4818 36.464 29.8233C38.4269 33.1647 41.4299 34.399 43.8552 33.5778C46.2796 32.7567 46.9642 31.407 46.9642 31.407C46.9642 31.407 42.9755 33.6559 40.3161 31.9542C37.6567 30.2533 36.9526 26.7338 37.2071 25.228C37.4607 23.7223 37.9688 22.5686 39.6306 22.3727C39.6306 22.3735 38.8884 21.493 36.2086 21.3369Z" fill="#D4AF37"/>
<path d="M44.5641 25.7314C44.5641 25.7314 42.3789 23.6056 39.3725 24.3385C39.3725 24.3385 38.3308 27.327 40.6628 29.9551C42.9947 32.5839 46.6755 29.8821 46.6755 29.8821L47.2913 30.6159C47.2913 30.6159 45.1808 32.5356 42.775 32.1615C40.3693 31.7882 38.5658 29.9848 38.1264 28.1075C37.6852 26.231 37.452 23.2976 40.3845 22.7988C40.3845 22.7988 41.9394 22.4909 44.7549 25.4676C44.7541 25.4676 45.0917 26.0105 44.5641 25.7314Z" fill="#D4AF37"/>
<path d="M40.399 24.4994C40.399 24.4994 40.8087 24.4697 40.706 25.6437C40.6034 26.8161 41.0581 29.8521 44.3724 30.2627C44.3724 30.2627 45.0027 30.468 44.3724 30.6589C43.7421 30.8497 41.6434 30.8353 40.5728 28.6637C39.504 26.4946 39.4014 24.06 40.399 24.4994Z" fill="#D4AF37"/>
<path d="M41.0878 15.1281C41.0878 15.1281 46.8664 12.1056 52.5567 12.5612C58.2471 13.0176 61.6496 14.9822 61.6496 14.9822C61.6496 14.9822 58.2471 19.7632 56.6633 23.5466C55.0796 27.33 51.3691 30.4984 51.3691 30.4984C51.3691 30.4984 48.4247 28.7466 45.1952 21.4148C45.1944 21.4148 43.6106 16.9172 41.0878 15.1281Z" fill="#D4AF37"/>
<path d="M63.5839 16.3602C63.5839 16.3602 67.6616 12.5624 72.4138 13.8967C72.4138 13.8967 69.4066 17.2848 68.6592 20.9656C68.6592 20.9656 67.8661 19.4259 64.1862 18.8677C64.1862 18.8677 63.7756 18.5454 65.0658 18.4428C66.3561 18.3401 67.279 18.4428 67.2663 17.8269C67.2519 17.211 66.5478 16.2295 63.5839 16.3602Z" fill="#D4AF37"/>
<path d="M60.0074 22.9452C60.0074 22.9452 61.0627 20.4521 63.0426 19.3077C63.0426 19.3077 65.3449 19.2348 67.1492 20.4521C67.1492 20.4521 63.8044 20.5547 60.0074 22.9452Z" fill="#D4AF37"/>
<path d="M64.1427 21.845C64.1427 21.845 66.7529 23.1802 66.2405 26.1569C65.7273 29.1336 65.3311 30.9964 62.9695 32.2875C60.6087 33.5778 56.8694 32.8296 55.2992 31.8473C55.2992 31.8473 57.5921 34.4719 60.8029 34.0325C64.0137 33.5931 65.9173 31.9058 66.5179 29.9988C67.1193 28.0919 67.3111 26.2892 67.3255 24.367C67.3391 22.4465 67.6029 20.7897 66.2829 21.0527C64.963 21.3174 64.5677 21.4786 64.1427 21.845Z" fill="#D4AF37"/>
<path d="M59.7281 23.9564C59.7281 23.9564 59.1266 24.2211 59.1114 24.5282C59.0969 24.8361 59.3455 24.719 59.8451 24.5282C60.3431 24.3382 61.8692 23.6782 63.6727 23.9564C63.6727 23.9564 65.2717 28.8112 60.5636 30.937C60.5636 30.937 57.4538 31.9788 56.0762 29.6027C56.0762 29.6027 54.9471 30.4535 54.9903 30.7021C55.0353 30.9515 56.5894 32.8508 60.0072 32.4326C63.4233 32.0144 64.6702 29.3448 65.052 28.1911C65.432 27.0366 66.3855 23.6044 63.9806 22.4753C63.9806 22.4753 62.7489 22.1674 61.2389 23.0615L59.7281 23.9564Z" fill="#D4AF37"/>
<path d="M62.1034 24.6022C62.1034 24.6022 62.5682 28.3847 60.2753 29.5223C60.2753 29.5223 58.5838 30.0728 57.2053 29.8387C57.2053 29.8387 57.4403 30.7184 59.2735 30.4987C61.1066 30.2789 62.603 29.0998 63.0424 27.4601C63.4827 25.8203 63.5557 24.3833 63.2766 24.2951C62.9983 24.2068 62.2942 24.4698 62.1034 24.6022Z" fill="#D4AF37"/>
<path d="M33.9409 34.2227C33.9409 34.2227 33.7678 42.8074 37.8625 47.3246C37.8625 47.3246 37.793 47.5986 38.4572 47.5392C39.1223 47.4807 38.145 46.601 37.871 46.092C37.5979 45.583 37.1669 44.3123 37.3434 42.787C37.3434 42.787 37.5385 42.5919 37.7149 43.5293C37.8897 44.4684 38.3792 47.5943 41.2727 47.5468C41.2727 47.5468 39.6295 45.6212 39.6889 43.9204C39.6889 43.9204 39.9239 43.7253 40.5694 45.3285C41.2142 46.9318 41.567 47.3619 43.2475 48.2424C44.9297 49.123 45.1443 49.1611 45.3598 49.7286C45.3598 49.7286 47.9988 47.4213 50.0721 46.8538C50.0721 46.8538 48.2737 43.9399 44.7736 43.2952C44.7736 43.2952 44.6557 43.4716 45.0858 43.9212C45.5159 44.3708 45.3411 44.9383 44.4012 44.7424C43.463 44.5473 41.9573 43.7846 40.9987 42.8651C40.0401 41.9464 40.119 42.083 39.6694 42.083C39.2198 42.083 38.6922 41.7309 37.8888 40.9683C37.0889 40.2065 34.74 37.3486 33.9409 34.2227Z" fill="#D4AF37"/>
<path d="M52.058 45.662C52.058 45.662 55.0491 43.2274 56.8101 42.8168C56.8101 42.8168 56.9857 42.8745 56.5166 43.3147C56.0475 43.755 55.525 44.1944 56.8424 44.107C58.1589 44.0188 59.1268 43.3147 60.1533 42.8168C61.1806 42.318 61.737 41.4968 61.9729 41.7607C62.207 42.0245 61.3858 42.6208 62.4997 42.4257C63.6152 42.2298 70.2437 39.1208 69.6576 31.5531C69.6576 31.5531 70.0673 30.9669 70.2734 31.9934C70.4796 33.0198 71.5942 36.7744 74.1162 39.209C74.1162 39.209 74.1162 39.7663 73.5589 39.7951C73.0016 39.824 72.0048 39.7383 71.4475 38.8866C70.8901 38.0349 70.8613 37.2426 70.421 37.1841C69.9799 37.1256 70.1861 37.7414 70.421 38.152C70.6552 38.5626 71.271 39.589 71.8877 39.9114C72.5036 40.2346 72.1219 40.4984 71.4475 40.8504C70.7722 41.2025 70.5966 41.3492 70.5966 41.3492C70.5966 41.3492 70.3625 41.6139 69.8629 40.9963C69.3649 40.3805 69.0417 39.9699 68.9255 40.2049C68.8076 40.4399 69.3352 41.0549 69.5117 41.3781C69.6881 41.7013 69.7763 41.9354 69.3649 42.2281C68.9543 42.5216 67.0771 44.0477 65.9039 45.4838C65.9039 45.4838 65.9336 45.9241 65.0233 45.4253C64.1148 44.9265 57.8374 44.2233 52.2938 45.9538C52.2921 45.9555 51.9647 46.0954 52.058 45.662Z" fill="#D4AF37"/>
<path d="M40.7656 56.0841C40.7656 56.0841 44.4607 49.4165 51.6178 46.8546C58.7757 44.2936 65.188 46.3075 65.188 46.3075C65.188 46.3075 63.0384 48.8889 62.6847 52.5645C62.6847 52.5645 62.7347 53.0048 62.1969 52.6723C61.6582 52.3389 59.4688 50.9909 55.7829 50.9808C55.7829 50.9808 55.5972 51.1665 55.9187 51.2938C56.2419 51.421 59.0574 51.2743 61.9806 53.1804C61.9806 53.1804 62.4209 53.5138 62.0103 53.7089C61.5989 53.904 57.1122 54.5792 53.8463 61.559C53.8463 61.559 48.5368 60.5037 43.0823 65.4018C43.0823 65.4018 40.1981 65.5485 39.9537 65.3042C39.7094 65.0599 39.0155 63.9452 39.8952 62.7424C40.7749 61.5403 42.7022 59.0082 48.2747 56.8959C48.2747 56.8959 48.9686 56.4658 48.0881 56.4853C47.2092 56.5049 41.9973 58.8606 39.6221 61.7057C39.6221 61.7057 39.1233 62.2037 39.2403 61.0602C39.3582 59.9159 40.1743 54.5198 51.1317 51.9088C51.1317 51.9088 51.6967 51.3956 50.0739 51.6594C48.4511 51.9241 43.8457 52.9649 41.2508 56.2063C41.2491 56.2071 40.6918 56.7246 40.7656 56.0841Z" fill="#D4AF37"/>
<path d="M37.5383 61.0998C37.5383 61.0998 38.6522 61.4611 38.7115 62.5266C38.7701 63.5929 38.7607 64.2385 38.9363 64.56C39.1128 64.8832 39.2205 65.2539 38.4876 65.0876C37.7547 64.9222 35.4855 64.213 33.447 63.0551C31.4094 61.8963 26.569 63.5539 26.3205 63.5089C26.0711 63.4657 25.0888 63.7439 26.0422 59.74C26.9949 55.7368 27.4793 53.5321 32.7879 49.7284C32.7879 49.7284 37.3526 47.1275 42.0072 48.5645C42.0072 48.5645 45.2086 49.6096 44.2704 50.4884C43.3331 51.3664 41.8655 53.0376 40.3691 55.5757C40.3691 55.5757 40.2079 56.1474 39.4894 55.7368C38.7709 55.3263 34.2351 52.9544 30.3431 54.187C30.3431 54.187 30.07 54.4211 31.0082 54.3236C31.9464 54.2252 37.3051 54.4203 39.3579 56.6301C39.3579 56.6301 39.7329 56.8846 39.2231 58.0968C38.7132 59.309 38.7904 60.9513 38.7904 60.9513C38.7904 60.9513 39.0644 61.3814 37.9896 60.6383C36.914 59.8952 34.2156 57.2952 28.8179 58.2334C28.8179 58.2334 28.3089 58.683 28.9163 58.7814C29.522 58.8789 32.5919 58.2334 34.6847 59.505C36.7757 60.7774 37.5383 61.0998 37.5383 61.0998Z" fill="#D4AF37"/>
<path d="M31.5948 45.1538C31.5948 45.1538 32.455 46.875 32.3184 49.0653C32.3184 49.0653 32.2997 49.2214 33.3949 48.6743C34.4892 48.1263 35.7599 47.6376 37.0315 47.6962C37.0315 47.6962 37.286 47.5206 36.6795 46.797C36.0729 46.0725 34.7632 43.3351 34.6851 42.8855C34.6062 42.4359 34.5087 42.1432 33.1404 42.2018C31.7721 42.2595 29.7184 42.0253 26.3159 44.3132C22.9133 46.601 19.9409 48.3409 17.9864 57.1793C17.9864 57.1793 17.7998 60.0049 18.1086 59.8879C18.4165 59.77 19.208 57.9648 21.5552 56.6313C21.5552 56.6313 21.8962 52.3296 25.3191 48.8694C25.3191 48.8694 25.7288 48.6929 25.5151 49.1824C25.2987 49.671 22.5621 52.1158 22.5231 55.9475C22.5231 55.9475 22.4646 56.1231 23.6369 55.4394C24.811 54.7548 26.1784 54.2857 27.3321 54.0703C27.3321 54.0703 29.1509 51.1564 31.4396 49.7295C31.4396 49.7295 31.8306 46.6791 31.2631 45.6034C31.2623 45.6034 30.9297 44.9197 31.5948 45.1538Z" fill="#D4AF37"/>
<path d="M16.8114 58.5094C16.8114 58.5094 12.2526 63.1869 12.2552 73.3511C12.2552 73.3511 12.1381 74.7593 12.8413 72.921C13.5446 71.0828 14.1248 70.4186 14.5286 70.4771C14.9341 70.5348 14.3861 71.0047 13.9551 71.8259C13.5251 72.6479 12.1958 74.7983 11.9608 76.7732C11.7258 78.748 12.7429 85.7685 17.1617 87.6848C21.5813 89.6002 25.0619 88.1929 30.7319 84.3595C30.7319 84.3595 34.4084 81.818 35.4247 79.7838C35.4247 79.7838 35.5824 79.3935 35.2491 79.1382C34.9165 78.8846 34.2718 78.1406 34.2718 78.1406C34.2718 78.1406 34.3108 77.7114 33.6068 78.4536C32.9027 79.1976 30.0286 82.1106 27.6042 82.1106C27.6042 82.1106 27.3497 81.9732 27.8977 81.8171C28.4457 81.6602 30.5181 80.9765 31.8864 79.5293C33.2547 78.0829 34.1938 77.887 33.4905 76.9479C32.7865 76.0105 30.7522 72.8023 30.088 71.9039C29.423 71.0039 29.188 70.2998 28.3473 70.2811C27.5067 70.2616 25.6294 70.7503 23.9277 71.5129C22.226 72.2755 18.6776 74.1714 17.2109 77.2219C17.2109 77.2219 16.4771 79.8033 19.8796 79.8618C23.2822 79.9203 26.392 77.5137 26.392 77.5137C26.392 77.5137 26.8026 76.9869 27.1249 77.2499C27.4473 77.5129 24.5139 79.5674 22.0504 80.1545C19.587 80.7415 16.8589 80.8289 16.6239 78.8642C16.3898 76.8996 17.1235 75.365 19.4988 73.5208C19.4988 73.5208 18.6768 71.6486 20.2317 69.566C20.2317 69.566 20.2376 65.6062 25.6311 63.8171C25.6311 63.8171 24.3841 58.6697 26.6847 55.2816C26.6847 55.2816 26.8654 54.636 25.6311 55.0763C24.3968 55.5166 19.7914 58.1862 18.2662 61.1187C16.7409 64.0521 16.271 64.9021 16.0072 68.8331C16.0072 68.8331 15.6263 69.3319 15.6263 68.3631C15.6263 67.3952 15.0096 64.7265 17.3271 61.0602L17.2389 58.4788C17.2414 58.4797 17.11 58.1649 16.8114 58.5094Z" fill="#D4AF37"/>
<path d="M21.4462 68.4429C21.4462 68.4429 20.7421 69.0681 21.2697 67.8949C21.7982 66.7217 23.3421 65.1956 26.6267 64.2972C29.9122 63.3972 30.7919 63.4362 30.7919 63.4362C30.7919 63.4362 32.161 63.1631 31.0854 63.9053C30.0097 64.6493 29.4812 65.8411 29.4626 66.5843C29.4439 67.3274 29.8341 66.6818 29.9512 66.3891C30.0691 66.0956 31.0463 64.5712 31.6325 64.2184C32.2195 63.8672 32.7277 63.8858 33.8228 64.2769C34.918 64.668 36.7562 65.6062 38.5945 65.9972C40.4319 66.3883 43.9913 66.105 46.0442 66.5452C48.0971 66.9855 52.2911 67.9822 54.9021 70.4762C57.5115 72.9685 57.9526 74.6117 57.8932 75.6093C57.8338 76.6069 57.3935 78.7471 54.4033 78.9227C51.4122 79.0992 49.182 78.7183 47.3345 77.9853C45.486 77.2516 43.5214 76.1658 41.4965 74.6702C39.4733 73.1738 38.0066 72.2364 38.0066 72.2364C38.0066 72.2364 37.6834 72.0888 37.7733 72.4714C37.8607 72.8523 41.6441 75.8442 44.7234 77.4569C47.8036 79.0703 49.7979 80.0382 53.0825 79.7744C56.3671 79.5089 58.392 79.0406 58.6847 75.521C58.6847 75.521 59.7705 75.4625 60.1514 74.5234C60.1514 74.5234 60.6502 74.817 61.6477 74.1426C61.6477 74.1426 64.2868 74.0247 64.1706 71.0624C64.0527 68.1002 62.8803 64.1106 54.8147 61.676C54.8147 61.676 57.7176 52.2116 69.2162 53.8539C69.2162 53.8539 75.4147 54.3629 74.1134 60.0727C72.8139 65.7818 67.143 68.9111 67.143 68.9111C67.143 68.9111 67.2601 69.3412 67.5341 69.2623C67.8072 69.1843 72.7613 65.2736 74.2933 61.8313C75.8253 58.3906 74.8082 57.4125 74.8082 57.4125C74.8082 57.4125 82.8645 58.4296 84.5068 47.7529C84.5068 47.7529 84.3507 47.1277 83.8816 48.9652C83.4125 50.8034 81.5742 56.0824 74.8091 56.6304C74.8091 56.6304 72.5797 51.2734 63.3113 53.3458C63.3113 53.3458 63.8593 46.6773 70.9765 41.9752C78.0945 37.2723 84.1937 40.1658 84.1937 40.1658C84.1937 40.1658 90.1386 42.8252 89.8264 48.418C89.5134 54.01 90.2565 60.1499 77.4685 63.9834C77.4685 63.9834 77.1953 64.2964 77.6636 64.2964C78.1335 64.2964 82.9247 63.0698 84.8597 61.5199C84.8597 61.5199 85.2897 60.8939 85.2507 61.676C85.2109 62.4581 82.0043 72.6267 72.9318 74.7389C63.8593 76.8495 61.9811 79.5488 61.9811 79.5488C61.9811 79.5488 62.06 80.1239 62.5291 79.8168C62.9982 79.5089 65.1487 77.9845 66.908 77.3975C68.6682 76.8113 69.9593 76.0292 69.5683 76.7714C69.2307 77.4136 65.7119 85.145 56.7471 87.1893C45.5751 88.5364 36.2693 73.7965 35.6025 73.8779C34.7356 73.9865 44.7243 86.755 52.0875 87.6831C40.1206 89.4238 31.2423 72.2755 31.2423 72.2755C31.2423 72.2755 30.0004 69.303 27.8898 69.5083C25.7776 69.7128 22.7271 71.5018 21.788 71.9709C20.8498 72.4409 19.9116 73.5555 19.8234 72.6462C19.7352 71.7368 20.234 70.2989 21.3783 69.3319C22.5227 68.3631 25.1914 67.3367 25.8658 67.1908C26.541 67.0449 26.7455 66.5164 26.0422 66.5452C25.3373 66.5749 22.9799 67.2315 21.4462 68.4429Z" fill="#D4AF37"/>
<path d="M45.2631 64.786C45.2631 64.786 48.1176 62.342 51.4022 62.303C54.6877 62.264 57.2105 62.8892 59.1658 64.1412C61.1211 65.3933 63.252 68.0129 63.448 69.7527C63.644 71.4926 63.5057 73.2918 61.8829 73.0959C61.8829 73.0959 62.587 69.3421 59.1658 66.5657C55.7438 63.7892 54.5799 63.4168 54.3891 63.4847C54.1982 63.5542 54.4527 63.5932 55.508 64.4144C56.5641 65.2364 60.6121 67.6998 61.1983 71.5723C61.1983 71.5723 61.3934 73.6829 60.7682 73.6642C60.143 73.6455 60.2593 73.4097 60.143 72.8634C60.0251 72.3154 58.969 69.93 57.3267 68.3649C55.6844 66.8007 53.8665 65.3144 53.5331 65.0413C53.2006 64.7673 52.6534 64.4348 52.5169 64.6307C52.3803 64.8267 52.4388 64.7283 53.4746 65.686C54.5121 66.6446 56.5259 68.0918 57.6601 69.891C58.7943 71.6902 59.517 73.1171 59.4194 73.8008C59.3219 74.4845 58.9495 75.1691 58.3828 74.3098C57.8162 73.4504 56.5641 67.6812 45.2622 65.7259C45.2622 65.7259 43.7591 65.7259 44.4419 65.2372C45.1257 64.7469 45.2631 64.786 45.2631 64.786Z" fill="#D4AF37"/>
<path d="M41.7215 24.6377C41.7215 24.6377 40.9742 24.8439 41.3703 26.6329C41.7665 28.422 42.5181 29.669 44.6278 29.6545C46.7383 29.6393 46.0784 28.9801 45.8731 28.3482L45.6686 27.7179C45.6686 27.7179 43.8346 28.7757 42.8667 27.4905C41.8988 26.2062 42.3238 24.843 42.3238 24.843C42.3238 24.843 42.2212 24.6089 41.7215 24.6377Z" fill="#D4AF37"/>
<path d="M59.8198 24.9906C59.8198 24.9906 60.333 26.7008 59.3498 27.4515C58.3675 28.2023 57.0764 27.8502 57.0764 27.8502C57.0764 27.8502 56.329 28.7308 56.6064 28.9937C56.8855 29.2584 58.9681 29.6681 60.0836 28.8622C61.1974 28.0555 61.6953 26.9264 61.7988 24.9906C61.7988 24.9906 62.0347 24.3595 61.3009 24.5504C60.5671 24.7404 59.8198 24.9906 59.8198 24.9906Z" fill="#D4AF37"/>
<path d="M30.0194 106.712C24.016 106.573 23.8735 100.215 23.8735 100.215C23.8735 100.215 24.2171 100.136 25.4819 99.9855C26.745 99.8328 27.4499 99.8744 27.4499 99.8744C27.4499 101.644 27.9708 103.259 30.0915 103.713C32.2114 104.167 33.5288 102.651 33.6153 102.56C33.623 102.564 33.6289 102.565 33.634 102.567C32.1495 102.023 30.0652 101.082 27.1904 99.4587C27.1904 99.4587 23.1788 99.4884 20.3455 100.733C20.3455 100.733 21.3609 108.175 28.9769 108.385C28.9769 108.385 35.0965 108.854 36.9407 103.268C34.0463 106.858 30.0194 106.712 30.0194 106.712Z" fill="#D4AF37"/>
<path d="M34.7714 102.942C34.8197 102.957 34.8664 102.97 34.9123 102.983C34.8664 102.97 34.8189 102.957 34.7714 102.942Z" fill="#D4AF37"/>
<path d="M36.9337 103.269L36.9296 103.272L36.9337 103.269Z" fill="#D4AF37"/>
<path d="M34.4209 102.836C34.4735 102.853 34.5236 102.867 34.5737 102.882C34.5236 102.867 34.4727 102.853 34.4209 102.836Z" fill="#D4AF37"/>
<path d="M34.0461 102.712C34.0877 102.727 34.1251 102.738 34.165 102.752C34.1251 102.738 34.0877 102.726 34.0461 102.712Z" fill="#D4AF37"/>
<path d="M54.4214 103.269L54.4254 103.273L54.4214 103.269Z" fill="#D4AF37"/>
<path d="M55.5066 103.184C55.4867 103.189 55.4668 103.193 55.4469 103.196C55.4668 103.193 55.4867 103.189 55.5066 103.184Z" fill="#D4AF37"/>
<path d="M55.286 103.227C55.2729 103.229 55.2606 103.232 55.2474 103.234C55.2606 103.232 55.2737 103.229 55.286 103.227Z" fill="#D4AF37"/>
<path d="M63.3208 99.458C60.6936 101.082 58.7901 102.022 57.4336 102.566C57.4396 102.564 57.4455 102.563 57.4514 102.559C57.5312 102.65 58.7358 104.167 60.6724 103.712C62.6091 103.258 63.085 101.643 63.085 99.8737C63.085 99.8737 63.7288 99.8321 64.8842 99.9848C66.0387 100.136 66.3526 100.215 66.3526 100.215C66.3526 100.215 66.222 106.572 60.7377 106.713C60.7377 106.713 57.0578 106.859 54.4137 103.266C56.0984 108.855 61.6895 108.384 61.6895 108.384C68.6472 108.173 69.5753 100.731 69.5753 100.731C66.9863 99.4877 63.3208 99.458 63.3208 99.458Z" fill="#D4AF37"/>
<path d="M56.7153 102.836C56.6677 102.853 56.6219 102.867 56.576 102.882C56.621 102.867 56.6677 102.853 56.7153 102.836Z" fill="#D4AF37"/>
<path d="M55.7426 103.13C55.7227 103.135 55.7036 103.14 55.6846 103.143C55.7036 103.14 55.7227 103.135 55.7426 103.13Z" fill="#D4AF37"/>
<path d="M57.0571 102.712C57.0198 102.727 56.985 102.738 56.9485 102.752C56.985 102.738 57.0198 102.726 57.0571 102.712Z" fill="#D4AF37"/>
<path d="M56.3954 102.942C56.3512 102.957 56.3071 102.97 56.2664 102.983C56.3071 102.97 56.3512 102.957 56.3954 102.942Z" fill="#D4AF37"/>
<path d="M56.0814 103.038C56.0509 103.046 56.0195 103.056 55.9897 103.064C56.0195 103.057 56.0509 103.046 56.0814 103.038Z" fill="#D4AF37"/>
<path d="M17.2678 89.1564C17.2678 89.1564 3.83847 85.7759 0.552173 84.1319C0.552173 84.1319 -0.0119421 83.8342 0.223036 84.7113C0.458014 85.5885 1.58455 101.882 2.19532 113.95C2.19532 113.95 2.23434 114.428 2.20296 114.583C2.17157 114.738 2.46084 115.037 2.92316 114.983C3.38548 114.928 14.4354 114.698 17.4867 114.99V110.17H7.12562L6.89064 104.042C6.89064 104.042 12.2442 104.103 13.4488 104.385L15.2336 99.1264H6.65651L6.30446 91.692L17.2924 94.2903L17.2678 89.1564Z" fill="#D4AF37"/>
<path d="M19.9364 89.5247V89.5756V94.5144C19.9364 94.5144 31.0881 103.244 36.9405 103.267C36.9405 103.267 38.4369 110.85 30.7403 110.85H26.2774V109.019C26.2774 109.019 23.5154 108.158 20.9951 105.623C20.9951 105.623 20.5853 105.169 20.5853 105.762V114.806C20.5853 114.806 20.559 114.982 21.1698 114.982C21.7806 114.982 26.5709 114.747 34.7485 114.982C34.7485 114.982 41.2956 113.574 41.2956 107.094V100.394C41.2956 100.394 41.3134 100.097 40.6543 100.051C39.9952 100.003 29.9471 97.2332 20.8619 89.3449C20.8627 89.3449 19.9364 88.8945 19.9364 89.5247Z" fill="#D4AF37"/>
<path d="M63.201 90.3651C56.8931 93.1688 45.7813 93.0059 45.7804 93.0059C45.7796 93.0059 34.6669 93.1679 28.3598 90.3651C28.3598 90.3651 27.6676 90.0606 27.8788 90.612C28.0901 91.1634 33.6905 96.4025 38.0406 98.2034C38.0406 98.2034 38.2051 98.3043 38.6988 97.764C39.1917 97.2236 41.0613 96.1912 41.9936 96.4271C41.9936 96.4271 42.3219 96.4814 42.3143 97.5052C42.3058 98.5308 43.4018 112.321 43.4018 112.321C43.4018 112.321 43.574 112.493 43.7886 112.321C44.0049 112.149 44.3256 108.02 45.7813 108.02C47.2369 108.02 47.5576 112.149 47.7731 112.321C47.9877 112.493 48.1607 112.321 48.1607 112.321C48.1607 112.321 49.2559 98.5308 49.2482 97.5052C49.2398 96.4814 49.5689 96.4271 49.5689 96.4271C50.5012 96.1921 52.3708 97.2236 52.8645 97.764C53.3574 98.3043 53.5211 98.2034 53.5211 98.2034C57.872 96.4025 63.4716 91.1634 63.6828 90.612C63.8941 90.0606 63.201 90.3651 63.201 90.3651Z" fill="#D4AF37"/>
<path d="M47.5763 114.23C47.2717 108.666 45.7804 108.419 45.7804 108.419C45.7804 108.419 44.3841 108.666 44.0779 114.23C44.0779 114.23 44.6293 121.917 45.7804 121.917C46.9307 121.916 47.5763 114.23 47.5763 114.23Z" fill="#D4AF37"/>
<path d="M20.8866 100.928C20.8866 100.928 21.7018 100.661 22.3703 100.508C23.0379 100.356 23.4103 100.316 23.4103 100.316C23.4103 100.316 23.3076 106.687 29.9388 107.094C29.9388 107.094 32.8527 107.117 35.1498 105.427C35.1498 105.427 33.4524 108.124 28.6434 107.985C23.8353 107.848 21.3421 103.425 20.8866 100.928Z" fill="#D4AF37"/>
<path d="M70.319 89.334C63.8465 95.021 56.8795 98.0469 53.2505 99.3125C49.9837 100.317 50.1237 102.792 50.1237 102.792V107.084C50.1237 113.564 56.5945 114.974 56.5945 114.974C64.6753 114.739 70.0137 114.974 70.0137 114.974C70.0137 114.974 71.2335 115.083 71.2335 114.798V109.011V105.752V94.5052V93.0038V89.5656V89.5139C71.2344 88.8844 70.319 89.334 70.319 89.334ZM60.5552 110.841C52.9502 110.841 54.4279 103.258 54.4279 103.258C57.6608 103.244 62.5266 100.513 66.1929 98.1054V105.173C66.1938 111.027 60.5552 110.841 60.5552 110.841Z" fill="#D4AF37"/>
<path d="M69.0799 100.928C69.0799 100.928 68.3351 100.661 67.7251 100.508C67.1144 100.356 66.775 100.316 66.775 100.316C66.775 100.316 66.8675 106.687 60.8098 107.094C60.8098 107.094 58.1487 107.117 56.0492 105.427C56.0492 105.427 57.6007 108.124 61.9949 107.985C66.3874 107.848 68.6659 103.425 69.0799 100.928Z" fill="#D4AF37"/>
<path d="M91.4053 84.3432C90.82 84.6952 87.8883 86.8787 75.0943 88.7798C75.0943 88.7798 74.358 88.9214 74.3733 89.4262C74.3733 89.4262 74.6049 92.2552 73.5318 113.151L73.4342 114.513C73.4342 114.513 73.3613 115.003 73.9143 114.991C74.4666 114.981 78.5121 114.981 78.5121 114.981C78.5121 114.981 78.9999 115.051 78.8056 114.289C78.6105 113.525 78.9023 108.384 79.245 105.027C79.245 105.027 79.2213 104.709 79.8193 104.734C80.4174 104.757 86.375 104.734 86.375 104.734C86.375 104.734 91.2085 104.838 91.5996 98.9228L92 84.5765C92 84.5782 91.9915 83.9911 91.4053 84.3432ZM86.7813 91.787C86.7813 91.787 86.5531 96.1693 86.358 98.2035C86.1629 100.238 81.6712 100.112 80.4657 100.112C79.262 100.112 79.458 99.8687 79.458 99.8687C79.5869 95.3668 80.1485 92.3731 80.1485 92.3731C80.3037 92.2408 80.5964 92.2408 80.5964 92.2408C80.5964 92.2408 84.6979 91.6445 85.7727 91.5664C86.8458 91.4884 86.7813 91.787 86.7813 91.787Z" fill="#D4AF37"/>
</svg>
