<?xml version="1.0" encoding="utf-8"?>
<!-- Generator: Adobe Illustrator 16.0.3, SVG Export Plug-In . SVG Version: 6.00 Build 0)  -->
<!DOCTYPE svg PUBLIC "-//W3C//DTD SVG 1.1//EN" "http://www.w3.org/Graphics/SVG/1.1/DTD/svg11.dtd">
<svg version="1.1" id="Camada_1" xmlns="http://www.w3.org/2000/svg" xmlns:xlink="http://www.w3.org/1999/xlink" x="0px" y="0px"
	 width="633.333px" height="776.811px" viewBox="0 0 633.333 776.811" enable-background="new 0 0 633.333 776.811"
	 xml:space="preserve">
<path fill="#101946" d="M107.285,152.845c-1.21-0.778-1.816-1.168-3.027-1.946c-0.869,1.351-1.299,2.029-2.147,3.392
	c1.222,0.761,1.834,1.142,3.056,1.902C106.003,154.849,106.427,154.178,107.285,152.845"/>
<path fill="#101946" d="M136.472,121.042c-2.082-1.987-3.123-2.981-5.205-4.97c-1.173,1.23-1.755,1.851-2.913,3.103
	c2.114,1.955,3.17,2.932,5.284,4.887C134.764,122.843,135.33,122.239,136.472,121.042"/>
<path fill="#101946" d="M403.999,46.071c-1.567-0.495-2.354-0.736-3.927-1.209c-0.825,2.76-1.237,4.139-2.063,6.896
	c1.531,0.458,2.296,0.693,3.822,1.176C402.697,50.189,403.132,48.816,403.999,46.071"/>
<path fill="#101946" d="M75.147,238.928c-2.809-0.629-4.213-0.943-7.022-1.572c-0.343,1.531-0.509,2.298-0.829,3.832
	c2.818,0.588,4.227,0.882,7.045,1.469C74.653,241.163,74.814,240.418,75.147,238.928"/>
<path fill="#101946" d="M82.27,192.797c1.329,0.553,1.993,0.83,3.322,1.384c0.6-1.441,0.906-2.159,1.527-3.592l-3.301-1.433
	C83.188,190.609,82.878,191.337,82.27,192.797"/>
<path fill="#101946" d="M290.627,43.053c-0.369-2.854-0.553-4.281-0.921-7.137c-1.597,0.206-2.394,0.316-3.987,0.545
	c0.411,2.851,0.617,4.274,1.029,7.122C288.298,43.361,289.074,43.254,290.627,43.053"/>
<path fill="#101946" d="M250.426,47.767c-0.402-1.383-0.604-2.072-1.005-3.455c-1.549,0.449-2.323,0.681-3.865,1.153
	c0.423,1.376,0.635,2.064,1.057,3.44C248.135,48.439,248.898,48.21,250.426,47.767"/>
<path fill="#101946" d="M307.446,35.428c-0.03-0.479-0.044-0.719-0.074-1.196c-1.607,0.099-2.411,0.154-4.016,0.278
	c0.037,0.479,0.055,0.719,0.092,1.195C305.046,35.583,305.846,35.528,307.446,35.428"/>
<path fill="#101946" d="M438.006,59.473c-1.513-0.72-2.271-1.072-3.79-1.768c-0.598,1.311-0.896,1.965-1.493,3.275
	c1.499,0.684,2.247,1.033,3.739,1.744C437.079,61.423,437.388,60.775,438.006,59.473"/>
<path fill="#101946" d="M342.917,34.399c-1.613-0.114-2.42-0.167-4.033-0.258c-0.081,1.438-0.122,2.155-0.204,3.594
	c1.591,0.09,2.387,0.141,3.978,0.255C342.762,36.552,342.813,35.835,342.917,34.399"/>
<path fill="#101946" d="M360.671,36.27c-1.607-0.224-2.411-0.328-4.02-0.528c-0.178,1.428-0.267,2.142-0.444,3.571
	c1.587,0.196,2.38,0.302,3.965,0.521C360.372,38.41,360.471,37.697,360.671,36.27"/>
<path fill="#101946" d="M64.318,258.206c2.85,0.405,4.275,0.607,7.125,1.012c0.214-1.51,0.327-2.263,0.563-3.77
	c-2.843-0.447-4.265-0.67-7.109-1.117C64.654,255.88,64.538,256.655,64.318,258.206"/>
<path fill="#101946" d="M66.404,320.641c-0.145-1.546-0.211-2.319-0.334-3.866c-1.435,0.113-2.152,0.17-3.587,0.283
	c0.124,1.568,0.192,2.352,0.338,3.919C64.255,320.843,64.971,320.775,66.404,320.641"/>
<path fill="#101946" d="M75.333,353.748c-0.342-1.505-0.508-2.259-0.828-3.768c-2.816,0.597-4.224,0.895-7.04,1.492
	c0.328,1.55,0.498,2.324,0.85,3.871C71.122,354.705,72.526,354.386,75.333,353.748"/>
<path fill="#101946" d="M395.921,28.676C248.257-11.819,95.724,75.059,55.229,222.723s46.383,300.198,194.047,340.692
	c147.665,40.494,300.198-46.383,340.692-194.047C630.463,221.704,543.585,69.171,395.921,28.676 M458.373,64.728
	c3.497,2.004,5.233,3.041,8.678,5.189c0.478,1.427,0.709,2.141,1.164,3.568c-0.516,0.81-0.774,1.215-1.29,2.023
	c-3.367-2.15-5.066-3.189-8.486-5.197c-0.242,0.413-0.363,0.62-0.606,1.034c2.433,1.428,3.642,2.161,6.048,3.66
	c0.455,1.415,0.678,2.122,1.11,3.537c-1.291,2.021-1.937,3.033-3.226,5.055c-1.445,0.217-2.162,0.331-3.593,0.57
	c-3.231-2.015-4.86-2.988-8.14-4.867c-0.461-1.37-0.697-2.054-1.18-3.422c0.469-0.838,0.703-1.257,1.17-2.096
	c3.355,1.877,5.022,2.849,8.33,4.86c0.248-0.41,0.373-0.615,0.623-1.023c-2.373-1.444-3.566-2.15-5.965-3.524
	c-0.482-1.382-0.729-2.073-1.234-3.454c1.171-2.094,1.756-3.142,2.925-5.235C456.163,65.125,456.897,64.988,458.373,64.728
	 M453.069,61.767c-3.204,5.902-4.807,8.855-8.012,14.756c-1.891-1.026-2.84-1.529-4.744-2.515c3.08-5.968,4.619-8.955,7.699-14.922
	C450.043,60.135,451.056,60.672,453.069,61.767 M433.623,52.176c3.623,1.61,5.424,2.451,9.004,4.201
	c0.603,1.362,0.897,2.045,1.478,3.409c-2.58,5.146-3.869,7.722-6.448,12.867c-1.913-0.96-2.872-1.43-4.798-2.347
	c0.617-1.299,0.927-1.95,1.543-3.25c-1.463-0.697-2.197-1.04-3.67-1.712c-0.597,1.31-0.896,1.965-1.492,3.275
	c-1.936-0.886-2.906-1.317-4.854-2.157c2.279-5.287,3.419-7.931,5.698-13.218C431.492,52.808,432.2,52.594,433.623,52.176
	 M418.979,46.177c0.396,3.737,0.568,5.603,0.862,9.329c1.228-3.126,1.843-4.689,3.072-7.815c2.095,0.825,3.14,1.249,5.224,2.12
	c-2.589,6.198-3.882,9.299-6.47,15.497c-1.954-0.816-2.933-1.215-4.899-1.988c-0.244-3.705-0.393-5.562-0.74-9.281
	c-1.18,3.144-1.771,4.718-2.95,7.86c-1.974-0.74-2.962-1.101-4.945-1.8c2.23-6.336,3.345-9.505,5.574-15.84
	C415.821,45.003,416.875,45.386,418.979,46.177 M398.774,39.481c3.746,1.079,5.613,1.653,9.33,2.872
	c0.765,1.262,1.141,1.893,1.883,3.156c-1.541,4.545-2.311,6.818-3.852,11.362c-1.311,0.567-1.963,0.855-3.258,1.441
	c-3.486-1.143-5.238-1.682-8.752-2.694c-0.738-1.211-1.111-1.816-1.872-3.022c1.282-4.624,1.921-6.936,3.202-11.56
	C396.774,40.407,397.438,40.094,398.774,39.481 M393.106,37.916c-1.719,6.493-2.577,9.739-4.297,16.233
	c-2.016-0.532-3.024-0.789-5.047-1.279c1.586-6.528,2.377-9.792,3.963-16.318C389.882,37.074,390.958,37.346,393.106,37.916
	 M369.409,35.205c1.24-0.761,1.865-1.137,3.125-1.883c3.802,0.694,5.699,1.076,9.484,1.908c0.875,1.175,1.308,1.765,2.162,2.946
	c-0.324,1.402-0.486,2.103-0.81,3.505c-2.22-0.019-3.327-0.016-5.534,0.013c0.197-0.938,0.295-1.408,0.492-2.349
	c-1.596-0.334-2.395-0.494-3.992-0.803c-0.547,2.827-0.82,4.24-1.367,7.065c1.555,0.302,2.332,0.457,3.885,0.781
	c0.196-0.938,0.295-1.408,0.492-2.347c1.99,0.906,2.979,1.369,4.945,2.314c-0.324,1.402-0.486,2.105-0.811,3.508
	c-1.237,0.698-1.853,1.053-3.072,1.767c-3.551-0.781-5.331-1.139-8.898-1.79c-0.846-1.13-1.273-1.693-2.141-2.816
	C368.187,42.297,368.593,39.932,369.409,35.205 M351.533,32.747c1.182-0.844,1.778-1.262,2.979-2.09
	c3.824,0.436,5.735,0.687,9.549,1.259c0.948,1.11,1.416,1.67,2.343,2.79c-0.914,5.684-1.37,8.525-2.285,14.212
	c-2.043-0.328-3.065-0.481-5.111-0.768c0.199-1.426,0.3-2.139,0.499-3.563c-1.556-0.217-2.335-0.32-3.893-0.513
	c-0.178,1.429-0.266,2.144-0.445,3.571c-2.048-0.255-3.072-0.371-5.125-0.583C350.642,41.335,350.937,38.472,351.533,32.747
	 M333.681,29.099c4.928,0.178,7.394,0.323,12.317,0.727c1.017,1.045,1.519,1.569,2.515,2.626c-0.266,2.865-0.398,4.299-0.662,7.165
	c-0.572,0.43-0.857,0.644-1.425,1.076c0.484,0.524,0.724,0.786,1.202,1.313c-0.176,1.911-0.265,2.867-0.441,4.778
	c-2.053-0.189-3.08-0.273-5.133-0.421c0.104-1.436,0.155-2.152,0.258-3.59c-1.561-0.11-2.342-0.161-3.904-0.249
	c-0.081,1.438-0.122,2.155-0.204,3.594c-2.056-0.115-3.082-0.163-5.138-0.237C333.312,39.167,333.435,35.811,333.681,29.099
	 M330.63,29.007l-0.122,4.794c-3.765-0.093-5.647-0.106-9.409-0.067c0.004,0.48,0.006,0.721,0.011,1.199
	c3.209-0.034,4.817-0.025,8.03,0.037c-0.574,1.909-0.856,2.864-1.412,4.775c-2.627-0.039-3.941-0.042-6.568-0.015
	c0.005,0.48,0.007,0.72,0.012,1.199c3.66-0.039,5.492-0.025,9.155,0.066c-0.05,1.919-0.073,2.878-0.121,4.797
	c-5.651-0.142-8.476-0.132-14.117,0.041c-0.202-6.715-0.305-10.071-0.507-16.784C321.594,28.867,324.606,28.856,330.63,29.007
	 M309.806,29.289c1.141,0.9,1.707,1.354,2.83,2.268c0.099,2.397,0.149,3.595,0.249,5.993c-1.019,1.002-1.524,1.505-2.521,2.518
	c-2.621,0.138-3.931,0.222-6.547,0.424c0.184,2.392,0.277,3.588,0.46,5.979c-2.044,0.159-3.066,0.248-5.106,0.446
	c-0.65-6.687-0.976-10.028-1.625-16.712C302.439,29.726,304.893,29.543,309.806,29.289 M282.332,32.12
	c3.779-0.585,5.674-0.845,9.472-1.295c1.197,0.822,1.792,1.237,2.972,2.074c0.518,4.771,0.777,7.154,1.295,11.925
	c-0.925,1.064-1.382,1.601-2.286,2.675c-3.563,0.423-5.34,0.666-8.885,1.214c-1.16-0.791-1.743-1.185-2.921-1.962
	c-0.781-4.735-1.172-7.102-1.954-11.834C280.938,33.793,281.399,33.233,282.332,32.12 M258.952,36.792
	c3.717-0.914,5.583-1.338,9.328-2.12c1.266,0.714,1.895,1.076,3.145,1.806c0.188,0.942,0.28,1.411,0.467,2.354
	c-3.685,0.73-5.522,1.13-9.182,1.989c0.111,0.468,0.166,0.7,0.276,1.167c2.602-0.611,3.907-0.9,6.522-1.447
	c1.243,0.72,1.86,1.085,3.086,1.819c0.467,2.354,0.701,3.529,1.169,5.883c-0.828,1.142-1.237,1.716-2.044,2.863
	c-3.513,0.735-5.263,1.132-8.751,1.99c-1.225-0.687-1.842-1.027-3.084-1.698c-0.239-0.93-0.358-1.394-0.597-2.323
	c3.544-0.91,5.323-1.333,8.895-2.117c-0.103-0.47-0.154-0.702-0.257-1.171c-2.564,0.562-3.842,0.858-6.391,1.485
	c-1.249-0.68-1.878-1.017-3.143-1.682c-0.598-2.324-0.896-3.486-1.494-5.809C257.708,38.583,258.119,37.985,258.952,36.792
	 M241.532,41.697c3.655-1.161,5.492-1.71,9.181-2.74c1.313,0.629,1.965,0.947,3.262,1.593c1.496,5.559,2.245,8.338,3.74,13.897
	c-1.983,0.533-2.971,0.811-4.944,1.383c-0.402-1.383-0.603-2.073-1.005-3.456c-1.5,0.435-2.248,0.659-3.743,1.118
	c0.423,1.376,0.635,2.063,1.058,3.438c-1.965,0.604-2.944,0.914-4.898,1.558c-1.802-5.469-2.704-8.201-4.506-13.67
	C240.408,43.567,240.779,42.943,241.532,41.697 M224.44,47.767c3.579-1.408,5.38-2.079,9.001-3.356
	c1.354,0.54,2.027,0.813,3.366,1.369c0.466,1.361,0.699,2.042,1.165,3.404c-1.874,1.148-2.804,1.73-4.646,2.912
	c-0.329-0.901-0.494-1.352-0.823-2.253c-1.519,0.553-2.277,0.835-3.789,1.413c1.028,2.688,1.542,4.033,2.57,6.721
	c1.471-0.56,2.209-0.836,3.686-1.374c-0.328-0.9-0.493-1.352-0.822-2.254c2.154-0.272,3.229-0.398,5.377-0.626
	c0.467,1.363,0.7,2.043,1.166,3.406c-0.672,1.243-1.003,1.866-1.653,3.113c-3.396,1.197-5.086,1.827-8.443,3.148
	c-1.311-0.515-1.97-0.769-3.295-1.267c-1.803-4.448-2.706-6.67-4.51-11.115C223.439,49.71,223.769,49.062,224.44,47.767
	 M219.056,49.953c2.595,6.194,3.894,9.292,6.488,15.487c-1.903,0.797-2.852,1.204-4.741,2.04c-2.721-6.141-4.082-9.212-6.802-15.353
	C216.016,51.236,217.026,50.801,219.056,49.953 M202.492,57.547c2.984,2.262,4.456,3.411,7.359,5.742
	c-1.457-3.027-2.186-4.539-3.643-7.566c1.989-0.957,2.988-1.424,4.994-2.339c2.79,6.111,4.185,9.166,6.975,15.276
	c-1.882,0.857-2.818,1.297-4.684,2.193c-2.856-2.353-4.305-3.513-7.244-5.799c1.503,3.003,2.254,4.505,3.757,7.509
	c-1.853,0.928-2.776,1.401-4.613,2.366c-3.128-5.945-4.693-8.917-7.82-14.861C199.531,59.04,200.515,58.535,202.492,57.547
	 M184.01,67.708c3.335-2.007,5.017-2.979,8.411-4.859c1.435,0.302,2.149,0.458,3.571,0.781c0.684,1.265,1.027,1.898,1.712,3.165
	c-1.678,1.452-2.507,2.186-4.149,3.67c-0.474-0.835-0.71-1.253-1.184-2.087c-1.422,0.805-2.13,1.215-3.54,2.044
	c1.459,2.481,2.188,3.722,3.648,6.205c1.372-0.809,2.061-1.205,3.444-1.991c-0.473-0.834-0.71-1.251-1.184-2.085
	c2.098-0.639,3.148-0.946,5.247-1.536c0.685,1.268,1.028,1.9,1.712,3.166c-0.466,1.343-0.693,2.014-1.138,3.358
	c-3.183,1.762-4.762,2.675-7.889,4.556c-1.389-0.284-2.086-0.42-3.486-0.685c-2.517-4.086-3.775-6.129-6.292-10.215
	C183.329,69.801,183.552,69.103,184.01,67.708 M173.62,65.833l0.319,4.978l-3.745,2.49l-0.17-5.107L173.62,65.833z M179.003,70.796
	c1.026,1.622,1.538,2.433,2.563,4.055c-3.238,2.047-4.842,3.103-8.016,5.272c0.271,0.396,0.406,0.595,0.677,0.989
	c2.708-1.852,4.075-2.756,6.831-4.517c0.574,1.911,0.866,2.865,1.458,4.767c-2.248,1.454-3.365,2.196-5.581,3.713
	c0.271,0.396,0.406,0.595,0.677,0.989c3.088-2.111,4.649-3.138,7.799-5.129c1.025,1.622,1.538,2.435,2.563,4.058
	c-4.859,3.07-7.253,4.681-11.959,8.044c-3.904-5.467-5.857-8.2-9.761-13.665C171.271,75.787,173.823,74.07,179.003,70.796
	 M163.722,81.205c1.133,1.549,1.7,2.321,2.834,3.871c-1.335,0.977-1.999,1.473-3.321,2.473c2.893,3.828,4.341,5.742,7.234,9.569
	c-1.682,1.272-2.518,1.92-4.179,3.23c-2.972-3.766-4.459-5.648-7.431-9.417c-1.304,1.032-1.953,1.552-3.244,2.606
	c-1.212-1.488-1.818-2.232-3.031-3.72C156.964,86.245,159.193,84.521,163.722,81.205 M145.597,95.719
	c1.261,1.446,1.892,2.168,3.154,3.615c-2.941,2.569-4.393,3.885-7.253,6.578c0.328,0.349,0.492,0.523,0.821,0.874
	c2.441-2.299,3.677-3.425,6.177-5.633c0.853,1.809,1.283,2.709,2.153,4.506c-2.038,1.818-3.047,2.743-5.045,4.624
	c0.329,0.35,0.493,0.523,0.821,0.874c2.784-2.62,4.197-3.899,7.058-6.4c1.262,1.446,1.893,2.169,3.155,3.615
	c-4.414,3.855-6.576,5.856-10.799,10.002c-4.701-4.796-7.052-7.197-11.754-11.991C138.587,101.964,140.892,99.832,145.597,95.719
	 M129.799,110.684c1.49-0.155,2.233-0.225,3.716-0.355c3.399,3.387,5.098,5.081,8.497,8.467c-0.088,1.448-0.127,2.172-0.194,3.614
	c-3.392,3.48-5.055,5.269-8.308,8.94c-5.027-4.452-7.541-6.681-12.568-11.133C124.41,116.301,126.182,114.395,129.799,110.684
	 M112.176,131.203c1.43-0.301,2.144-0.444,3.572-0.724c0.76,0.587,1.139,0.881,1.898,1.467c-2.321,3.004-3.452,4.521-5.655,7.588
	c0.389,0.279,0.584,0.42,0.974,0.698c1.566-2.181,2.365-3.263,3.991-5.411c1.417-0.279,2.124-0.413,3.537-0.674
	c1.898,1.468,2.847,2.201,4.745,3.668c0.119,1.414,0.184,2.118,0.325,3.522c-2.186,2.886-3.25,4.345-5.322,7.292
	c-1.377,0.29-2.066,0.438-3.445,0.75c-0.79-0.544-1.186-0.816-1.976-1.36c2.078-3.018,3.146-4.513,5.339-7.471
	c-0.385-0.286-0.578-0.429-0.963-0.714c-1.574,2.123-2.346,3.19-3.862,5.345c-1.39,0.311-2.086,0.47-3.478,0.8
	c-1.976-1.358-2.964-2.039-4.941-3.398c-0.174-1.439-0.257-2.16-0.411-3.609C108.713,135.833,109.847,134.277,112.176,131.203
	 M101.712,146.015c1.402-0.385,2.103-0.572,3.504-0.937c4.779,3.211,7.168,4.814,11.947,8.025c-1.145,1.704-1.708,2.562-2.816,4.282
	c-1.211-0.778-1.817-1.168-3.027-1.946c-0.843,1.31-1.259,1.968-2.08,3.286c1.222,0.761,1.833,1.142,3.055,1.902
	c-1.08,1.734-1.61,2.606-2.654,4.358c-4.948-2.942-7.422-4.414-12.37-7.357c-0.273-1.416-0.405-2.126-0.659-3.554
	C98.591,150.823,99.612,149.21,101.712,146.015 M89.064,167.292c3.726,0.151,5.584,0.253,9.285,0.503
	c-2.938-1.627-4.408-2.441-7.345-4.068c1.05-1.894,1.584-2.838,2.674-4.716c5.809,3.371,8.715,5.054,14.525,8.425
	c-1.022,1.763-1.524,2.647-2.509,4.425c-3.677-0.293-5.522-0.416-9.225-0.611c2.962,1.583,4.443,2.374,7.404,3.958
	c-0.957,1.789-1.426,2.688-2.346,4.494c-5.985-3.049-8.978-4.571-14.963-7.619C87.544,170.157,88.044,169.199,89.064,167.292
	 M85.215,174.766c6.018,2.982,9.028,4.472,15.046,7.454c-0.899,1.814-1.339,2.725-2.201,4.553c-6.076-2.863-9.114-4.293-15.19-7.156
	C83.788,177.669,84.257,176.699,85.215,174.766 M80.5,184.788c1.314-0.591,1.972-0.882,3.288-1.452
	c2.617,1.197,3.926,1.797,6.543,2.994c0.221,0.672,0.332,1.007,0.556,1.675c0.65-0.273,0.975-0.409,1.625-0.676l4.363,1.997
	c-0.84,1.836-1.251,2.757-2.054,4.607c-1.321-0.573-1.981-0.86-3.302-1.433c-0.61,1.406-0.91,2.112-1.499,3.526
	c1.329,0.554,1.993,0.831,3.322,1.384c-0.775,1.859-1.153,2.792-1.889,4.663c-6.25-2.461-9.375-3.691-15.624-6.152
	C77.596,191.434,78.53,189.206,80.5,184.788 M74.751,198.704c1.792,0.683,2.689,1.025,4.482,1.708
	c-0.562,1.475-0.838,2.215-1.378,3.697c4.508,1.642,6.762,2.463,11.27,4.107c-0.688,1.887-1.022,2.834-1.672,4.732
	c-4.539-1.555-6.809-2.332-11.348-3.886c-0.51,1.49-0.759,2.237-1.247,3.734c-1.824-0.596-2.736-0.893-4.56-1.488
	C71.953,206.231,72.844,203.708,74.751,198.704 M66.748,223.095c4.623,1.28,6.934,1.92,11.558,3.201
	c0.408-1.474,0.617-2.21,1.046-3.679c-4.604-1.347-6.906-2.021-11.509-3.368c0.599-2.049,0.908-3.07,1.548-5.107
	c5.492,1.724,8.238,2.587,13.732,4.312c0.612,1.253,0.922,1.876,1.549,3.113c-1.017,3.355-1.496,5.04-2.397,8.422
	c-1.185,0.72-1.776,1.084-2.955,1.824c-5.578-1.428-8.367-2.141-13.943-3.569C65.905,226.18,66.179,225.15,66.748,223.095
	 M64.038,233.714c1.176-0.819,1.766-1.223,2.948-2.02c4.66,1.138,6.991,1.708,11.652,2.847c0.693,1.208,1.042,1.808,1.749,3
	c-0.797,3.405-1.166,5.114-1.846,8.542c-1.135,0.793-1.701,1.195-2.831,2.008c-4.715-0.888-7.072-1.332-11.787-2.219
	c-0.748-1.214-1.118-1.825-1.852-3.056C62.795,239.163,63.188,237.342,64.038,233.714 M60.583,250.964
	c1.122-0.891,1.684-1.332,2.812-2.203c4.725,0.836,7.087,1.254,11.811,2.091c0.77,1.159,1.157,1.735,1.939,2.878
	c-0.739,4.43-1.06,6.653-1.605,11.109c-6.667-0.816-10.001-1.224-16.667-2.038C59.453,258.052,59.795,255.684,60.583,250.964
	 M57.966,271.334c1.91,0.173,2.866,0.258,4.777,0.431c-0.329,3.641-0.463,5.465-0.669,9.116c0.479,0.027,0.718,0.041,1.197,0.067
	c0.176-3.115,0.286-4.671,0.552-7.78c1.868,0.682,2.803,1.018,4.675,1.682c-0.206,2.545-0.292,3.819-0.436,6.368
	c0.479,0.027,0.718,0.04,1.197,0.067c0.2-3.553,0.33-5.328,0.651-8.871c1.911,0.173,2.867,0.26,4.778,0.433
	c-0.494,5.465-0.668,8.205-0.87,13.692c-6.712-0.246-10.069-0.37-16.779-0.615C57.253,280.077,57.439,277.157,57.966,271.334
	 M56.89,291.546c0.976-1.049,1.467-1.569,2.453-2.599c4.796,0.124,7.194,0.186,11.99,0.31c0.934,1.032,1.403,1.544,2.346,2.558
	c-0.073,4.493-0.059,6.741,0.065,11.238c-6.714,0.187-10.072,0.28-16.785,0.468C56.827,298.729,56.812,296.333,56.89,291.546
	 M57.504,314.778c0.884-1.131,1.328-1.692,2.223-2.805c5.747-0.342,8.621-0.512,14.368-0.854c0.119,1.998,0.188,2.997,0.345,4.994
	c-1.435,0.114-2.152,0.17-3.588,0.284c0.121,1.519,0.186,2.278,0.329,3.796c1.433-0.134,2.15-0.202,3.583-0.336
	c0.187,1.995,0.29,2.993,0.517,4.986c-5.721,0.65-8.581,0.974-14.302,1.625c-1.072-0.944-1.606-1.421-2.671-2.384
	C57.923,320.364,57.762,318.503,57.504,314.778 M60.267,338.972c4.737-0.758,7.106-1.136,11.843-1.892
	c-0.242-1.518-0.358-2.277-0.577-3.797c-1.425,0.206-2.137,0.31-3.561,0.516c0.177-2.123,0.277-3.182,0.498-5.289
	c2.856-0.356,4.284-0.534,7.141-0.891c0.683,5.479,1.099,8.214,2.08,13.665c-6.611,1.19-9.916,1.784-16.526,2.975
	C60.785,342.146,60.605,341.089,60.267,338.972 M62.228,349.834c0.728-1.243,1.096-1.861,1.838-3.086
	c4.712-0.903,7.069-1.353,11.781-2.254c1.133,0.819,1.702,1.223,2.842,2.022c0.697,3.46,1.076,5.187,1.895,8.63
	c-0.699,1.206-1.045,1.813-1.731,3.036c-4.656,1.156-6.984,1.733-11.641,2.889c-1.189-0.807-1.782-1.215-2.964-2.041
	C63.375,355.361,62.971,353.521,62.228,349.834 M66.317,367.173c0.644-1.294,0.97-1.937,1.629-3.214
	c1.393-0.363,2.089-0.544,3.482-0.906c0.996,1.923,1.503,2.878,2.536,4.776c-0.924,0.26-1.386,0.39-2.31,0.65
	c0.431,1.534,0.653,2.3,1.108,3.83c2.759-0.821,4.139-1.23,6.899-2.05c-0.443-1.489-0.659-2.235-1.079-3.728
	c-0.924,0.259-1.386,0.389-2.309,0.649c-0.104-2.139-0.144-3.206-0.201-5.334c1.393-0.361,2.09-0.543,3.483-0.904
	c1.186,0.748,1.78,1.118,2.971,1.846c0.928,3.426,1.421,5.134,2.471,8.536c-0.618,1.256-0.922,1.887-1.524,3.157
	c-4.571,1.458-6.856,2.187-11.427,3.646c-1.241-0.732-1.861-1.104-3.096-1.857C67.831,372.643,67.305,370.823,66.317,367.173
	 M71.565,384.308c0.556-1.34,0.837-2.006,1.409-3.33c0.911-0.302,1.366-0.453,2.276-0.755c1.177,3.547,1.796,5.313,3.101,8.831
	c0.449-0.167,0.674-0.25,1.124-0.417c-0.927-2.501-1.374-3.755-2.237-6.271c0.564-1.318,0.849-1.974,1.429-3.275
	c2.277-0.754,3.416-1.131,5.693-1.885c1.235,0.676,1.853,1.008,3.092,1.662c1.158,3.381,1.767,5.064,3.048,8.416
	c-0.53,1.299-0.792,1.952-1.305,3.268c-0.893,0.352-1.34,0.527-2.233,0.878c-1.34-3.404-1.979-5.115-3.194-8.55
	c-0.453,0.158-0.679,0.238-1.131,0.398c0.872,2.465,1.324,3.694,2.26,6.145c-0.521,1.322-0.778,1.986-1.282,3.324
	c-2.233,0.879-3.349,1.317-5.581,2.196c-1.29-0.657-1.934-0.991-3.22-1.669C73.449,389.705,72.799,387.91,71.565,384.308
	 M83.013,412.492c-2.594-5.488-3.809-8.258-6.078-13.838c1.777-0.723,2.666-1.084,4.444-1.807c1.418,3.488,2.16,5.225,3.707,8.678
	c0.438-0.197,0.657-0.295,1.095-0.49c-1.321-2.947-1.957-4.428-3.183-7.4c1.978-0.235,2.966-0.358,4.94-0.613
	c1.016,2.43,1.54,3.641,2.621,6.051c0.438-0.195,0.657-0.294,1.094-0.49c-1.506-3.359-2.227-5.049-3.607-8.444
	c1.778-0.722,2.667-1.083,4.445-1.806c2.129,5.236,3.269,7.836,5.703,12.987C92.122,408.187,89.085,409.623,83.013,412.492
	 M552.728,359.155c-34.854,127.097-166.143,201.873-293.238,167.019C132.393,491.32,57.616,360.032,92.471,232.936
	C127.325,105.841,258.612,31.063,385.708,65.918C512.804,100.772,587.581,232.059,552.728,359.155"/>
<path fill="#101946" d="M68.853,294.28c-2.878-0.018-4.318-0.027-7.196-0.045c-0.01,1.568-0.01,2.353,0.004,3.922
	c2.878-0.024,4.317-0.036,7.196-0.06C68.844,296.57,68.842,295.808,68.853,294.28"/>
<path fill="#101946" d="M580.698,277.749c-29-40.317-85.115-23.931-85.115-23.931c-22.634-28.057-21.926-39.609-21.926-39.609
	c10.138,7.544,12.023-1.18,12.023-1.18c-49.748-72.617,2.123-111.52,2.123-111.52c-29-27.114-66.018,5.423-66.018,5.423
	c-61.771-37.96-132.504,0.943-132.504,0.943c-31.594-20.984-61.773-5.188-61.773-5.188c19.805,21.691,21.252,49.041,21.252,49.041
	c-11.757,38.666-1.211,62.951-1.211,62.951c-5.187,41.261,4.008,54.464,4.008,54.464c-89.358-0.472-101.854,94.309-101.854,94.309
	c-44.561,37.724-34.659,111.285-34.659,111.285c-10.374,59.887,32.301,77.098,32.301,77.098
	c63.423,21.455,115.058-48.334,115.058-48.334c11.552,17.92,35.365,33.127,35.365,33.127
	c87.354,42.263,138.635-11.906,138.635-11.906c2.905,2.25,37.858-43.549,34.954-45.799c-2.688-2.083,19.863-7.368,19.863-7.368
	c65.428-19.451,74.269-89.122,74.269-89.122C583.527,371.824,609.698,318.066,580.698,277.749 M314.49,197.557
	c-12.722,0.089-17.251-7.427-19.638-18.214c-2.387-10.786,2.122-12.023,2.122-12.023c3.006-0.178,3.625,1.237,3.625,1.237
	s-2.564,8.222,3.271,15.964c5.835,7.741,16.888,1.365,16.888,1.365l1.237,3.802C323.233,193.49,327.212,197.468,314.49,197.557
	 M418.015,169.441c-0.619,11.671-3.625,18.479-10.346,23.341c-6.719,4.864-19.273,2.388-20.954,0.796
	c-1.68-1.591,2.829-6.896,2.829-6.896s7.781,2.122,13.705-2.406c5.924-4.526,2.829-14.835,2.829-14.835s4.509-1.503,8.935-2.651
	C419.438,165.639,418.015,169.441,418.015,169.441"/>
<path fill="#CCAA3C" d="M234.464,104.338c0,0,18.037,22.162,17.801,43.5c0,0,22.752-14.854,33.48-12.73
	c0,0-3.286-9.079-22.045-5.423c0,0,1.768-9.549,16.033-10.492C279.733,119.193,263.818,98.916,234.464,104.338"/>
<path fill="#CCAA3C" d="M266.294,144.891c0,0,5.894-8.134,25.11-6.954c0,0,12.496,10.963,17.683,23.931
	C309.087,161.868,290.107,147.72,266.294,144.891"/>
<path fill="#CCAA3C" d="M476.368,207.636c-5.306-6.277-13.793-25.021-18.391-58.796c0,0-5.04-5.747-6.365-4.685
	c-1.326,1.06,2.476,3.802,2.828,6.012c0.354,2.211,5.305,43.941-4.42,66.576c-9.726,22.634-23.342,39.256-26.171,27.409
	c0,0-13.616,11.847-20.159,10.786s7.604-3.713,15.738-12.555c8.134-8.841,12.378-11.67,11.141-6.719
	c-1.238,4.951-3.714,12.555,3.891,2.475c7.603-10.079,14.5-20.689,13.792-34.481c0,0-30.062,51.634-77.274,4.067
	c0,0-11.671,5.128-8.842-0.708c2.83-5.835,12.909-2.121,27.055-27.408c14.147-25.286,23.342-54.384,54.465-53.98
	c0,0-5.129-10.385-21.928-1.897c0,0-7.779,1.237,1.414-7.072c9.196-8.313,22.988-20.159,50.221-18.392
	c0,0-23.164-12.201-44.207,7.073c-21.043,19.275-25.817,35.543-33.067,48.098c-7.25,12.556-20.513,42.616-41.025,54.287
	c0,0-15.561-6.012-33.775-43.5c-18.213-37.487-23.106-60.005-67.961-62.361c0,0,23.105,3.419,34.364,19.216
	c0,0-5.895-1.513-17.182,4.549c0,0,27.732-1.956,47.773,47.556c0,0,9.549,32.655,28.411,33.126c0,0,2.24,2.24,0,3.419
	c-2.24,1.179-9.195,0.354-14.029-5.659c0,0-6.549,23.342-32.155,22.399c-25.608-0.943-36.689-21.809-36.689-21.809
	s6.955,28.175,28.646,42.203c0,0-0.236-12.26,6.012-4.244s8.252,10.728,24.049,14.264c0,0-8.659,3.822-23.695-6.601
	c0,0-1.768,4.303-10.433-2.063c-8.665-6.366-46.742-42.734-29.531-100.38c0,0-17.211,18.744-7.073,67.077
	c10.138,48.333,31.299,53.284,31.299,53.284s-7.073-11.317-4.421-10.963c2.653,0.354,14.854,22.811,34.836,27.409
	c0,0,1.415-2.476-4.421-7.25c-5.835-4.775,6.189-2.299,14.5,1.414c8.311,3.714,16.799,7.427,26.701,20.159l3.254-1.238
	c0,0,23.094-26.524,44.844-28.293c0,0,1.415,1.945-3.006,4.598s-7.957,7.604-4.774,7.25s24.226-10.079,33.597-18.921
	c9.373-8.841,6.543-0.354,4.775,1.768c-1.768,2.123-5.128,5.482-2.652,5.836c2.476,0.353,33.598-21.75,35.013-48.629
	c0,0,2.21-11.228,0-16.002c-2.211-4.775,4.862-3.095,6.719-0.442c1.856,2.652,3.714,7.25,8.312,8.487
	C480.966,214.621,481.673,213.914,476.368,207.636 M352.175,286.178c0,0-3.184-14.441-19.805-22.104c0,0,15.089,1.887,19.805,12.556
	c0,0,5.775-11.376,17.979-13.793C370.153,262.837,356.183,271.148,352.175,286.178 M369.739,229.298
	c-4.773-5.128-4.244-2.122-6.72,3.624c-2.475,5.746-4.95,20.602-8.311,20.248c-3.36-0.353-7.604-25.11-9.372-25.641
	c-1.768-0.53-10.786,6.897-12.731,7.781c-1.946,0.884-3.714-0.707-3.714-0.707s10.61-6.72,17.86-14.5
	c7.25-7.781,9.726-7.427,9.726-7.427c3.418-0.413,5.481,1.768,9.902,7.957s14.677,17.86,14.677,17.86
	C376.989,239.554,374.514,234.426,369.739,229.298"/>
<path fill="#CCAA3C" d="M263.583,147.367c0,0-10.301,31.017,1.533,51.163c11.834,20.145,29.943,27.585,44.562,22.634
	c14.617-4.951,18.742-13.086,18.742-13.086s-24.047,13.558-40.081,3.301c-16.032-10.256-20.277-31.475-18.744-40.551
	c1.533-9.078,4.598-16.033,14.618-17.213C284.212,153.615,279.732,148.31,263.583,147.367"/>
<path fill="#CCAA3C" d="M313.95,173.862c0,0-13.174-12.819-31.299-8.398c0,0-6.278,18.018,7.78,33.862
	c14.06,15.845,36.25-0.442,36.25-0.442l3.714,4.421c0,0-12.732,11.574-27.232,9.324c-14.5-2.251-25.375-13.126-28.027-24.443
	c-2.653-11.317-4.067-29,13.616-32.006c0,0,9.371-1.856,26.347,16.091C315.099,172.27,317.133,175.542,313.95,173.862"/>
<path fill="#CCAA3C" d="M288.84,166.435c0,0,2.476-0.177,1.856,6.896c-0.618,7.073,2.123,25.375,22.104,27.851
	c0,0,3.802,1.237,0,2.387c-3.801,1.149-16.445,1.061-22.899-12.025C283.446,178.459,282.828,163.784,288.84,166.435"/>
<path fill="#CCAA3C" d="M292.995,109.938c0,0,34.835-18.228,69.141-15.479c34.305,2.748,54.817,14.594,54.817,14.594
	s-20.513,28.824-30.062,51.635c-9.549,22.811-31.918,41.909-31.918,41.909s-17.75-10.56-37.223-54.759
	C317.751,147.838,308.203,120.724,292.995,109.938"/>
<path fill="#CCAA3C" d="M428.624,117.365c0,0,24.579-22.898,53.227-14.854c0,0-18.125,20.424-22.636,42.617
	c0,0-4.774-9.284-26.966-12.645c0,0-2.477-1.944,5.305-2.563c7.78-0.619,13.35,0,13.262-3.713
	C450.728,122.494,446.483,116.578,428.624,117.365"/>
<path fill="#CCAA3C" d="M407.05,157.063c0,0,6.366-15.029,18.303-21.927c0,0,13.881-0.441,24.756,6.897
	C450.108,142.034,429.95,142.653,407.05,157.063"/>
<path fill="#CCAA3C" d="M431.983,150.432c0,0,15.738,8.047,12.645,25.994c-3.096,17.948-5.482,29.176-19.718,36.957
	c-14.235,7.78-36.78,3.271-46.241-2.653c0,0,13.82,15.827,33.181,13.174c19.36-2.652,30.832-12.82,34.457-24.314
	s4.774-22.369,4.862-33.951s1.681-21.572-6.276-19.98C436.935,147.249,434.548,148.221,431.983,150.432"/>
<path fill="#CCAA3C" d="M405.37,163.164c0,0-3.625,1.593-3.713,3.448c-0.089,1.857,1.414,1.15,4.422,0
	c3.004-1.148,12.201-5.128,23.076-3.448c0,0,9.637,29.265-18.744,42.085c0,0-18.744,6.278-27.056-8.045c0,0-6.808,5.127-6.543,6.631
	c0.265,1.503,9.636,12.954,30.238,10.433c20.602-2.521,28.116-18.614,30.415-25.576c2.299-6.961,8.046-27.649-6.454-34.458
	c0,0-7.429-1.855-16.534,3.536L405.37,163.164z"/>
<path fill="#CCAA3C" d="M419.694,167.054c0,0,2.801,22.804-11.021,29.659c0,0-10.199,3.319-18.51,1.904
	c0,0,1.414,5.306,12.467,3.979c11.052-1.326,20.07-8.435,22.723-18.32c2.652-9.883,3.094-18.547,1.414-19.079
	C425.088,164.667,420.843,166.258,419.694,167.054"/>
<path fill="#CCAA3C" d="M249.908,225.054c0,0-1.04,51.752,23.646,78.984c0,0-0.422,1.651,3.586,1.297s-1.886-5.658-3.537-8.724
	c-1.65-3.065-4.244-10.727-3.183-19.922c0,0,1.179-1.179,2.24,4.479c1.061,5.659,4.008,24.502,21.456,24.217
	c0,0-9.903-11.603-9.549-21.859c0,0,1.414-1.179,5.304,8.488c3.891,9.666,6.013,12.26,16.151,17.565
	c10.138,5.305,11.435,5.54,12.732,8.959c0,0,15.913-13.91,28.409-17.329c0,0-10.844-17.565-31.946-21.455
	c0,0-0.707,1.061,1.886,3.772c2.594,2.711,1.533,6.13-4.126,4.951c-5.658-1.179-14.736-5.776-20.512-11.317
	c-5.776-5.541-5.305-4.715-8.016-4.715c-2.712,0-5.895-2.122-10.728-6.72C268.887,261.128,254.725,243.895,249.908,225.054"/>
<path fill="#CCAA3C" d="M359.13,294.018c0,0,18.037-14.677,28.646-17.152c0,0,1.062,0.353-1.769,3.006
	c-2.828,2.652-5.976,5.305,1.963,4.774c7.94-0.53,13.775-4.774,19.965-7.78c6.189-3.007,9.549-7.958,10.964-6.367
	c1.415,1.592-3.537,5.187,3.183,4.009c6.719-1.179,46.684-19.923,43.146-65.545c0,0,2.476-3.537,3.714,2.652
	c1.237,6.189,7.957,28.823,23.165,43.5c0,0,0,3.36-3.359,3.537c-3.361,0.177-9.373-0.341-12.732-5.475
	c-3.36-5.135-3.537-9.909-6.189-10.263c-2.652-0.354-1.415,3.36,0,5.835c1.414,2.476,5.128,8.665,8.842,10.61
	c3.713,1.946,1.414,3.537-2.652,5.659c-4.067,2.122-5.129,3.006-5.129,3.006s-1.414,1.592-4.42-2.122s-4.951-6.189-5.659-4.774
	c-0.707,1.414,2.476,5.128,3.536,7.073c1.062,1.945,1.593,3.359-0.883,5.128c-2.477,1.768-13.793,10.963-20.867,19.628
	c0,0,0.178,2.652-5.305-0.354c-5.481-3.006-43.322-7.25-76.744,3.183C360.544,295.786,358.57,296.632,359.13,294.018"/>
<path fill="#CCAA3C" d="M291.05,356.851c0,0,22.28-40.199,65.427-55.643c43.146-15.442,81.813-3.3,81.813-3.3
	s-12.968,15.561-15.089,37.723c0,0,0.294,2.653-2.946,0.649c-3.244-2.004-16.447-10.138-38.668-10.198c0,0-1.119,1.121,0.825,1.887
	c1.945,0.766,18.921-0.118,36.545,11.376c0,0,2.652,2.004,0.177,3.183s-29.53,5.246-49.218,47.331c0,0-32.006-6.365-64.896,23.166
	c0,0-17.388,0.883-18.862-0.591c-1.473-1.473-5.658-8.192-0.353-15.442s16.916-22.517,50.514-35.248c0,0,4.185-2.594-1.12-2.476
	c-5.305,0.118-36.721,14.323-51.044,31.475c0,0-3.007,3.006-2.299-3.891c0.707-6.896,5.623-39.433,71.687-55.171
	c0,0,3.406-3.094-6.378-1.503c-9.784,1.592-37.547,7.869-53.197,27.409C293.967,357.588,290.608,360.712,291.05,356.851"/>
<path fill="#CCAA3C" d="M271.599,387.089c0,0,6.72,2.181,7.073,8.605c0.354,6.426,0.295,10.315,1.355,12.26
	c1.062,1.945,1.709,4.186-2.711,3.184c-4.421-1.002-18.096-5.275-30.385-12.26c-12.291-6.985-41.467,3.006-42.97,2.74
	c-1.503-0.265-7.427,1.414-1.68-22.723s8.665-37.429,40.671-60.358c0,0,27.52-15.679,55.58-7.014c0,0,19.307,6.3,13.649,11.593
	c-5.659,5.294-14.5,15.373-23.519,30.669c0,0-0.972,3.449-5.305,0.973c-4.332-2.476-31.682-16.77-55.141-9.343
	c0,0-1.651,1.415,4.008,0.825c5.659-0.589,37.959,0.584,50.337,13.908c0,0,2.261,1.536-0.815,8.845
	c-3.075,7.308-2.603,17.21-2.603,17.21s1.65,2.594-4.834-1.885c-6.483-4.48-22.752-20.16-55.288-14.5c0,0-3.066,2.711,0.589,3.301
	c3.655,0.588,22.163-3.301,34.777,4.361C267,385.144,271.599,387.089,271.599,387.089"/>
<path fill="#CCAA3C" d="M235.761,290.953c0,0,5.187,10.374,4.362,23.577c0,0-0.118,0.944,6.484-2.357
	c6.601-3.302,14.264-6.248,21.926-5.895c0,0,1.533-1.061-2.122-5.423c-3.654-4.361-11.552-20.865-12.024-23.577
	c-0.471-2.711-1.061-4.48-9.313-4.126s-20.63-1.061-41.143,12.732c-20.512,13.793-38.43,24.284-50.219,77.569
	c0,0-1.12,17.035,0.736,16.328c1.857-0.708,6.632-11.589,20.778-19.632c0,0,2.063-25.932,22.693-46.798c0,0,2.476-1.061,1.179,1.887
	c-1.296,2.947-17.8,17.683-18.036,40.788c0,0-0.354,1.061,6.719-3.065c7.073-4.126,15.325-6.955,22.281-8.252
	c0,0,10.963-17.565,24.756-26.171c0,0,2.358-18.39-1.061-24.874C233.757,293.664,231.753,289.538,235.761,290.953"/>
<path fill="#CCAA3C" d="M146.639,371.469c0,0-27.484,28.197-27.468,89.476c0,0-0.707,8.488,3.537-2.594
	c4.244-11.08,7.736-15.088,10.175-14.735c2.439,0.354-0.862,3.184-3.455,8.135c-2.594,4.951-10.61,17.918-12.025,29.825
	c-1.415,11.906,4.715,54.229,31.358,65.781c26.642,11.552,47.626,3.064,81.813-20.041c0,0,22.163-15.326,28.293-27.586
	c0,0,0.943-2.357-1.061-3.891c-2.004-1.531-5.895-6.012-5.895-6.012s0.236-2.594-4.008,1.886
	c-4.243,4.479-21.573,22.045-36.191,22.045c0,0-1.532-0.825,1.768-1.769c3.301-0.942,15.797-5.068,24.049-13.793
	c8.253-8.723,13.911-9.901,9.667-15.561c-4.244-5.658-16.504-24.992-20.512-30.414c-4.008-5.423-5.423-9.668-10.492-9.785
	c-5.069-0.117-16.386,2.83-26.642,7.428c-10.257,4.597-31.653,16.031-40.494,34.422c0,0-4.421,15.561,16.091,15.915
	c20.512,0.354,39.256-14.147,39.256-14.147s2.476-3.182,4.421-1.591c1.945,1.591-15.738,13.97-30.592,17.506
	c-14.853,3.537-31.299,4.067-32.713-7.78c-1.415-11.848,3.006-21.097,17.329-32.209c0,0-4.951-11.291,4.421-23.846
	c0,0,0.032-23.873,32.553-34.658c0,0-7.518-31.033,6.35-51.458c0,0,1.092-3.89-6.35-1.237c-7.443,2.652-35.205,18.744-44.401,36.427
	c-9.195,17.683-12.024,22.812-13.615,46.506c0,0-2.299,3.006-2.299-2.829c0-5.836-3.714-21.927,10.256-44.031l-0.531-15.561
	C149.232,371.292,148.439,369.389,146.639,371.469"/>
<path fill="#CCAA3C" d="M174.578,431.355c0,0-4.244,3.773-1.061-3.301c3.183-7.072,12.496-16.268,32.301-21.69
	c19.805-5.423,25.11-5.187,25.11-5.187s8.252-1.651,1.768,2.828c-6.484,4.48-9.667,11.672-9.785,16.151
	c-0.117,4.479,2.24,0.589,2.948-1.179c0.707-1.769,6.601-10.963,10.138-13.086c3.537-2.121,6.602-2.004,13.203,0.354
	c6.602,2.357,17.683,8.018,28.765,10.375c11.081,2.357,32.536,0.648,44.914,3.301c12.378,2.651,37.665,8.663,53.403,23.694
	c15.738,15.03,18.39,24.933,18.037,30.946c-0.354,6.012-3.008,18.92-21.043,19.982c-18.037,1.059-31.477-1.238-42.616-5.66
	c-11.141-4.42-22.988-10.963-35.189-19.981c-12.202-9.019-21.043-14.677-21.043-14.677s-1.945-0.885-1.415,1.414
	c0.531,2.299,23.342,20.336,41.909,30.062c18.567,9.726,30.593,15.562,50.397,13.97c19.804-1.592,32.006-4.421,33.773-25.641
	c0,0,6.543-0.354,8.842-6.012c0,0,3.006,1.768,9.019-2.299c0,0,15.915-0.707,15.207-18.567c-0.707-17.86-7.78-41.909-56.409-56.586
	c0,0,17.508-57.057,86.824-47.154c0,0,37.37,3.065,29.531,37.487c-7.84,34.423-42.027,53.285-42.027,53.285s0.707,2.594,2.357,2.121
	c1.65-0.471,31.517-24.049,40.75-44.797c9.234-20.748,3.104-26.642,3.104-26.642s48.57,6.13,58.473-58.236
	c0,0-0.943-3.773-3.772,7.309s-13.911,42.905-54.7,46.208c0,0-13.439-32.297-69.316-19.801c0,0,3.301-40.2,46.211-68.552
	c42.912-28.351,79.691-10.904,79.691-10.904s35.838,16.032,33.952,49.748c-1.888,33.716,2.593,70.732-74.505,93.838
	c0,0-1.65,1.886,1.179,1.886s31.718-7.394,43.382-16.74c0,0,2.594-3.772,2.358,0.943c-0.236,4.716-19.569,66.017-74.269,78.748
	s-66.017,29-66.017,29s0.472,3.468,3.302,1.616c2.828-1.852,15.797-11.047,26.405-14.584c10.61-3.535,18.392-8.252,16.033-3.771
	c-2.036,3.869-23.244,50.479-77.295,62.807c-67.352,8.106-123.455-80.752-127.474-80.254c-5.231,0.648,54.994,77.629,99.379,83.227
	c-72.147,10.492-125.668-92.893-125.668-92.893s-7.486-17.92-20.217-16.682c-12.732,1.238-31.122,12.023-36.781,14.854
	s-11.317,9.549-11.848,4.067c-0.53-5.481,2.476-14.147,9.372-19.981c6.897-5.836,22.988-12.025,27.055-12.91
	c4.067-0.883,5.305-4.066,1.061-3.889C198.037,420.097,183.832,424.046,174.578,431.355"/>
<path fill="#CCAA3C" d="M318.164,409.31c0,0,17.211-14.735,37.017-14.971c19.805-0.235,35.012,3.537,46.801,11.082
	s24.639,23.342,25.816,33.832c1.18,10.492,0.354,21.338-9.43,20.159c0,0,4.242-22.634-16.387-39.374
	c-20.631-16.74-27.644-18.982-28.793-18.568c-1.15,0.414,0.383,0.649,6.748,5.601s30.769,19.806,34.306,43.147
	c0,0,1.178,12.731-2.595,12.613c-3.771-0.117-3.064-1.533-3.771-4.832c-0.708-3.302-7.073-17.685-16.977-27.115
	c-9.902-9.431-20.865-18.391-22.869-20.041s-5.305-3.654-6.131-2.476c-0.824,1.179-0.472,0.589,5.776,6.366
	c6.248,5.775,18.392,14.5,25.228,25.346c6.839,10.846,11.199,19.451,10.611,23.577c-0.591,4.126-2.83,8.252-6.248,3.065
	c-3.42-5.188-10.965-39.965-79.103-51.752c0,0-9.063,0-4.944-2.948C317.339,409.075,318.164,409.31,318.164,409.31"/>
<path fill="#101946" d="M226.246,662.072c-36.194-0.848-37.053-39.172-37.053-39.172s2.071-0.475,9.693-1.391
	c7.622-0.917,11.868-0.66,11.868-0.66c0,10.662,3.141,20.405,15.922,23.142c12.781,2.737,20.727-6.407,21.252-6.953
	c0.04,0.014,0.075,0.026,0.114,0.04c-8.953-3.278-21.518-8.955-38.848-18.738c0,0-24.19,0.174-41.266,7.676
	c0,0,6.121,44.868,52.035,46.143c0,0,36.893,2.83,48.009-30.856C250.519,662.958,226.246,662.072,226.246,662.072"/>
<path fill="#101946" d="M254.891,639.346c0.289,0.085,0.577,0.169,0.854,0.247C255.468,639.515,255.18,639.431,254.891,639.346"/>
<path fill="#101946" d="M267.919,641.313c-0.003,0-0.01,0.003-0.014,0.003C267.911,641.314,267.915,641.314,267.919,641.313"/>
<polyline fill="#101946" points="267.737,641.345 267.729,641.347 267.737,641.345 "/>
<path fill="#101946" d="M252.781,638.703c0.314,0.101,0.616,0.193,0.919,0.287C253.398,638.896,253.095,638.803,252.781,638.703"/>
<path fill="#101946" d="M250.522,637.958c0.247,0.085,0.475,0.158,0.716,0.238C250.999,638.117,250.77,638.042,250.522,637.958"/>
<path fill="#101946" d="M373.356,641.313c0.004,0.001,0.006,0.001,0.012,0.003C373.364,641.316,373.358,641.313,373.356,641.313"/>
<path fill="#101946" d="M379.896,640.8c-0.122,0.027-0.238,0.05-0.355,0.074C379.657,640.85,379.773,640.828,379.896,640.8"/>
<path fill="#101946" d="M378.565,641.059c-0.074,0.013-0.151,0.027-0.225,0.039C378.414,641.086,378.491,641.072,378.565,641.059"/>
<polyline fill="#101946" points="373.522,641.345 373.53,641.347 373.522,641.345 "/>
<path fill="#101946" d="M427.009,618.339c-15.833,9.783-27.313,15.461-35.493,18.738c0.036-0.014,0.069-0.025,0.105-0.04
	c0.479,0.546,7.739,9.69,19.415,6.953c11.678-2.736,14.548-12.479,14.548-23.142c0,0,3.88-0.258,10.843,0.66
	c6.964,0.916,8.855,1.391,8.855,1.391s-0.784,38.324-33.853,39.173c0,0-22.177,0.885-38.122-20.771
	c10.156,33.687,43.862,30.855,43.862,30.855c41.948-1.273,47.542-46.143,47.542-46.143
	C449.11,618.513,427.009,618.339,427.009,618.339"/>
<path fill="#101946" d="M387.187,638.703c-0.287,0.1-0.563,0.193-0.84,0.287C386.623,638.896,386.899,638.802,387.187,638.703"/>
<path fill="#101946" d="M381.315,640.476c-0.119,0.029-0.227,0.053-0.342,0.08C381.089,640.529,381.196,640.505,381.315,640.476"/>
<path fill="#101946" d="M389.25,637.958c-0.226,0.085-0.437,0.158-0.656,0.238C388.813,638.117,389.024,638.043,389.25,637.958"/>
<path fill="#101946" d="M385.259,639.346c-0.264,0.085-0.527,0.169-0.781,0.247C384.731,639.515,384.995,639.431,385.259,639.346"/>
<path fill="#101946" d="M383.364,639.922c-0.183,0.054-0.373,0.111-0.551,0.16C382.991,640.034,383.182,639.976,383.364,639.922"/>
<path fill="#101946" d="M149.371,556.234c0,0-80.962-20.382-100.778-30.289c0,0-3.397-1.793-1.982,3.49
	c1.416,5.284,8.21,103.516,11.89,176.268c0,0,0.236,2.879,0.047,3.822c-0.189,0.943,1.557,2.736,4.341,2.406
	c2.783-0.33,69.403-1.713,87.803,0.04v-29.056H88.225l-1.416-36.943c0,0,32.272,0.378,39.538,2.076l10.757-31.706h-51.71
	l-2.123-44.821l66.242,15.664L149.371,556.234z"/>
<path fill="#101946" d="M165.457,558.452v0.308v29.771c0,0,67.234,52.63,102.515,52.771c0,0,9.022,45.719-37.376,45.719h-26.904
	v-11.04c0,0-16.647-5.19-31.844-20.476c0,0-2.471-2.737-2.471,0.836v54.529c0,0-0.161,1.063,3.524,1.063
	c3.686,0,32.563-1.416,81.861,0c0,0,39.47-8.493,39.47-47.559v-40.387c0,0,0.107-1.793-3.866-2.076
	c-3.974-0.283-64.549-16.984-119.324-64.543C171.042,557.367,165.457,554.654,165.457,558.452"/>
<path fill="#101946" d="M426.29,563.523c-38.025,16.898-105.021,15.924-105.023,15.924s-66.999,0.975-105.025-15.924
	c0,0-4.176-1.84-2.902,1.486s35.032,34.914,61.265,45.766c0,0,0.991,0.613,3.963-2.643c2.973-3.255,14.248-9.482,19.863-8.066
	c0,0,1.982,0.33,1.935,6.51c-0.048,6.182,6.558,89.314,6.558,89.314s1.037,1.037,2.335,0c1.298-1.039,3.232-25.926,12.008-25.926
	c8.775,0,10.71,24.887,12.007,25.926c1.298,1.037,2.335,0,2.335,0s6.605-83.133,6.559-89.314c-0.047-6.18,1.935-6.51,1.935-6.51
	c5.614-1.416,16.892,4.812,19.862,8.066c2.973,3.256,3.964,2.643,3.964,2.643c26.233-10.852,59.991-42.439,61.265-45.766
	S426.29,563.523,426.29,563.523"/>
<path fill="#101946" d="M332.095,707.402c-1.84-33.545-10.829-35.039-10.829-35.039s-8.422,1.494-10.262,35.039
	c0,0,3.326,46.332,10.262,46.332C328.201,753.734,332.095,707.402,332.095,707.402"/>
<path fill="#CCAA3C" d="M171.189,627.194c0,0,4.914-1.604,8.941-2.524c4.028-0.92,6.269-1.155,6.269-1.155
	s-0.613,38.403,39.363,40.858c0,0,17.561,0.142,31.415-10.049c0,0-10.238,16.264-39.228,15.428
	C188.96,668.916,173.928,642.246,171.189,627.194"/>
<path fill="#101946" d="M469.2,557.303c-39.021,34.282-81.021,52.53-102.9,60.153c-19.69,6.058-18.848,20.982-18.848,20.982v25.871
	c0,39.065,39.009,47.559,39.009,47.559c48.72-1.416,80.902,0,80.902,0s7.356,0.664,7.356-1.063v-34.884v-19.646v-67.811v-9.041
	v-20.73v-0.307C474.72,554.59,469.2,557.303,469.2,557.303 M410.343,686.957c-45.854,0-36.938-45.719-36.938-45.719
	c19.482-0.078,48.822-16.545,70.922-31.061v42.614C444.327,688.083,410.343,686.957,410.343,686.957"/>
<path fill="#CCAA3C" d="M461.731,627.194c0,0-4.49-1.604-8.17-2.524c-3.68-0.92-5.728-1.155-5.728-1.155s0.562,38.403-35.963,40.858
	c0,0-16.043,0.142-28.702-10.049c0,0,9.355,16.264,35.841,15.428S459.229,642.246,461.731,627.194"/>
<path fill="#101946" d="M596.325,527.218c-3.532,2.123-21.206,15.286-98.332,26.751c0,0-4.439,0.853-4.342,3.894
	c0,0,1.398,17.055-5.078,143.028l-0.588,8.209c0,0-0.438,2.957,2.896,2.894c3.334-0.063,27.717-0.063,27.717-0.063
	s2.944,0.425,1.768-4.176c-1.178-4.6,0.588-35.598,2.648-55.838c0,0-0.146-1.911,3.459-1.77c3.606,0.141,39.521,0,39.521,0
	s29.144,0.637,31.498-35.031l2.417-86.483C599.909,528.633,599.858,525.095,596.325,527.218 M568.447,572.087
	c0,0-1.374,26.421-2.552,38.688c-1.178,12.268-28.26,11.512-35.521,11.512c-7.261,0-6.083-1.471-6.083-1.471
	c0.785-27.139,4.17-45.189,4.17-45.189c0.933-0.803,2.698-0.803,2.698-0.803s24.729-3.586,31.205-4.058
	S568.447,572.087,568.447,572.087"/>
</svg>
