<svg width="113" height="46" fill="none" xmlns="http://www.w3.org/2000/svg"><path d="M36.734 27.514c-7.387-.172-7.562-7.9-7.562-7.9s.422-.096 1.978-.281c1.556-.185 2.422-.133 2.422-.133 0 2.15.641 4.115 3.25 4.667 2.609.552 4.23-1.292 4.337-1.402l.024.008c-1.828-.661-4.392-1.806-7.93-3.78 0 0-4.936.035-8.422 1.549 0 0 1.25 9.049 10.621 9.306 0 0 7.53.57 9.799-6.223-3.563 4.367-8.517 4.189-8.517 4.189ZM42.58 22.93ZM45.24 23.327h-.003.003ZM45.203 23.334H45.2h.002Z" fill="#101946"/><path d="M42.15 22.8c.064.02.126.04.188.058a19.345 19.345 0 0 1-.188-.058ZM41.69 22.65c.05.018.096.032.145.049-.049-.017-.096-.031-.146-.049ZM66.76 23.327h.002-.002ZM68.094 23.224l-.072.014.072-.014ZM67.823 23.276l-.046.008.046-.008ZM66.793 23.334h.002-.002ZM77.71 18.694c-3.231 1.973-5.574 3.118-7.244 3.779l.022-.008c.097.11 1.58 1.954 3.963 1.402S77.42 21.35 77.42 19.2c0 0 .791-.052 2.213.133 1.42.185 1.807.28 1.807.28s-.16 7.73-6.91 7.9c0 0-4.526.18-7.78-4.188 2.073 6.794 8.952 6.223 8.952 6.223 8.562-.257 9.704-9.306 9.704-9.306-3.185-1.514-7.696-1.548-7.696-1.548Z" fill="#101946"/><path d="M69.583 22.8c-.059.02-.115.04-.172.058.056-.019.113-.037.172-.058ZM68.384 23.158l-.07.016.07-.016ZM70.004 22.65c-.046.018-.09.032-.134.049l.134-.049ZM69.19 22.93ZM68.802 23.047l-.112.032.112-.032ZM21.044 6.168S4.519 2.058.474.059c0 0-.692-.362-.404.704.29 1.066 1.676 20.877 2.427 35.55 0 0 .048.581.01.771-.039.19.318.552.886.486.568-.067 14.165-.346 17.92.008v-5.86H8.564l-.288-7.451s6.587.076 8.07.418l2.195-6.394H7.986l-.433-9.04 13.52 3.16-.03-6.243ZM24.327 6.615v6.066S38.05 23.296 45.251 23.325c0 0 1.841 9.22-7.629 9.22h-5.491v-2.227s-3.398-1.046-6.5-4.13c0 0-.504-.551-.504.17v10.997s-.033.214.72.214c.752 0 6.646-.285 16.707 0 0 0 8.056-1.713 8.056-9.591v-8.146s.022-.362-.789-.419c-.811-.057-13.174-3.425-24.354-13.017 0 0-1.14-.547-1.14.22Z" fill="#101946"/><path d="M77.564 7.638c-7.761 3.408-21.435 3.212-21.436 3.212 0 0-13.674.196-21.436-3.212 0 0-.852-.371-.592.3.26.67 7.15 7.042 12.505 9.23 0 0 .202.124.808-.533.607-.656 2.908-1.912 4.054-1.627 0 0 .405.067.395 1.313-.01 1.247 1.339 18.013 1.339 18.013s.212.21.476 0c.265-.21.66-5.229 2.451-5.229s2.186 5.02 2.45 5.23c.266.209.477 0 .477 0s1.349-16.767 1.339-18.014c-.01-1.246.395-1.313.395-1.313 1.146-.286 3.447.97 4.054 1.627.607.657.809.533.809.533 5.354-2.188 12.244-8.56 12.504-9.23.26-.671-.592-.3-.592-.3Z" fill="#101946"/><path d="M58.338 36.656c-.375-6.766-2.21-7.067-2.21-7.067s-1.719.301-2.094 7.067c0 0 .679 9.344 2.094 9.344 1.416 0 2.21-9.344 2.21-9.344Z" fill="#101946"/><path d="M25.497 20.48s1.003-.324 1.825-.51c.822-.185 1.28-.233 1.28-.233s-.126 7.745 8.034 8.24c0 0 3.584.03 6.411-2.026 0 0-2.09 3.28-8.006 3.111-5.917-.168-8.985-5.547-9.544-8.582Z" fill="#CCAA3C"/><path d="M86.322 6.384c-7.965 6.914-16.537 10.594-21.003 12.132-4.019 1.221-3.846 4.231-3.846 4.231v5.218c0 7.879 7.961 9.592 7.961 9.592 9.944-.286 16.513 0 16.513 0s1.501.134 1.501-.215V6.602c0-.765-1.126-.218-1.126-.218ZM74.309 32.532c-9.36 0-7.54-9.22-7.54-9.22 3.977-.016 9.965-3.337 14.476-6.265v8.595c0 7.118-6.936 6.89-6.936 6.89Z" fill="#101946"/><path d="M84.797 20.48s-.916-.324-1.667-.51a10.306 10.306 0 0 0-1.17-.233s.115 7.745-7.34 8.24c0 0-3.274.03-5.857-2.026 0 0 1.909 3.28 7.315 3.111 5.405-.168 8.209-5.547 8.72-8.582Z" fill="#CCAA3C"/><path d="M112.268.316c-.721.428-4.328 3.083-20.07 5.395 0 0-.906.172-.886.785 0 0 .286 3.44-1.036 28.847l-.12 1.655s-.09.597.591.584c.68-.013 5.657-.013 5.657-.013s.601.086.36-.842c-.24-.928.12-7.18.541-11.261 0 0-.03-.386.706-.357.737.028 8.067 0 8.067 0s5.948.128 6.428-7.066L113 .601s-.011-.713-.732-.285Zm-5.69 9.05s-.28 5.328-.52 7.802c-.241 2.474-5.768 2.322-7.25 2.322-1.482 0-1.242-.297-1.242-.297.16-5.474.851-9.114.851-9.114.19-.162.551-.162.551-.162s5.047-.723 6.369-.818c1.321-.095 1.241.266 1.241.266Z" fill="#101946"/></svg>